<?xml version="1.0" standalone="no"?>
 <!DOCTYPE svg PUBLIC "-//W3C//DTD SVG 1.1//EN" 
 "http://www.w3.org/Graphics/SVG/1.1/DTD/svg11.dtd"> 
<svg xmlns="http://www.w3.org/2000/svg" version="1.1" 
    width="4.89712cm" height="3.8354cm" viewBox="0 0 19280 15100 ">
<title>SVG Picture created as mainboard-B_Paste.svg date 2019/11/01 14:40:13 </title>
  <desc>Picture generated by PCBNEW </desc>
<g style="fill:#000000; fill-opacity:1;stroke:#000000; stroke-opacity:1;
stroke-linecap:round; stroke-linejoin:round; "
 transform="translate(0 0) scale(1 1)">
</g>
<g style="fill:#000000; fill-opacity:0.0; 
stroke:#000000; stroke-width:-0.000393701; stroke-opacity:1; 
stroke-linecap:round; stroke-linejoin:round;">
<g >
</g>
<g >
</g>
<g >
</g>
<g >
</g>
<g >
</g>
<g style="fill:#000000; fill-opacity:0.0; 
stroke:#000000; stroke-width:-0.000393701; stroke-opacity:1; 
stroke-linecap:round; stroke-linejoin:round;">
</g>
<g style="fill:#000000; fill-opacity:0.0; 
stroke:#000000; stroke-width:0; stroke-opacity:1; 
stroke-linecap:round; stroke-linejoin:round;">
</g>
<g style="fill:#000000; fill-opacity:1.0; 
stroke:#000000; stroke-width:0; stroke-opacity:1; 
stroke-linecap:round; stroke-linejoin:round;">
<path style="fill:#000000; fill-opacity:1.0; 
stroke:#000000; stroke-width:0; stroke-opacity:1; 
stroke-linecap:round; stroke-linejoin:round;fill-rule:evenodd;"
d="M 5923,12570
5929,12571
5934,12572
5940,12574
5945,12576
5950,12579
5954,12583
5959,12587
5962,12591
5966,12595
5969,12600
5971,12605
5973,12611
5974,12616
5975,12622
5976,12628
5976,12763
5975,12769
5974,12775
5973,12780
5971,12786
5969,12791
5966,12796
5962,12800
5959,12804
5954,12808
5950,12812
5945,12815
5940,12817
5934,12819
5929,12820
5923,12821
5917,12821
5801,12821
5796,12821
5790,12820
5784,12819
5779,12817
5774,12815
5769,12812
5764,12808
5760,12804
5756,12800
5753,12796
5750,12791
5748,12786
5746,12780
5744,12775
5744,12769
5743,12763
5743,12628
5744,12622
5744,12616
5746,12611
5748,12605
5750,12600
5753,12595
5756,12591
5760,12587
5764,12583
5769,12579
5774,12576
5779,12574
5784,12572
5790,12571
5796,12570
5801,12570
5917,12570
5923,12570
Z" /> 
<path style="fill:#000000; fill-opacity:1.0; 
stroke:#000000; stroke-width:0; stroke-opacity:1; 
stroke-linecap:round; stroke-linejoin:round;fill-rule:evenodd;"
d="M 6305,12570
6311,12571
6316,12572
6322,12574
6327,12576
6332,12579
6336,12583
6340,12587
6344,12591
6348,12595
6351,12600
6353,12605
6355,12611
6356,12616
6357,12622
6357,12628
6357,12763
6357,12769
6356,12775
6355,12780
6353,12786
6351,12791
6348,12796
6344,12800
6340,12804
6336,12808
6332,12812
6327,12815
6322,12817
6316,12819
6311,12820
6305,12821
6299,12821
6183,12821
6178,12821
6172,12820
6166,12819
6161,12817
6156,12815
6151,12812
6146,12808
6142,12804
6138,12800
6135,12796
6132,12791
6130,12786
6128,12780
6126,12775
6125,12769
6125,12763
6125,12628
6125,12622
6126,12616
6128,12611
6130,12605
6132,12600
6135,12595
6138,12591
6142,12587
6146,12583
6151,12579
6156,12576
6161,12574
6166,12572
6172,12571
6178,12570
6183,12570
6299,12570
6305,12570
Z" /> 
</g>
<g >
</g>
<g style="fill:#000000; fill-opacity:1.0; 
stroke:#000000; stroke-width:0; stroke-opacity:1; 
stroke-linecap:round; stroke-linejoin:round;">
<path style="fill:#000000; fill-opacity:1.0; 
stroke:#000000; stroke-width:0; stroke-opacity:1; 
stroke-linecap:round; stroke-linejoin:round;fill-rule:evenodd;"
d="M 2858,2113
2864,2114
2869,2115
2874,2117
2880,2119
2885,2122
2889,2126
2893,2129
2897,2134
2901,2138
2903,2143
2906,2148
2908,2154
2909,2159
2910,2165
2910,2170
2910,2287
2910,2292
2909,2298
2908,2303
2906,2309
2903,2314
2901,2319
2897,2323
2893,2328
2889,2332
2885,2335
2880,2338
2874,2340
2869,2342
2864,2344
2858,2344
2852,2345
2716,2345
2711,2344
2705,2344
2700,2342
2694,2340
2689,2338
2684,2335
2680,2332
2675,2328
2672,2323
2668,2319
2665,2314
2663,2309
2661,2303
2659,2298
2659,2292
2658,2287
2658,2170
2659,2165
2659,2159
2661,2154
2663,2148
2665,2143
2668,2138
2672,2134
2675,2129
2680,2126
2684,2122
2689,2119
2694,2117
2700,2115
2705,2114
2711,2113
2716,2112
2852,2112
2858,2113
Z" /> 
<path style="fill:#000000; fill-opacity:1.0; 
stroke:#000000; stroke-width:0; stroke-opacity:1; 
stroke-linecap:round; stroke-linejoin:round;fill-rule:evenodd;"
d="M 2858,2495
2864,2495
2869,2497
2874,2499
2880,2501
2885,2504
2889,2507
2893,2511
2897,2516
2901,2520
2903,2525
2906,2530
2908,2536
2909,2541
2910,2547
2910,2552
2910,2669
2910,2674
2909,2680
2908,2685
2906,2691
2903,2696
2901,2701
2897,2705
2893,2710
2889,2713
2885,2717
2880,2720
2874,2722
2869,2724
2864,2725
2858,2726
2852,2727
2716,2727
2711,2726
2705,2725
2700,2724
2694,2722
2689,2720
2684,2717
2680,2713
2675,2710
2672,2705
2668,2701
2665,2696
2663,2691
2661,2685
2659,2680
2659,2674
2658,2669
2658,2552
2659,2547
2659,2541
2661,2536
2663,2530
2665,2525
2668,2520
2672,2516
2675,2511
2680,2507
2684,2504
2689,2501
2694,2499
2700,2497
2705,2495
2711,2495
2716,2494
2852,2494
2858,2495
Z" /> 
</g>
<g >
</g>
<g style="fill:#000000; fill-opacity:1.0; 
stroke:#000000; stroke-width:0; stroke-opacity:1; 
stroke-linecap:round; stroke-linejoin:round;">
<path style="fill:#000000; fill-opacity:1.0; 
stroke:#000000; stroke-width:0; stroke-opacity:1; 
stroke-linecap:round; stroke-linejoin:round;fill-rule:evenodd;"
d="M 2300,3415
3269,3415
3269,4324
2300,4324
2300,3415
Z" /> 
<path style="fill:#000000; fill-opacity:1.0; 
stroke:#000000; stroke-width:0; stroke-opacity:1; 
stroke-linecap:round; stroke-linejoin:round;fill-rule:evenodd;"
d="M 3651,4677
4231,4677
4231,4854
3651,4854
3651,4677
Z" /> 
<path style="fill:#000000; fill-opacity:1.0; 
stroke:#000000; stroke-width:0; stroke-opacity:1; 
stroke-linecap:round; stroke-linejoin:round;fill-rule:evenodd;"
d="M 3651,4421
4231,4421
4231,4598
3651,4598
3651,4421
Z" /> 
<path style="fill:#000000; fill-opacity:1.0; 
stroke:#000000; stroke-width:0; stroke-opacity:1; 
stroke-linecap:round; stroke-linejoin:round;fill-rule:evenodd;"
d="M 3651,4165
4231,4165
4231,4342
3651,4342
3651,4165
Z" /> 
<path style="fill:#000000; fill-opacity:1.0; 
stroke:#000000; stroke-width:0; stroke-opacity:1; 
stroke-linecap:round; stroke-linejoin:round;fill-rule:evenodd;"
d="M 3651,3909
4231,3909
4231,4086
3651,4086
3651,3909
Z" /> 
<path style="fill:#000000; fill-opacity:1.0; 
stroke:#000000; stroke-width:0; stroke-opacity:1; 
stroke-linecap:round; stroke-linejoin:round;fill-rule:evenodd;"
d="M 3651,3653
4231,3653
4231,3830
3651,3830
3651,3653
Z" /> 
<path style="fill:#000000; fill-opacity:1.0; 
stroke:#000000; stroke-width:0; stroke-opacity:1; 
stroke-linecap:round; stroke-linejoin:round;fill-rule:evenodd;"
d="M 3651,3397
4231,3397
4231,3574
3651,3574
3651,3397
Z" /> 
<path style="fill:#000000; fill-opacity:1.0; 
stroke:#000000; stroke-width:0; stroke-opacity:1; 
stroke-linecap:round; stroke-linejoin:round;fill-rule:evenodd;"
d="M 3651,3141
4231,3141
4231,3318
3651,3318
3651,3141
Z" /> 
<path style="fill:#000000; fill-opacity:1.0; 
stroke:#000000; stroke-width:0; stroke-opacity:1; 
stroke-linecap:round; stroke-linejoin:round;fill-rule:evenodd;"
d="M 3651,2885
4231,2885
4231,3062
3651,3062
3651,2885
Z" /> 
<path style="fill:#000000; fill-opacity:1.0; 
stroke:#000000; stroke-width:0; stroke-opacity:1; 
stroke-linecap:round; stroke-linejoin:round;fill-rule:evenodd;"
d="M 1337,2885
1918,2885
1918,3062
1337,3062
1337,2885
Z" /> 
<path style="fill:#000000; fill-opacity:1.0; 
stroke:#000000; stroke-width:0; stroke-opacity:1; 
stroke-linecap:round; stroke-linejoin:round;fill-rule:evenodd;"
d="M 1337,3141
1918,3141
1918,3318
1337,3318
1337,3141
Z" /> 
<path style="fill:#000000; fill-opacity:1.0; 
stroke:#000000; stroke-width:0; stroke-opacity:1; 
stroke-linecap:round; stroke-linejoin:round;fill-rule:evenodd;"
d="M 1337,3397
1918,3397
1918,3574
1337,3574
1337,3397
Z" /> 
<path style="fill:#000000; fill-opacity:1.0; 
stroke:#000000; stroke-width:0; stroke-opacity:1; 
stroke-linecap:round; stroke-linejoin:round;fill-rule:evenodd;"
d="M 1337,3653
1918,3653
1918,3830
1337,3830
1337,3653
Z" /> 
<path style="fill:#000000; fill-opacity:1.0; 
stroke:#000000; stroke-width:0; stroke-opacity:1; 
stroke-linecap:round; stroke-linejoin:round;fill-rule:evenodd;"
d="M 1337,3909
1918,3909
1918,4086
1337,4086
1337,3909
Z" /> 
<path style="fill:#000000; fill-opacity:1.0; 
stroke:#000000; stroke-width:0; stroke-opacity:1; 
stroke-linecap:round; stroke-linejoin:round;fill-rule:evenodd;"
d="M 1337,4165
1918,4165
1918,4342
1337,4342
1337,4165
Z" /> 
<path style="fill:#000000; fill-opacity:1.0; 
stroke:#000000; stroke-width:0; stroke-opacity:1; 
stroke-linecap:round; stroke-linejoin:round;fill-rule:evenodd;"
d="M 1337,4421
1918,4421
1918,4598
1337,4598
1337,4421
Z" /> 
<path style="fill:#000000; fill-opacity:1.0; 
stroke:#000000; stroke-width:0; stroke-opacity:1; 
stroke-linecap:round; stroke-linejoin:round;fill-rule:evenodd;"
d="M 1337,4677
1918,4677
1918,4854
1337,4854
1337,4677
Z" /> 
</g>
<g >
</g>
<g style="fill:#000000; fill-opacity:1.0; 
stroke:#000000; stroke-width:0; stroke-opacity:1; 
stroke-linecap:round; stroke-linejoin:round;">
<path style="fill:#000000; fill-opacity:1.0; 
stroke:#000000; stroke-width:0; stroke-opacity:1; 
stroke-linecap:round; stroke-linejoin:round;fill-rule:evenodd;"
d="M 7129,4294
6160,4294
6160,3385
7129,3385
7129,4294
Z" /> 
<path style="fill:#000000; fill-opacity:1.0; 
stroke:#000000; stroke-width:0; stroke-opacity:1; 
stroke-linecap:round; stroke-linejoin:round;fill-rule:evenodd;"
d="M 5778,3032
5197,3032
5197,2855
5778,2855
5778,3032
Z" /> 
<path style="fill:#000000; fill-opacity:1.0; 
stroke:#000000; stroke-width:0; stroke-opacity:1; 
stroke-linecap:round; stroke-linejoin:round;fill-rule:evenodd;"
d="M 5778,3288
5197,3288
5197,3111
5778,3111
5778,3288
Z" /> 
<path style="fill:#000000; fill-opacity:1.0; 
stroke:#000000; stroke-width:0; stroke-opacity:1; 
stroke-linecap:round; stroke-linejoin:round;fill-rule:evenodd;"
d="M 5778,3544
5197,3544
5197,3367
5778,3367
5778,3544
Z" /> 
<path style="fill:#000000; fill-opacity:1.0; 
stroke:#000000; stroke-width:0; stroke-opacity:1; 
stroke-linecap:round; stroke-linejoin:round;fill-rule:evenodd;"
d="M 5778,3800
5197,3800
5197,3623
5778,3623
5778,3800
Z" /> 
<path style="fill:#000000; fill-opacity:1.0; 
stroke:#000000; stroke-width:0; stroke-opacity:1; 
stroke-linecap:round; stroke-linejoin:round;fill-rule:evenodd;"
d="M 5778,4056
5197,4056
5197,3879
5778,3879
5778,4056
Z" /> 
<path style="fill:#000000; fill-opacity:1.0; 
stroke:#000000; stroke-width:0; stroke-opacity:1; 
stroke-linecap:round; stroke-linejoin:round;fill-rule:evenodd;"
d="M 5778,4312
5197,4312
5197,4135
5778,4135
5778,4312
Z" /> 
<path style="fill:#000000; fill-opacity:1.0; 
stroke:#000000; stroke-width:0; stroke-opacity:1; 
stroke-linecap:round; stroke-linejoin:round;fill-rule:evenodd;"
d="M 5778,4568
5197,4568
5197,4391
5778,4391
5778,4568
Z" /> 
<path style="fill:#000000; fill-opacity:1.0; 
stroke:#000000; stroke-width:0; stroke-opacity:1; 
stroke-linecap:round; stroke-linejoin:round;fill-rule:evenodd;"
d="M 5778,4824
5197,4824
5197,4647
5778,4647
5778,4824
Z" /> 
<path style="fill:#000000; fill-opacity:1.0; 
stroke:#000000; stroke-width:0; stroke-opacity:1; 
stroke-linecap:round; stroke-linejoin:round;fill-rule:evenodd;"
d="M 8091,4824
7511,4824
7511,4647
8091,4647
8091,4824
Z" /> 
<path style="fill:#000000; fill-opacity:1.0; 
stroke:#000000; stroke-width:0; stroke-opacity:1; 
stroke-linecap:round; stroke-linejoin:round;fill-rule:evenodd;"
d="M 8091,4568
7511,4568
7511,4391
8091,4391
8091,4568
Z" /> 
<path style="fill:#000000; fill-opacity:1.0; 
stroke:#000000; stroke-width:0; stroke-opacity:1; 
stroke-linecap:round; stroke-linejoin:round;fill-rule:evenodd;"
d="M 8091,4312
7511,4312
7511,4135
8091,4135
8091,4312
Z" /> 
<path style="fill:#000000; fill-opacity:1.0; 
stroke:#000000; stroke-width:0; stroke-opacity:1; 
stroke-linecap:round; stroke-linejoin:round;fill-rule:evenodd;"
d="M 8091,4056
7511,4056
7511,3879
8091,3879
8091,4056
Z" /> 
<path style="fill:#000000; fill-opacity:1.0; 
stroke:#000000; stroke-width:0; stroke-opacity:1; 
stroke-linecap:round; stroke-linejoin:round;fill-rule:evenodd;"
d="M 8091,3800
7511,3800
7511,3623
8091,3623
8091,3800
Z" /> 
<path style="fill:#000000; fill-opacity:1.0; 
stroke:#000000; stroke-width:0; stroke-opacity:1; 
stroke-linecap:round; stroke-linejoin:round;fill-rule:evenodd;"
d="M 8091,3544
7511,3544
7511,3367
8091,3367
8091,3544
Z" /> 
<path style="fill:#000000; fill-opacity:1.0; 
stroke:#000000; stroke-width:0; stroke-opacity:1; 
stroke-linecap:round; stroke-linejoin:round;fill-rule:evenodd;"
d="M 8091,3288
7511,3288
7511,3111
8091,3111
8091,3288
Z" /> 
<path style="fill:#000000; fill-opacity:1.0; 
stroke:#000000; stroke-width:0; stroke-opacity:1; 
stroke-linecap:round; stroke-linejoin:round;fill-rule:evenodd;"
d="M 8091,3032
7511,3032
7511,2855
8091,2855
8091,3032
Z" /> 
</g>
<g >
</g>
<g >
</g>
<g >
</g>
<g style="fill:#000000; fill-opacity:1.0; 
stroke:#000000; stroke-width:0; stroke-opacity:1; 
stroke-linecap:round; stroke-linejoin:round;">
<path style="fill:#000000; fill-opacity:1.0; 
stroke:#000000; stroke-width:0; stroke-opacity:1; 
stroke-linecap:round; stroke-linejoin:round;fill-rule:evenodd;"
d="M 16710,12202
16710,11809
17419,11809
17419,12202
16710,12202
Z" /> 
<path style="fill:#000000; fill-opacity:1.0; 
stroke:#000000; stroke-width:0; stroke-opacity:1; 
stroke-linecap:round; stroke-linejoin:round;fill-rule:evenodd;"
d="M 16710,11415
16710,11021
17419,11021
17419,11415
16710,11415
Z" /> 
<path style="fill:#000000; fill-opacity:1.0; 
stroke:#000000; stroke-width:0; stroke-opacity:1; 
stroke-linecap:round; stroke-linejoin:round;fill-rule:evenodd;"
d="M 16710,10627
16710,10234
17419,10234
17419,10627
16710,10627
Z" /> 
<path style="fill:#000000; fill-opacity:1.0; 
stroke:#000000; stroke-width:0; stroke-opacity:1; 
stroke-linecap:round; stroke-linejoin:round;fill-rule:evenodd;"
d="M 16710,9840
16710,9446
17419,9446
17419,9840
16710,9840
Z" /> 
<path style="fill:#000000; fill-opacity:1.0; 
stroke:#000000; stroke-width:0; stroke-opacity:1; 
stroke-linecap:round; stroke-linejoin:round;fill-rule:evenodd;"
d="M 16710,9053
16710,8659
17419,8659
17419,9053
16710,9053
Z" /> 
<path style="fill:#000000; fill-opacity:1.0; 
stroke:#000000; stroke-width:0; stroke-opacity:1; 
stroke-linecap:round; stroke-linejoin:round;fill-rule:evenodd;"
d="M 16710,8265
16710,7872
17419,7872
17419,8265
16710,8265
Z" /> 
<path style="fill:#000000; fill-opacity:1.0; 
stroke:#000000; stroke-width:0; stroke-opacity:1; 
stroke-linecap:round; stroke-linejoin:round;fill-rule:evenodd;"
d="M 16710,7478
16710,7084
17419,7084
17419,7478
16710,7478
Z" /> 
<path style="fill:#000000; fill-opacity:1.0; 
stroke:#000000; stroke-width:0; stroke-opacity:1; 
stroke-linecap:round; stroke-linejoin:round;fill-rule:evenodd;"
d="M 16710,6690
16710,6297
17419,6297
17419,6690
16710,6690
Z" /> 
<path style="fill:#000000; fill-opacity:1.0; 
stroke:#000000; stroke-width:0; stroke-opacity:1; 
stroke-linecap:round; stroke-linejoin:round;fill-rule:evenodd;"
d="M 10490,6690
10490,6297
11198,6297
11198,6690
10490,6690
Z" /> 
<path style="fill:#000000; fill-opacity:1.0; 
stroke:#000000; stroke-width:0; stroke-opacity:1; 
stroke-linecap:round; stroke-linejoin:round;fill-rule:evenodd;"
d="M 10490,7478
10490,7084
11198,7084
11198,7478
10490,7478
Z" /> 
<path style="fill:#000000; fill-opacity:1.0; 
stroke:#000000; stroke-width:0; stroke-opacity:1; 
stroke-linecap:round; stroke-linejoin:round;fill-rule:evenodd;"
d="M 10490,8265
10490,7872
11198,7872
11198,8265
10490,8265
Z" /> 
<path style="fill:#000000; fill-opacity:1.0; 
stroke:#000000; stroke-width:0; stroke-opacity:1; 
stroke-linecap:round; stroke-linejoin:round;fill-rule:evenodd;"
d="M 10490,9053
10490,8659
11198,8659
11198,9053
10490,9053
Z" /> 
<path style="fill:#000000; fill-opacity:1.0; 
stroke:#000000; stroke-width:0; stroke-opacity:1; 
stroke-linecap:round; stroke-linejoin:round;fill-rule:evenodd;"
d="M 10490,9840
10490,9446
11198,9446
11198,9840
10490,9840
Z" /> 
<path style="fill:#000000; fill-opacity:1.0; 
stroke:#000000; stroke-width:0; stroke-opacity:1; 
stroke-linecap:round; stroke-linejoin:round;fill-rule:evenodd;"
d="M 10490,10627
10490,10234
11198,10234
11198,10627
10490,10627
Z" /> 
<path style="fill:#000000; fill-opacity:1.0; 
stroke:#000000; stroke-width:0; stroke-opacity:1; 
stroke-linecap:round; stroke-linejoin:round;fill-rule:evenodd;"
d="M 10490,11415
10490,11021
11198,11021
11198,11415
10490,11415
Z" /> 
<path style="fill:#000000; fill-opacity:1.0; 
stroke:#000000; stroke-width:0; stroke-opacity:1; 
stroke-linecap:round; stroke-linejoin:round;fill-rule:evenodd;"
d="M 10490,12202
10490,11809
11198,11809
11198,12202
10490,12202
Z" /> 
</g>
<g >
</g>
<g >
</g>
<g >
</g>
<g >
</g>
<g >
</g>
<g >
</g>
<g >
</g>
<g >
</g>
<g >
</g>
<g >
</g>
<g style="fill:#000000; fill-opacity:1.0; 
stroke:#000000; stroke-width:0; stroke-opacity:1; 
stroke-linecap:round; stroke-linejoin:round;">
<path style="fill:#000000; fill-opacity:1.0; 
stroke:#000000; stroke-width:0; stroke-opacity:1; 
stroke-linecap:round; stroke-linejoin:round;fill-rule:evenodd;"
d="M 8613,1759
9066,1759
9066,2350
8613,2350
8613,1759
Z" /> 
<path style="fill:#000000; fill-opacity:1.0; 
stroke:#000000; stroke-width:0; stroke-opacity:1; 
stroke-linecap:round; stroke-linejoin:round;fill-rule:evenodd;"
d="M 8613,4822
9066,4822
9066,5413
8613,5413
8613,4822
Z" /> 
<path style="fill:#000000; fill-opacity:1.0; 
stroke:#000000; stroke-width:0; stroke-opacity:1; 
stroke-linecap:round; stroke-linejoin:round;fill-rule:evenodd;"
d="M 8719,7039
8719,6586
9585,6586
9585,7039
8719,7039
Z" /> 
<path style="fill:#000000; fill-opacity:1.0; 
stroke:#000000; stroke-width:0; stroke-opacity:1; 
stroke-linecap:round; stroke-linejoin:round;fill-rule:evenodd;"
d="M 9046,1574
9046,1118
9519,1118
9519,1574
9046,1574
Z" /> 
<path style="fill:#000000; fill-opacity:1.0; 
stroke:#000000; stroke-width:0; stroke-opacity:1; 
stroke-linecap:round; stroke-linejoin:round;fill-rule:evenodd;"
d="M 12580,1574
12580,1118
13072,1118
13072,1574
12580,1574
Z" /> 
<path style="fill:#000000; fill-opacity:1.0; 
stroke:#000000; stroke-width:0; stroke-opacity:1; 
stroke-linecap:round; stroke-linejoin:round;fill-rule:evenodd;"
d="M 13239,1413
13239,960
14105,960
14105,1413
13239,1413
Z" /> 
<path style="fill:#000000; fill-opacity:1.0; 
stroke:#000000; stroke-width:0; stroke-opacity:1; 
stroke-linecap:round; stroke-linejoin:round;fill-rule:evenodd;"
d="M 13121,7039
13121,6665
14105,6665
14105,7039
13121,7039
Z" /> 
<path style="fill:#000000; fill-opacity:1.0; 
stroke:#000000; stroke-width:0; stroke-opacity:1; 
stroke-linecap:round; stroke-linejoin:round;fill-rule:evenodd;"
d="M 13617,2267
13617,1952
14105,1952
14105,2267
13617,2267
Z" /> 
<path style="fill:#000000; fill-opacity:1.0; 
stroke:#000000; stroke-width:0; stroke-opacity:1; 
stroke-linecap:round; stroke-linejoin:round;fill-rule:evenodd;"
d="M 13617,2700
13617,2385
14105,2385
14105,2700
13617,2700
Z" /> 
<path style="fill:#000000; fill-opacity:1.0; 
stroke:#000000; stroke-width:0; stroke-opacity:1; 
stroke-linecap:round; stroke-linejoin:round;fill-rule:evenodd;"
d="M 13617,3133
13617,2818
14105,2818
14105,3133
13617,3133
Z" /> 
<path style="fill:#000000; fill-opacity:1.0; 
stroke:#000000; stroke-width:0; stroke-opacity:1; 
stroke-linecap:round; stroke-linejoin:round;fill-rule:evenodd;"
d="M 13617,3566
13617,3251
14105,3251
14105,3566
13617,3566
Z" /> 
<path style="fill:#000000; fill-opacity:1.0; 
stroke:#000000; stroke-width:0; stroke-opacity:1; 
stroke-linecap:round; stroke-linejoin:round;fill-rule:evenodd;"
d="M 13617,4000
13617,3685
14105,3685
14105,4000
13617,4000
Z" /> 
<path style="fill:#000000; fill-opacity:1.0; 
stroke:#000000; stroke-width:0; stroke-opacity:1; 
stroke-linecap:round; stroke-linejoin:round;fill-rule:evenodd;"
d="M 13617,4433
13617,4118
14105,4118
14105,4433
13617,4433
Z" /> 
<path style="fill:#000000; fill-opacity:1.0; 
stroke:#000000; stroke-width:0; stroke-opacity:1; 
stroke-linecap:round; stroke-linejoin:round;fill-rule:evenodd;"
d="M 13617,4866
13617,4551
14105,4551
14105,4866
13617,4866
Z" /> 
<path style="fill:#000000; fill-opacity:1.0; 
stroke:#000000; stroke-width:0; stroke-opacity:1; 
stroke-linecap:round; stroke-linejoin:round;fill-rule:evenodd;"
d="M 13617,5299
13617,4984
14105,4984
14105,5299
13617,5299
Z" /> 
</g>
<g >
</g>
<g >
</g>
<g >
</g>
<g >
</g>
<g >
</g>
<g >
</g>
<g >
</g>
<g >
</g>
<g >
</g>
<g >
</g>
<g >
</g>
<g >
</g>
<g >
</g>
<g >
</g>
<g >
</g>
<g >
</g>
<g style="fill:#000000; fill-opacity:1.0; 
stroke:#000000; stroke-width:0; stroke-opacity:1; 
stroke-linecap:round; stroke-linejoin:round;">
<path style="fill:#000000; fill-opacity:1.0; 
stroke:#000000; stroke-width:0; stroke-opacity:1; 
stroke-linecap:round; stroke-linejoin:round;fill-rule:evenodd;"
d="M 5923,12070
5929,12071
5934,12072
5940,12074
5945,12076
5950,12079
5954,12083
5959,12087
5962,12091
5966,12095
5969,12100
5971,12105
5973,12111
5974,12116
5975,12122
5976,12128
5976,12263
5975,12269
5974,12275
5973,12280
5971,12286
5969,12291
5966,12296
5962,12300
5959,12304
5954,12308
5950,12312
5945,12315
5940,12317
5934,12319
5929,12320
5923,12321
5917,12321
5801,12321
5796,12321
5790,12320
5784,12319
5779,12317
5774,12315
5769,12312
5764,12308
5760,12304
5756,12300
5753,12296
5750,12291
5748,12286
5746,12280
5744,12275
5744,12269
5743,12263
5743,12128
5744,12122
5744,12116
5746,12111
5748,12105
5750,12100
5753,12095
5756,12091
5760,12087
5764,12083
5769,12079
5774,12076
5779,12074
5784,12072
5790,12071
5796,12070
5801,12070
5917,12070
5923,12070
Z" /> 
<path style="fill:#000000; fill-opacity:1.0; 
stroke:#000000; stroke-width:0; stroke-opacity:1; 
stroke-linecap:round; stroke-linejoin:round;fill-rule:evenodd;"
d="M 6305,12070
6311,12071
6316,12072
6322,12074
6327,12076
6332,12079
6336,12083
6340,12087
6344,12091
6348,12095
6351,12100
6353,12105
6355,12111
6356,12116
6357,12122
6357,12128
6357,12263
6357,12269
6356,12275
6355,12280
6353,12286
6351,12291
6348,12296
6344,12300
6340,12304
6336,12308
6332,12312
6327,12315
6322,12317
6316,12319
6311,12320
6305,12321
6299,12321
6183,12321
6178,12321
6172,12320
6166,12319
6161,12317
6156,12315
6151,12312
6146,12308
6142,12304
6138,12300
6135,12296
6132,12291
6130,12286
6128,12280
6126,12275
6125,12269
6125,12263
6125,12128
6125,12122
6126,12116
6128,12111
6130,12105
6132,12100
6135,12095
6138,12091
6142,12087
6146,12083
6151,12079
6156,12076
6161,12074
6166,12072
6172,12071
6178,12070
6183,12070
6299,12070
6305,12070
Z" /> 
</g>
<g >
</g>
<g >
</g>
<g >
</g>
<g >
</g>
<g style="fill:#000000; fill-opacity:1.0; 
stroke:#000000; stroke-width:0; stroke-opacity:1; 
stroke-linecap:round; stroke-linejoin:round;">
<path style="fill:#000000; fill-opacity:1.0; 
stroke:#000000; stroke-width:0; stroke-opacity:1; 
stroke-linecap:round; stroke-linejoin:round;fill-rule:evenodd;"
d="M 6748,2525
6754,2525
6759,2527
6764,2529
6770,2531
6775,2534
6779,2537
6783,2541
6787,2546
6791,2550
6793,2555
6796,2560
6798,2566
6799,2571
6800,2577
6800,2582
6800,2699
6800,2704
6799,2710
6798,2715
6796,2721
6793,2726
6791,2731
6787,2735
6783,2740
6779,2743
6775,2747
6770,2750
6764,2752
6759,2754
6754,2755
6748,2756
6742,2757
6606,2757
6601,2756
6595,2755
6590,2754
6584,2752
6579,2750
6574,2747
6570,2743
6565,2740
6562,2735
6558,2731
6555,2726
6553,2721
6551,2715
6549,2710
6549,2704
6548,2699
6548,2582
6549,2577
6549,2571
6551,2566
6553,2560
6555,2555
6558,2550
6562,2546
6565,2541
6570,2537
6574,2534
6579,2531
6584,2529
6590,2527
6595,2525
6601,2525
6606,2524
6742,2524
6748,2525
Z" /> 
<path style="fill:#000000; fill-opacity:1.0; 
stroke:#000000; stroke-width:0; stroke-opacity:1; 
stroke-linecap:round; stroke-linejoin:round;fill-rule:evenodd;"
d="M 6748,2143
6754,2144
6759,2145
6764,2147
6770,2149
6775,2152
6779,2156
6783,2159
6787,2164
6791,2168
6793,2173
6796,2178
6798,2184
6799,2189
6800,2195
6800,2200
6800,2317
6800,2322
6799,2328
6798,2333
6796,2339
6793,2344
6791,2349
6787,2353
6783,2358
6779,2362
6775,2365
6770,2368
6764,2370
6759,2372
6754,2374
6748,2374
6742,2375
6606,2375
6601,2374
6595,2374
6590,2372
6584,2370
6579,2368
6574,2365
6570,2362
6565,2358
6562,2353
6558,2349
6555,2344
6553,2339
6551,2333
6549,2328
6549,2322
6548,2317
6548,2200
6549,2195
6549,2189
6551,2184
6553,2178
6555,2173
6558,2168
6562,2164
6565,2159
6570,2156
6574,2152
6579,2149
6584,2147
6590,2145
6595,2144
6601,2143
6606,2142
6742,2142
6748,2143
Z" /> 
</g>
<g >
</g>
<g style="fill:#000000; fill-opacity:1.0; 
stroke:#000000; stroke-width:0; stroke-opacity:1; 
stroke-linecap:round; stroke-linejoin:round;">
<path style="fill:#000000; fill-opacity:1.0; 
stroke:#000000; stroke-width:0; stroke-opacity:1; 
stroke-linecap:round; stroke-linejoin:round;fill-rule:evenodd;"
d="M 7188,2144
7194,2144
7199,2146
7204,2148
7210,2150
7215,2153
7219,2157
7223,2160
7227,2165
7231,2169
7233,2174
7236,2179
7238,2185
7239,2190
7240,2196
7240,2201
7240,2318
7240,2323
7239,2329
7238,2334
7236,2340
7233,2345
7231,2350
7227,2354
7223,2359
7219,2362
7215,2366
7210,2369
7204,2371
7199,2373
7194,2375
7188,2375
7182,2376
7046,2376
7041,2375
7035,2375
7030,2373
7024,2371
7019,2369
7014,2366
7010,2362
7005,2359
7002,2354
6998,2350
6995,2345
6993,2340
6991,2334
6989,2329
6989,2323
6988,2318
6988,2201
6989,2196
6989,2190
6991,2185
6993,2179
6995,2174
6998,2169
7002,2165
7005,2160
7010,2157
7014,2153
7019,2150
7024,2148
7030,2146
7035,2144
7041,2144
7046,2143
7182,2143
7188,2144
Z" /> 
<path style="fill:#000000; fill-opacity:1.0; 
stroke:#000000; stroke-width:0; stroke-opacity:1; 
stroke-linecap:round; stroke-linejoin:round;fill-rule:evenodd;"
d="M 7188,2526
7194,2526
7199,2528
7204,2530
7210,2532
7215,2535
7219,2538
7223,2542
7227,2546
7231,2551
7233,2556
7236,2561
7238,2566
7239,2572
7240,2578
7240,2583
7240,2699
7240,2705
7239,2711
7238,2716
7236,2722
7233,2727
7231,2732
7227,2736
7223,2741
7219,2744
7215,2748
7210,2751
7204,2753
7199,2755
7194,2756
7188,2757
7182,2758
7046,2758
7041,2757
7035,2756
7030,2755
7024,2753
7019,2751
7014,2748
7010,2744
7005,2741
7002,2736
6998,2732
6995,2727
6993,2722
6991,2716
6989,2711
6989,2705
6988,2699
6988,2583
6989,2578
6989,2572
6991,2566
6993,2561
6995,2556
6998,2551
7002,2546
7005,2542
7010,2538
7014,2535
7019,2532
7024,2530
7030,2528
7035,2526
7041,2526
7046,2525
7182,2525
7188,2526
Z" /> 
</g>
<g >
</g>
<g style="fill:#000000; fill-opacity:1.0; 
stroke:#000000; stroke-width:0; stroke-opacity:1; 
stroke-linecap:round; stroke-linejoin:round;">
<path style="fill:#000000; fill-opacity:1.0; 
stroke:#000000; stroke-width:0; stroke-opacity:1; 
stroke-linecap:round; stroke-linejoin:round;fill-rule:evenodd;"
d="M 6308,2143
6314,2144
6319,2145
6324,2147
6330,2149
6335,2152
6339,2156
6343,2159
6347,2164
6351,2168
6353,2173
6356,2178
6358,2184
6359,2189
6360,2195
6360,2200
6360,2317
6360,2322
6359,2328
6358,2333
6356,2339
6353,2344
6351,2349
6347,2353
6343,2358
6339,2362
6335,2365
6330,2368
6324,2370
6319,2372
6314,2374
6308,2374
6302,2375
6166,2375
6161,2374
6155,2374
6150,2372
6144,2370
6139,2368
6134,2365
6130,2362
6125,2358
6122,2353
6118,2349
6115,2344
6113,2339
6111,2333
6109,2328
6109,2322
6108,2317
6108,2200
6109,2195
6109,2189
6111,2184
6113,2178
6115,2173
6118,2168
6122,2164
6125,2159
6130,2156
6134,2152
6139,2149
6144,2147
6150,2145
6155,2144
6161,2143
6166,2142
6302,2142
6308,2143
Z" /> 
<path style="fill:#000000; fill-opacity:1.0; 
stroke:#000000; stroke-width:0; stroke-opacity:1; 
stroke-linecap:round; stroke-linejoin:round;fill-rule:evenodd;"
d="M 6308,2525
6314,2525
6319,2527
6324,2529
6330,2531
6335,2534
6339,2537
6343,2541
6347,2546
6351,2550
6353,2555
6356,2560
6358,2566
6359,2571
6360,2577
6360,2582
6360,2699
6360,2704
6359,2710
6358,2715
6356,2721
6353,2726
6351,2731
6347,2735
6343,2740
6339,2743
6335,2747
6330,2750
6324,2752
6319,2754
6314,2755
6308,2756
6302,2757
6166,2757
6161,2756
6155,2755
6150,2754
6144,2752
6139,2750
6134,2747
6130,2743
6125,2740
6122,2735
6118,2731
6115,2726
6113,2721
6111,2715
6109,2710
6109,2704
6108,2699
6108,2582
6109,2577
6109,2571
6111,2566
6113,2560
6115,2555
6118,2550
6122,2546
6125,2541
6130,2537
6134,2534
6139,2531
6144,2529
6150,2527
6155,2525
6161,2525
6166,2524
6302,2524
6308,2525
Z" /> 
</g>
<g >
</g>
<g style="fill:#000000; fill-opacity:1.0; 
stroke:#000000; stroke-width:0; stroke-opacity:1; 
stroke-linecap:round; stroke-linejoin:round;">
<path style="fill:#000000; fill-opacity:1.0; 
stroke:#000000; stroke-width:0; stroke-opacity:1; 
stroke-linecap:round; stroke-linejoin:round;fill-rule:evenodd;"
d="M 3408,2495
3414,2495
3419,2497
3424,2499
3430,2501
3435,2504
3439,2507
3443,2511
3447,2516
3451,2520
3453,2525
3456,2530
3458,2536
3459,2541
3460,2547
3460,2552
3460,2669
3460,2674
3459,2680
3458,2685
3456,2691
3453,2696
3451,2701
3447,2705
3443,2710
3439,2713
3435,2717
3430,2720
3424,2722
3419,2724
3414,2725
3408,2726
3402,2727
3266,2727
3261,2726
3255,2725
3250,2724
3244,2722
3239,2720
3234,2717
3230,2713
3225,2710
3222,2705
3218,2701
3215,2696
3213,2691
3211,2685
3209,2680
3209,2674
3208,2669
3208,2552
3209,2547
3209,2541
3211,2536
3213,2530
3215,2525
3218,2520
3222,2516
3225,2511
3230,2507
3234,2504
3239,2501
3244,2499
3250,2497
3255,2495
3261,2495
3266,2494
3402,2494
3408,2495
Z" /> 
<path style="fill:#000000; fill-opacity:1.0; 
stroke:#000000; stroke-width:0; stroke-opacity:1; 
stroke-linecap:round; stroke-linejoin:round;fill-rule:evenodd;"
d="M 3408,2113
3414,2114
3419,2115
3424,2117
3430,2119
3435,2122
3439,2126
3443,2129
3447,2134
3451,2138
3453,2143
3456,2148
3458,2154
3459,2159
3460,2165
3460,2170
3460,2287
3460,2292
3459,2298
3458,2303
3456,2309
3453,2314
3451,2319
3447,2323
3443,2328
3439,2332
3435,2335
3430,2338
3424,2340
3419,2342
3414,2344
3408,2344
3402,2345
3266,2345
3261,2344
3255,2344
3250,2342
3244,2340
3239,2338
3234,2335
3230,2332
3225,2328
3222,2323
3218,2319
3215,2314
3213,2309
3211,2303
3209,2298
3209,2292
3208,2287
3208,2170
3209,2165
3209,2159
3211,2154
3213,2148
3215,2143
3218,2138
3222,2134
3225,2129
3230,2126
3234,2122
3239,2119
3244,2117
3250,2115
3255,2114
3261,2113
3266,2112
3402,2112
3408,2113
Z" /> 
</g>
<g >
</g>
<g style="fill:#000000; fill-opacity:1.0; 
stroke:#000000; stroke-width:0; stroke-opacity:1; 
stroke-linecap:round; stroke-linejoin:round;">
<path style="fill:#000000; fill-opacity:1.0; 
stroke:#000000; stroke-width:0; stroke-opacity:1; 
stroke-linecap:round; stroke-linejoin:round;fill-rule:evenodd;"
d="M 2328,2113
2334,2114
2339,2115
2344,2117
2350,2119
2355,2122
2359,2126
2363,2129
2367,2134
2371,2138
2373,2143
2376,2148
2378,2154
2379,2159
2380,2165
2380,2170
2380,2287
2380,2292
2379,2298
2378,2303
2376,2309
2373,2314
2371,2319
2367,2323
2363,2328
2359,2332
2355,2335
2350,2338
2344,2340
2339,2342
2334,2344
2328,2344
2322,2345
2186,2345
2181,2344
2175,2344
2170,2342
2164,2340
2159,2338
2154,2335
2150,2332
2145,2328
2142,2323
2138,2319
2135,2314
2133,2309
2131,2303
2129,2298
2129,2292
2128,2287
2128,2170
2129,2165
2129,2159
2131,2154
2133,2148
2135,2143
2138,2138
2142,2134
2145,2129
2150,2126
2154,2122
2159,2119
2164,2117
2170,2115
2175,2114
2181,2113
2186,2112
2322,2112
2328,2113
Z" /> 
<path style="fill:#000000; fill-opacity:1.0; 
stroke:#000000; stroke-width:0; stroke-opacity:1; 
stroke-linecap:round; stroke-linejoin:round;fill-rule:evenodd;"
d="M 2328,2495
2334,2495
2339,2497
2344,2499
2350,2501
2355,2504
2359,2507
2363,2511
2367,2516
2371,2520
2373,2525
2376,2530
2378,2536
2379,2541
2380,2547
2380,2552
2380,2669
2380,2674
2379,2680
2378,2685
2376,2691
2373,2696
2371,2701
2367,2705
2363,2710
2359,2713
2355,2717
2350,2720
2344,2722
2339,2724
2334,2725
2328,2726
2322,2727
2186,2727
2181,2726
2175,2725
2170,2724
2164,2722
2159,2720
2154,2717
2150,2713
2145,2710
2142,2705
2138,2701
2135,2696
2133,2691
2131,2685
2129,2680
2129,2674
2128,2669
2128,2552
2129,2547
2129,2541
2131,2536
2133,2530
2135,2525
2138,2520
2142,2516
2145,2511
2150,2507
2154,2504
2159,2501
2164,2499
2170,2497
2175,2495
2181,2495
2186,2494
2322,2494
2328,2495
Z" /> 
</g>
<g >
</g>
<g >
</g>
<g >
</g>
<g >
</g>
<g >
</g>
<g >
</g>
</g> 
</svg>
