<?xml version="1.0" standalone="no"?>
 <!DOCTYPE svg PUBLIC "-//W3C//DTD SVG 1.1//EN" 
 "http://www.w3.org/Graphics/SVG/1.1/DTD/svg11.dtd"> 
<svg xmlns="http://www.w3.org/2000/svg" version="1.1" 
    width="4.89712cm" height="3.8354cm" viewBox="0 0 19280 15100 ">
<title>SVG Picture created as mainboard-F_Paste.svg date 2019/11/01 14:40:13 </title>
  <desc>Picture generated by PCBNEW </desc>
<g style="fill:#000000; fill-opacity:1;stroke:#000000; stroke-opacity:1;
stroke-linecap:round; stroke-linejoin:round; "
 transform="translate(0 0) scale(1 1)">
</g>
<g style="fill:#000000; fill-opacity:0.0; 
stroke:#000000; stroke-width:-0.000393701; stroke-opacity:1; 
stroke-linecap:round; stroke-linejoin:round;">
<g >
</g>
<g style="fill:#000000; fill-opacity:0.0; 
stroke:#000000; stroke-width:0; stroke-opacity:1; 
stroke-linecap:round; stroke-linejoin:round;">
</g>
<g style="fill:#000000; fill-opacity:1.0; 
stroke:#000000; stroke-width:0; stroke-opacity:1; 
stroke-linecap:round; stroke-linejoin:round;">
<path style="fill:#000000; fill-opacity:1.0; 
stroke:#000000; stroke-width:0; stroke-opacity:1; 
stroke-linecap:round; stroke-linejoin:round;fill-rule:evenodd;"
d="M 10264,13831
10264,13338
10265,13338
10265,13329
10267,13310
10270,13291
10276,13272
10283,13254
10292,13237
10303,13221
10315,13206
10329,13193
10344,13180
10360,13170
10377,13160
10395,13153
10414,13147
10432,13144
10452,13142
10471,13142
10490,13144
10509,13147
10528,13153
10546,13160
10563,13170
10579,13180
10594,13193
10607,13206
10619,13221
10630,13237
10639,13254
10647,13272
10652,13291
10656,13310
10658,13329
10658,13338
10658,13338
10658,13831
10264,13831
Z" /> 
</g>
<g >
</g>
<g style="fill:#000000; fill-opacity:1.0; 
stroke:#000000; stroke-width:0; stroke-opacity:1; 
stroke-linecap:round; stroke-linejoin:round;">
<path style="fill:#000000; fill-opacity:1.0; 
stroke:#000000; stroke-width:0; stroke-opacity:1; 
stroke-linecap:round; stroke-linejoin:round;fill-rule:evenodd;"
d="M 8267,13826
8267,13333
8268,13333
8268,13324
8270,13305
8273,13286
8279,13267
8286,13249
8295,13232
8306,13216
8318,13201
8332,13188
8347,13175
8363,13165
8380,13155
8398,13148
8417,13142
8435,13139
8455,13137
8474,13137
8493,13139
8512,13142
8531,13148
8549,13155
8566,13165
8582,13175
8597,13188
8610,13201
8622,13216
8633,13232
8642,13249
8650,13267
8655,13286
8659,13305
8661,13324
8661,13333
8661,13333
8661,13826
8267,13826
Z" /> 
</g>
<g >
</g>
<g style="fill:#000000; fill-opacity:1.0; 
stroke:#000000; stroke-width:0; stroke-opacity:1; 
stroke-linecap:round; stroke-linejoin:round;">
<path style="fill:#000000; fill-opacity:1.0; 
stroke:#000000; stroke-width:0; stroke-opacity:1; 
stroke-linecap:round; stroke-linejoin:round;fill-rule:evenodd;"
d="M 11264,13831
11264,13338
11265,13338
11265,13329
11267,13310
11270,13291
11276,13272
11283,13254
11292,13237
11303,13221
11315,13206
11329,13193
11344,13180
11360,13170
11377,13160
11395,13153
11414,13147
11432,13144
11452,13142
11471,13142
11490,13144
11509,13147
11528,13153
11546,13160
11563,13170
11579,13180
11594,13193
11607,13206
11619,13221
11630,13237
11639,13254
11647,13272
11652,13291
11656,13310
11658,13329
11658,13338
11658,13338
11658,13831
11264,13831
Z" /> 
</g>
<g >
</g>
<g style="fill:#000000; fill-opacity:1.0; 
stroke:#000000; stroke-width:0; stroke-opacity:1; 
stroke-linecap:round; stroke-linejoin:round;">
<path style="fill:#000000; fill-opacity:1.0; 
stroke:#000000; stroke-width:0; stroke-opacity:1; 
stroke-linecap:round; stroke-linejoin:round;fill-rule:evenodd;"
d="M 9377,13831
9377,13338
9378,13338
9378,13329
9380,13310
9383,13291
9389,13272
9396,13254
9405,13237
9416,13221
9428,13206
9442,13193
9457,13180
9473,13170
9490,13160
9508,13153
9527,13147
9545,13144
9565,13142
9584,13142
9603,13144
9622,13147
9641,13153
9659,13160
9676,13170
9692,13180
9707,13193
9720,13206
9732,13221
9743,13237
9752,13254
9760,13272
9765,13291
9769,13310
9771,13329
9771,13338
9771,13338
9771,13831
9377,13831
Z" /> 
</g>
<g >
</g>
<g >
</g>
<g >
</g>
<g >
</g>
<g >
</g>
<g style="fill:#000000; fill-opacity:1.0; 
stroke:#000000; stroke-width:0; stroke-opacity:1; 
stroke-linecap:round; stroke-linejoin:round;">
<path style="fill:#000000; fill-opacity:1.0; 
stroke:#000000; stroke-width:0; stroke-opacity:1; 
stroke-linecap:round; stroke-linejoin:round;fill-rule:evenodd;"
d="M 9685,11243
10020,11243
10020,11361
9685,11361
9685,11243
Z" /> 
<path style="fill:#000000; fill-opacity:1.0; 
stroke:#000000; stroke-width:0; stroke-opacity:1; 
stroke-linecap:round; stroke-linejoin:round;fill-rule:evenodd;"
d="M 9685,11046
10020,11046
10020,11164
9685,11164
9685,11046
Z" /> 
<path style="fill:#000000; fill-opacity:1.0; 
stroke:#000000; stroke-width:0; stroke-opacity:1; 
stroke-linecap:round; stroke-linejoin:round;fill-rule:evenodd;"
d="M 9685,10849
10020,10849
10020,10968
9685,10968
9685,10849
Z" /> 
<path style="fill:#000000; fill-opacity:1.0; 
stroke:#000000; stroke-width:0; stroke-opacity:1; 
stroke-linecap:round; stroke-linejoin:round;fill-rule:evenodd;"
d="M 9685,10653
10020,10653
10020,10771
9685,10771
9685,10653
Z" /> 
<path style="fill:#000000; fill-opacity:1.0; 
stroke:#000000; stroke-width:0; stroke-opacity:1; 
stroke-linecap:round; stroke-linejoin:round;fill-rule:evenodd;"
d="M 9685,10456
10020,10456
10020,10574
9685,10574
9685,10456
Z" /> 
<path style="fill:#000000; fill-opacity:1.0; 
stroke:#000000; stroke-width:0; stroke-opacity:1; 
stroke-linecap:round; stroke-linejoin:round;fill-rule:evenodd;"
d="M 9685,10259
10020,10259
10020,10377
9685,10377
9685,10259
Z" /> 
<path style="fill:#000000; fill-opacity:1.0; 
stroke:#000000; stroke-width:0; stroke-opacity:1; 
stroke-linecap:round; stroke-linejoin:round;fill-rule:evenodd;"
d="M 9685,10062
10020,10062
10020,10180
9685,10180
9685,10062
Z" /> 
<path style="fill:#000000; fill-opacity:1.0; 
stroke:#000000; stroke-width:0; stroke-opacity:1; 
stroke-linecap:round; stroke-linejoin:round;fill-rule:evenodd;"
d="M 9685,9865
10020,9865
10020,9983
9685,9983
9685,9865
Z" /> 
<path style="fill:#000000; fill-opacity:1.0; 
stroke:#000000; stroke-width:0; stroke-opacity:1; 
stroke-linecap:round; stroke-linejoin:round;fill-rule:evenodd;"
d="M 9685,9668
10020,9668
10020,9786
9685,9786
9685,9668
Z" /> 
<path style="fill:#000000; fill-opacity:1.0; 
stroke:#000000; stroke-width:0; stroke-opacity:1; 
stroke-linecap:round; stroke-linejoin:round;fill-rule:evenodd;"
d="M 9685,9471
10020,9471
10020,9590
9685,9590
9685,9471
Z" /> 
<path style="fill:#000000; fill-opacity:1.0; 
stroke:#000000; stroke-width:0; stroke-opacity:1; 
stroke-linecap:round; stroke-linejoin:round;fill-rule:evenodd;"
d="M 9685,9275
10020,9275
10020,9393
9685,9393
9685,9275
Z" /> 
<path style="fill:#000000; fill-opacity:1.0; 
stroke:#000000; stroke-width:0; stroke-opacity:1; 
stroke-linecap:round; stroke-linejoin:round;fill-rule:evenodd;"
d="M 9685,9078
10020,9078
10020,9196
9685,9196
9685,9078
Z" /> 
<path style="fill:#000000; fill-opacity:1.0; 
stroke:#000000; stroke-width:0; stroke-opacity:1; 
stroke-linecap:round; stroke-linejoin:round;fill-rule:evenodd;"
d="M 9636,8694
9636,9029
9518,9029
9518,8694
9636,8694
Z" /> 
<path style="fill:#000000; fill-opacity:1.0; 
stroke:#000000; stroke-width:0; stroke-opacity:1; 
stroke-linecap:round; stroke-linejoin:round;fill-rule:evenodd;"
d="M 9439,8694
9439,9029
9321,9029
9321,8694
9439,8694
Z" /> 
<path style="fill:#000000; fill-opacity:1.0; 
stroke:#000000; stroke-width:0; stroke-opacity:1; 
stroke-linecap:round; stroke-linejoin:round;fill-rule:evenodd;"
d="M 9242,8694
9242,9029
9124,9029
9124,8694
9242,8694
Z" /> 
<path style="fill:#000000; fill-opacity:1.0; 
stroke:#000000; stroke-width:0; stroke-opacity:1; 
stroke-linecap:round; stroke-linejoin:round;fill-rule:evenodd;"
d="M 9046,8694
9046,9029
8927,9029
8927,8694
9046,8694
Z" /> 
<path style="fill:#000000; fill-opacity:1.0; 
stroke:#000000; stroke-width:0; stroke-opacity:1; 
stroke-linecap:round; stroke-linejoin:round;fill-rule:evenodd;"
d="M 8849,8694
8849,9029
8731,9029
8731,8694
8849,8694
Z" /> 
<path style="fill:#000000; fill-opacity:1.0; 
stroke:#000000; stroke-width:0; stroke-opacity:1; 
stroke-linecap:round; stroke-linejoin:round;fill-rule:evenodd;"
d="M 8652,8694
8652,9029
8534,9029
8534,8694
8652,8694
Z" /> 
<path style="fill:#000000; fill-opacity:1.0; 
stroke:#000000; stroke-width:0; stroke-opacity:1; 
stroke-linecap:round; stroke-linejoin:round;fill-rule:evenodd;"
d="M 8455,8694
8455,9029
8337,9029
8337,8694
8455,8694
Z" /> 
<path style="fill:#000000; fill-opacity:1.0; 
stroke:#000000; stroke-width:0; stroke-opacity:1; 
stroke-linecap:round; stroke-linejoin:round;fill-rule:evenodd;"
d="M 8258,8694
8258,9029
8140,9029
8140,8694
8258,8694
Z" /> 
<path style="fill:#000000; fill-opacity:1.0; 
stroke:#000000; stroke-width:0; stroke-opacity:1; 
stroke-linecap:round; stroke-linejoin:round;fill-rule:evenodd;"
d="M 8061,8694
8061,9029
7943,9029
7943,8694
8061,8694
Z" /> 
<path style="fill:#000000; fill-opacity:1.0; 
stroke:#000000; stroke-width:0; stroke-opacity:1; 
stroke-linecap:round; stroke-linejoin:round;fill-rule:evenodd;"
d="M 7864,8694
7864,9029
7746,9029
7746,8694
7864,8694
Z" /> 
<path style="fill:#000000; fill-opacity:1.0; 
stroke:#000000; stroke-width:0; stroke-opacity:1; 
stroke-linecap:round; stroke-linejoin:round;fill-rule:evenodd;"
d="M 7668,8694
7668,9029
7549,9029
7549,8694
7668,8694
Z" /> 
<path style="fill:#000000; fill-opacity:1.0; 
stroke:#000000; stroke-width:0; stroke-opacity:1; 
stroke-linecap:round; stroke-linejoin:round;fill-rule:evenodd;"
d="M 7471,8694
7471,9029
7353,9029
7353,8694
7471,8694
Z" /> 
<path style="fill:#000000; fill-opacity:1.0; 
stroke:#000000; stroke-width:0; stroke-opacity:1; 
stroke-linecap:round; stroke-linejoin:round;fill-rule:evenodd;"
d="M 6969,9078
7303,9078
7303,9196
6969,9196
6969,9078
Z" /> 
<path style="fill:#000000; fill-opacity:1.0; 
stroke:#000000; stroke-width:0; stroke-opacity:1; 
stroke-linecap:round; stroke-linejoin:round;fill-rule:evenodd;"
d="M 6969,9275
7303,9275
7303,9393
6969,9393
6969,9275
Z" /> 
<path style="fill:#000000; fill-opacity:1.0; 
stroke:#000000; stroke-width:0; stroke-opacity:1; 
stroke-linecap:round; stroke-linejoin:round;fill-rule:evenodd;"
d="M 6969,9471
7303,9471
7303,9590
6969,9590
6969,9471
Z" /> 
<path style="fill:#000000; fill-opacity:1.0; 
stroke:#000000; stroke-width:0; stroke-opacity:1; 
stroke-linecap:round; stroke-linejoin:round;fill-rule:evenodd;"
d="M 6969,9668
7303,9668
7303,9786
6969,9786
6969,9668
Z" /> 
<path style="fill:#000000; fill-opacity:1.0; 
stroke:#000000; stroke-width:0; stroke-opacity:1; 
stroke-linecap:round; stroke-linejoin:round;fill-rule:evenodd;"
d="M 6969,9865
7303,9865
7303,9983
6969,9983
6969,9865
Z" /> 
<path style="fill:#000000; fill-opacity:1.0; 
stroke:#000000; stroke-width:0; stroke-opacity:1; 
stroke-linecap:round; stroke-linejoin:round;fill-rule:evenodd;"
d="M 6969,10062
7303,10062
7303,10180
6969,10180
6969,10062
Z" /> 
<path style="fill:#000000; fill-opacity:1.0; 
stroke:#000000; stroke-width:0; stroke-opacity:1; 
stroke-linecap:round; stroke-linejoin:round;fill-rule:evenodd;"
d="M 6969,10259
7303,10259
7303,10377
6969,10377
6969,10259
Z" /> 
<path style="fill:#000000; fill-opacity:1.0; 
stroke:#000000; stroke-width:0; stroke-opacity:1; 
stroke-linecap:round; stroke-linejoin:round;fill-rule:evenodd;"
d="M 6969,10456
7303,10456
7303,10574
6969,10574
6969,10456
Z" /> 
<path style="fill:#000000; fill-opacity:1.0; 
stroke:#000000; stroke-width:0; stroke-opacity:1; 
stroke-linecap:round; stroke-linejoin:round;fill-rule:evenodd;"
d="M 6969,10653
7303,10653
7303,10771
6969,10771
6969,10653
Z" /> 
<path style="fill:#000000; fill-opacity:1.0; 
stroke:#000000; stroke-width:0; stroke-opacity:1; 
stroke-linecap:round; stroke-linejoin:round;fill-rule:evenodd;"
d="M 6969,10849
7303,10849
7303,10968
6969,10968
6969,10849
Z" /> 
<path style="fill:#000000; fill-opacity:1.0; 
stroke:#000000; stroke-width:0; stroke-opacity:1; 
stroke-linecap:round; stroke-linejoin:round;fill-rule:evenodd;"
d="M 6969,11046
7303,11046
7303,11164
6969,11164
6969,11046
Z" /> 
<path style="fill:#000000; fill-opacity:1.0; 
stroke:#000000; stroke-width:0; stroke-opacity:1; 
stroke-linecap:round; stroke-linejoin:round;fill-rule:evenodd;"
d="M 6969,11243
7303,11243
7303,11361
6969,11361
6969,11243
Z" /> 
<path style="fill:#000000; fill-opacity:1.0; 
stroke:#000000; stroke-width:0; stroke-opacity:1; 
stroke-linecap:round; stroke-linejoin:round;fill-rule:evenodd;"
d="M 7471,11410
7471,11745
7353,11745
7353,11410
7471,11410
Z" /> 
<path style="fill:#000000; fill-opacity:1.0; 
stroke:#000000; stroke-width:0; stroke-opacity:1; 
stroke-linecap:round; stroke-linejoin:round;fill-rule:evenodd;"
d="M 7668,11410
7668,11745
7549,11745
7549,11410
7668,11410
Z" /> 
<path style="fill:#000000; fill-opacity:1.0; 
stroke:#000000; stroke-width:0; stroke-opacity:1; 
stroke-linecap:round; stroke-linejoin:round;fill-rule:evenodd;"
d="M 7864,11410
7864,11745
7746,11745
7746,11410
7864,11410
Z" /> 
<path style="fill:#000000; fill-opacity:1.0; 
stroke:#000000; stroke-width:0; stroke-opacity:1; 
stroke-linecap:round; stroke-linejoin:round;fill-rule:evenodd;"
d="M 8061,11410
8061,11745
7943,11745
7943,11410
8061,11410
Z" /> 
<path style="fill:#000000; fill-opacity:1.0; 
stroke:#000000; stroke-width:0; stroke-opacity:1; 
stroke-linecap:round; stroke-linejoin:round;fill-rule:evenodd;"
d="M 8258,11410
8258,11745
8140,11745
8140,11410
8258,11410
Z" /> 
<path style="fill:#000000; fill-opacity:1.0; 
stroke:#000000; stroke-width:0; stroke-opacity:1; 
stroke-linecap:round; stroke-linejoin:round;fill-rule:evenodd;"
d="M 8455,11410
8455,11745
8337,11745
8337,11410
8455,11410
Z" /> 
<path style="fill:#000000; fill-opacity:1.0; 
stroke:#000000; stroke-width:0; stroke-opacity:1; 
stroke-linecap:round; stroke-linejoin:round;fill-rule:evenodd;"
d="M 8652,11410
8652,11745
8534,11745
8534,11410
8652,11410
Z" /> 
<path style="fill:#000000; fill-opacity:1.0; 
stroke:#000000; stroke-width:0; stroke-opacity:1; 
stroke-linecap:round; stroke-linejoin:round;fill-rule:evenodd;"
d="M 8849,11410
8849,11745
8731,11745
8731,11410
8849,11410
Z" /> 
<path style="fill:#000000; fill-opacity:1.0; 
stroke:#000000; stroke-width:0; stroke-opacity:1; 
stroke-linecap:round; stroke-linejoin:round;fill-rule:evenodd;"
d="M 9046,11410
9046,11745
8927,11745
8927,11410
9046,11410
Z" /> 
<path style="fill:#000000; fill-opacity:1.0; 
stroke:#000000; stroke-width:0; stroke-opacity:1; 
stroke-linecap:round; stroke-linejoin:round;fill-rule:evenodd;"
d="M 9242,11410
9242,11745
9124,11745
9124,11410
9242,11410
Z" /> 
<path style="fill:#000000; fill-opacity:1.0; 
stroke:#000000; stroke-width:0; stroke-opacity:1; 
stroke-linecap:round; stroke-linejoin:round;fill-rule:evenodd;"
d="M 9439,11410
9439,11745
9321,11745
9321,11410
9439,11410
Z" /> 
<path style="fill:#000000; fill-opacity:1.0; 
stroke:#000000; stroke-width:0; stroke-opacity:1; 
stroke-linecap:round; stroke-linejoin:round;fill-rule:evenodd;"
d="M 9636,11410
9636,11745
9518,11745
9518,11410
9636,11410
Z" /> 
<path style="fill:#000000; fill-opacity:1.0; 
stroke:#000000; stroke-width:0; stroke-opacity:1; 
stroke-linecap:round; stroke-linejoin:round;fill-rule:evenodd;"
d="M 9528,9186
9528,11253
7461,11253
7461,9186
9528,9186
Z" /> 
</g>
<g >
</g>
<g >
</g>
<g >
</g>
<g style="fill:#000000; fill-opacity:1.0; 
stroke:#000000; stroke-width:0; stroke-opacity:1; 
stroke-linecap:round; stroke-linejoin:round;">
<path style="fill:#000000; fill-opacity:1.0; 
stroke:#000000; stroke-width:0; stroke-opacity:1; 
stroke-linecap:round; stroke-linejoin:round;fill-rule:evenodd;"
d="M 3696,7584
3303,7584
3303,6876
3696,6876
3696,7584
Z" /> 
<path style="fill:#000000; fill-opacity:1.0; 
stroke:#000000; stroke-width:0; stroke-opacity:1; 
stroke-linecap:round; stroke-linejoin:round;fill-rule:evenodd;"
d="M 4484,7584
4090,7584
4090,6876
4484,6876
4484,7584
Z" /> 
<path style="fill:#000000; fill-opacity:1.0; 
stroke:#000000; stroke-width:0; stroke-opacity:1; 
stroke-linecap:round; stroke-linejoin:round;fill-rule:evenodd;"
d="M 5271,7584
4877,7584
4877,6876
5271,6876
5271,7584
Z" /> 
<path style="fill:#000000; fill-opacity:1.0; 
stroke:#000000; stroke-width:0; stroke-opacity:1; 
stroke-linecap:round; stroke-linejoin:round;fill-rule:evenodd;"
d="M 6059,7584
5665,7584
5665,6876
6059,6876
6059,7584
Z" /> 
<path style="fill:#000000; fill-opacity:1.0; 
stroke:#000000; stroke-width:0; stroke-opacity:1; 
stroke-linecap:round; stroke-linejoin:round;fill-rule:evenodd;"
d="M 6846,7584
6452,7584
6452,6876
6846,6876
6846,7584
Z" /> 
<path style="fill:#000000; fill-opacity:1.0; 
stroke:#000000; stroke-width:0; stroke-opacity:1; 
stroke-linecap:round; stroke-linejoin:round;fill-rule:evenodd;"
d="M 7633,7584
7240,7584
7240,6876
7633,6876
7633,7584
Z" /> 
<path style="fill:#000000; fill-opacity:1.0; 
stroke:#000000; stroke-width:0; stroke-opacity:1; 
stroke-linecap:round; stroke-linejoin:round;fill-rule:evenodd;"
d="M 8421,7584
8027,7584
8027,6876
8421,6876
8421,7584
Z" /> 
<path style="fill:#000000; fill-opacity:1.0; 
stroke:#000000; stroke-width:0; stroke-opacity:1; 
stroke-linecap:round; stroke-linejoin:round;fill-rule:evenodd;"
d="M 9208,7584
8815,7584
8815,6876
9208,6876
9208,7584
Z" /> 
<path style="fill:#000000; fill-opacity:1.0; 
stroke:#000000; stroke-width:0; stroke-opacity:1; 
stroke-linecap:round; stroke-linejoin:round;fill-rule:evenodd;"
d="M 9208,1364
8815,1364
8815,655
9208,655
9208,1364
Z" /> 
<path style="fill:#000000; fill-opacity:1.0; 
stroke:#000000; stroke-width:0; stroke-opacity:1; 
stroke-linecap:round; stroke-linejoin:round;fill-rule:evenodd;"
d="M 8421,1364
8027,1364
8027,655
8421,655
8421,1364
Z" /> 
<path style="fill:#000000; fill-opacity:1.0; 
stroke:#000000; stroke-width:0; stroke-opacity:1; 
stroke-linecap:round; stroke-linejoin:round;fill-rule:evenodd;"
d="M 7633,1364
7240,1364
7240,655
7633,655
7633,1364
Z" /> 
<path style="fill:#000000; fill-opacity:1.0; 
stroke:#000000; stroke-width:0; stroke-opacity:1; 
stroke-linecap:round; stroke-linejoin:round;fill-rule:evenodd;"
d="M 6846,1364
6452,1364
6452,655
6846,655
6846,1364
Z" /> 
<path style="fill:#000000; fill-opacity:1.0; 
stroke:#000000; stroke-width:0; stroke-opacity:1; 
stroke-linecap:round; stroke-linejoin:round;fill-rule:evenodd;"
d="M 6059,1364
5665,1364
5665,655
6059,655
6059,1364
Z" /> 
<path style="fill:#000000; fill-opacity:1.0; 
stroke:#000000; stroke-width:0; stroke-opacity:1; 
stroke-linecap:round; stroke-linejoin:round;fill-rule:evenodd;"
d="M 5271,1364
4877,1364
4877,655
5271,655
5271,1364
Z" /> 
<path style="fill:#000000; fill-opacity:1.0; 
stroke:#000000; stroke-width:0; stroke-opacity:1; 
stroke-linecap:round; stroke-linejoin:round;fill-rule:evenodd;"
d="M 4484,1364
4090,1364
4090,655
4484,655
4484,1364
Z" /> 
<path style="fill:#000000; fill-opacity:1.0; 
stroke:#000000; stroke-width:0; stroke-opacity:1; 
stroke-linecap:round; stroke-linejoin:round;fill-rule:evenodd;"
d="M 3696,1364
3303,1364
3303,655
3696,655
3696,1364
Z" /> 
</g>
<g >
</g>
<g >
</g>
<g >
</g>
<g >
</g>
<g style="fill:#000000; fill-opacity:1.0; 
stroke:#000000; stroke-width:0; stroke-opacity:1; 
stroke-linecap:round; stroke-linejoin:round;">
<path style="fill:#000000; fill-opacity:1.0; 
stroke:#000000; stroke-width:0; stroke-opacity:1; 
stroke-linecap:round; stroke-linejoin:round;fill-rule:evenodd;"
d="M 12197,8578
12197,8844
12098,8844
12098,8578
12197,8578
Z" /> 
<path style="fill:#000000; fill-opacity:1.0; 
stroke:#000000; stroke-width:0; stroke-opacity:1; 
stroke-linecap:round; stroke-linejoin:round;fill-rule:evenodd;"
d="M 12394,8578
12394,8844
12295,8844
12295,8578
12394,8578
Z" /> 
<path style="fill:#000000; fill-opacity:1.0; 
stroke:#000000; stroke-width:0; stroke-opacity:1; 
stroke-linecap:round; stroke-linejoin:round;fill-rule:evenodd;"
d="M 12590,8578
12590,8844
12492,8844
12492,8578
12590,8578
Z" /> 
<path style="fill:#000000; fill-opacity:1.0; 
stroke:#000000; stroke-width:0; stroke-opacity:1; 
stroke-linecap:round; stroke-linejoin:round;fill-rule:evenodd;"
d="M 12708,8765
12974,8765
12974,8863
12708,8863
12708,8765
Z" /> 
<path style="fill:#000000; fill-opacity:1.0; 
stroke:#000000; stroke-width:0; stroke-opacity:1; 
stroke-linecap:round; stroke-linejoin:round;fill-rule:evenodd;"
d="M 12708,8962
12974,8962
12974,9060
12708,9060
12708,8962
Z" /> 
<path style="fill:#000000; fill-opacity:1.0; 
stroke:#000000; stroke-width:0; stroke-opacity:1; 
stroke-linecap:round; stroke-linejoin:round;fill-rule:evenodd;"
d="M 12708,9159
12974,9159
12974,9257
12708,9257
12708,9159
Z" /> 
<path style="fill:#000000; fill-opacity:1.0; 
stroke:#000000; stroke-width:0; stroke-opacity:1; 
stroke-linecap:round; stroke-linejoin:round;fill-rule:evenodd;"
d="M 12708,9356
12974,9356
12974,9454
12708,9454
12708,9356
Z" /> 
<path style="fill:#000000; fill-opacity:1.0; 
stroke:#000000; stroke-width:0; stroke-opacity:1; 
stroke-linecap:round; stroke-linejoin:round;fill-rule:evenodd;"
d="M 12590,9375
12590,9641
12492,9641
12492,9375
12590,9375
Z" /> 
<path style="fill:#000000; fill-opacity:1.0; 
stroke:#000000; stroke-width:0; stroke-opacity:1; 
stroke-linecap:round; stroke-linejoin:round;fill-rule:evenodd;"
d="M 12394,9375
12394,9641
12295,9641
12295,9375
12394,9375
Z" /> 
<path style="fill:#000000; fill-opacity:1.0; 
stroke:#000000; stroke-width:0; stroke-opacity:1; 
stroke-linecap:round; stroke-linejoin:round;fill-rule:evenodd;"
d="M 12197,9375
12197,9641
12098,9641
12098,9375
12197,9375
Z" /> 
<path style="fill:#000000; fill-opacity:1.0; 
stroke:#000000; stroke-width:0; stroke-opacity:1; 
stroke-linecap:round; stroke-linejoin:round;fill-rule:evenodd;"
d="M 11715,9356
11980,9356
11980,9454
11715,9454
11715,9356
Z" /> 
<path style="fill:#000000; fill-opacity:1.0; 
stroke:#000000; stroke-width:0; stroke-opacity:1; 
stroke-linecap:round; stroke-linejoin:round;fill-rule:evenodd;"
d="M 11715,9159
11980,9159
11980,9257
11715,9257
11715,9159
Z" /> 
<path style="fill:#000000; fill-opacity:1.0; 
stroke:#000000; stroke-width:0; stroke-opacity:1; 
stroke-linecap:round; stroke-linejoin:round;fill-rule:evenodd;"
d="M 11715,8962
11980,8962
11980,9060
11715,9060
11715,8962
Z" /> 
<path style="fill:#000000; fill-opacity:1.0; 
stroke:#000000; stroke-width:0; stroke-opacity:1; 
stroke-linecap:round; stroke-linejoin:round;fill-rule:evenodd;"
d="M 11715,8765
11980,8765
11980,8863
11715,8863
11715,8765
Z" /> 
</g>
<g >
</g>
<g style="fill:#000000; fill-opacity:1.0; 
stroke:#000000; stroke-width:0; stroke-opacity:1; 
stroke-linecap:round; stroke-linejoin:round;">
<path style="fill:#000000; fill-opacity:1.0; 
stroke:#000000; stroke-width:0; stroke-opacity:1; 
stroke-linecap:round; stroke-linejoin:round;fill-rule:evenodd;"
d="M 3199,10692
3205,10692
3211,10694
3216,10696
3221,10698
3226,10701
3231,10705
3235,10709
3239,10713
3243,10717
3245,10722
3248,10728
3250,10733
3251,10739
3252,10744
3252,10750
3252,11321
3252,11327
3251,11333
3250,11338
3248,11344
3245,11349
3243,11354
3239,11359
3235,11363
3231,11367
3226,11370
3221,11373
3216,11376
3211,11378
3205,11379
3199,11380
3193,11380
3075,11380
3069,11380
3064,11379
3058,11378
3053,11376
3047,11373
3042,11370
3038,11367
3034,11363
3030,11359
3026,11354
3023,11349
3021,11344
3019,11338
3017,11333
3017,11327
3016,11321
3016,10750
3017,10744
3017,10739
3019,10733
3021,10728
3023,10722
3026,10717
3030,10713
3034,10709
3038,10705
3042,10701
3047,10698
3053,10696
3058,10694
3064,10692
3069,10692
3075,10691
3193,10691
3199,10692
Z" /> 
<path style="fill:#000000; fill-opacity:1.0; 
stroke:#000000; stroke-width:0; stroke-opacity:1; 
stroke-linecap:round; stroke-linejoin:round;fill-rule:evenodd;"
d="M 3699,10692
3705,10692
3711,10694
3716,10696
3721,10698
3726,10701
3731,10705
3735,10709
3739,10713
3743,10717
3745,10722
3748,10728
3750,10733
3751,10739
3752,10744
3752,10750
3752,11321
3752,11327
3751,11333
3750,11338
3748,11344
3745,11349
3743,11354
3739,11359
3735,11363
3731,11367
3726,11370
3721,11373
3716,11376
3711,11378
3705,11379
3699,11380
3693,11380
3575,11380
3569,11380
3564,11379
3558,11378
3553,11376
3547,11373
3542,11370
3538,11367
3534,11363
3530,11359
3526,11354
3523,11349
3521,11344
3519,11338
3517,11333
3517,11327
3516,11321
3516,10750
3517,10744
3517,10739
3519,10733
3521,10728
3523,10722
3526,10717
3530,10713
3534,10709
3538,10705
3542,10701
3547,10698
3553,10696
3558,10694
3564,10692
3569,10692
3575,10691
3693,10691
3699,10692
Z" /> 
<path style="fill:#000000; fill-opacity:1.0; 
stroke:#000000; stroke-width:0; stroke-opacity:1; 
stroke-linecap:round; stroke-linejoin:round;fill-rule:evenodd;"
d="M 4199,10692
4205,10692
4211,10694
4216,10696
4221,10698
4226,10701
4231,10705
4235,10709
4239,10713
4243,10717
4245,10722
4248,10728
4250,10733
4251,10739
4252,10744
4252,10750
4252,11321
4252,11327
4251,11333
4250,11338
4248,11344
4245,11349
4243,11354
4239,11359
4235,11363
4231,11367
4226,11370
4221,11373
4216,11376
4211,11378
4205,11379
4199,11380
4193,11380
4075,11380
4069,11380
4064,11379
4058,11378
4053,11376
4047,11373
4042,11370
4038,11367
4034,11363
4030,11359
4026,11354
4023,11349
4021,11344
4019,11338
4017,11333
4017,11327
4016,11321
4016,10750
4017,10744
4017,10739
4019,10733
4021,10728
4023,10722
4026,10717
4030,10713
4034,10709
4038,10705
4042,10701
4047,10698
4053,10696
4058,10694
4064,10692
4069,10692
4075,10691
4193,10691
4199,10692
Z" /> 
<path style="fill:#000000; fill-opacity:1.0; 
stroke:#000000; stroke-width:0; stroke-opacity:1; 
stroke-linecap:round; stroke-linejoin:round;fill-rule:evenodd;"
d="M 4699,10692
4705,10692
4711,10694
4716,10696
4721,10698
4726,10701
4731,10705
4735,10709
4739,10713
4743,10717
4745,10722
4748,10728
4750,10733
4751,10739
4752,10744
4752,10750
4752,11321
4752,11327
4751,11333
4750,11338
4748,11344
4745,11349
4743,11354
4739,11359
4735,11363
4731,11367
4726,11370
4721,11373
4716,11376
4711,11378
4705,11379
4699,11380
4693,11380
4575,11380
4569,11380
4564,11379
4558,11378
4553,11376
4547,11373
4542,11370
4538,11367
4534,11363
4530,11359
4526,11354
4523,11349
4521,11344
4519,11338
4517,11333
4517,11327
4516,11321
4516,10750
4517,10744
4517,10739
4519,10733
4521,10728
4523,10722
4526,10717
4530,10713
4534,10709
4538,10705
4542,10701
4547,10698
4553,10696
4558,10694
4564,10692
4569,10692
4575,10691
4693,10691
4699,10692
Z" /> 
<path style="fill:#000000; fill-opacity:1.0; 
stroke:#000000; stroke-width:0; stroke-opacity:1; 
stroke-linecap:round; stroke-linejoin:round;fill-rule:evenodd;"
d="M 4699,12719
4705,12720
4711,12721
4716,12723
4721,12726
4726,12729
4731,12732
4735,12736
4739,12740
4743,12745
4745,12750
4748,12755
4750,12761
4751,12766
4752,12772
4752,12778
4752,13349
4752,13355
4751,13360
4750,13366
4748,13371
4745,13377
4743,13382
4739,13386
4735,13390
4731,13394
4726,13398
4721,13401
4716,13403
4711,13405
4705,13407
4699,13407
4693,13408
4575,13408
4569,13407
4564,13407
4558,13405
4553,13403
4547,13401
4542,13398
4538,13394
4534,13390
4530,13386
4526,13382
4523,13377
4521,13371
4519,13366
4517,13360
4517,13355
4516,13349
4516,12778
4517,12772
4517,12766
4519,12761
4521,12755
4523,12750
4526,12745
4530,12740
4534,12736
4538,12732
4542,12729
4547,12726
4553,12723
4558,12721
4564,12720
4569,12719
4575,12719
4693,12719
4699,12719
Z" /> 
<path style="fill:#000000; fill-opacity:1.0; 
stroke:#000000; stroke-width:0; stroke-opacity:1; 
stroke-linecap:round; stroke-linejoin:round;fill-rule:evenodd;"
d="M 4199,12719
4205,12720
4211,12721
4216,12723
4221,12726
4226,12729
4231,12732
4235,12736
4239,12740
4243,12745
4245,12750
4248,12755
4250,12761
4251,12766
4252,12772
4252,12778
4252,13349
4252,13355
4251,13360
4250,13366
4248,13371
4245,13377
4243,13382
4239,13386
4235,13390
4231,13394
4226,13398
4221,13401
4216,13403
4211,13405
4205,13407
4199,13407
4193,13408
4075,13408
4069,13407
4064,13407
4058,13405
4053,13403
4047,13401
4042,13398
4038,13394
4034,13390
4030,13386
4026,13382
4023,13377
4021,13371
4019,13366
4017,13360
4017,13355
4016,13349
4016,12778
4017,12772
4017,12766
4019,12761
4021,12755
4023,12750
4026,12745
4030,12740
4034,12736
4038,12732
4042,12729
4047,12726
4053,12723
4058,12721
4064,12720
4069,12719
4075,12719
4193,12719
4199,12719
Z" /> 
<path style="fill:#000000; fill-opacity:1.0; 
stroke:#000000; stroke-width:0; stroke-opacity:1; 
stroke-linecap:round; stroke-linejoin:round;fill-rule:evenodd;"
d="M 3699,12719
3705,12720
3711,12721
3716,12723
3721,12726
3726,12729
3731,12732
3735,12736
3739,12740
3743,12745
3745,12750
3748,12755
3750,12761
3751,12766
3752,12772
3752,12778
3752,13349
3752,13355
3751,13360
3750,13366
3748,13371
3745,13377
3743,13382
3739,13386
3735,13390
3731,13394
3726,13398
3721,13401
3716,13403
3711,13405
3705,13407
3699,13407
3693,13408
3575,13408
3569,13407
3564,13407
3558,13405
3553,13403
3547,13401
3542,13398
3538,13394
3534,13390
3530,13386
3526,13382
3523,13377
3521,13371
3519,13366
3517,13360
3517,13355
3516,13349
3516,12778
3517,12772
3517,12766
3519,12761
3521,12755
3523,12750
3526,12745
3530,12740
3534,12736
3538,12732
3542,12729
3547,12726
3553,12723
3558,12721
3564,12720
3569,12719
3575,12719
3693,12719
3699,12719
Z" /> 
<path style="fill:#000000; fill-opacity:1.0; 
stroke:#000000; stroke-width:0; stroke-opacity:1; 
stroke-linecap:round; stroke-linejoin:round;fill-rule:evenodd;"
d="M 3199,12719
3205,12720
3211,12721
3216,12723
3221,12726
3226,12729
3231,12732
3235,12736
3239,12740
3243,12745
3245,12750
3248,12755
3250,12761
3251,12766
3252,12772
3252,12778
3252,13349
3252,13355
3251,13360
3250,13366
3248,13371
3245,13377
3243,13382
3239,13386
3235,13390
3231,13394
3226,13398
3221,13401
3216,13403
3211,13405
3205,13407
3199,13407
3193,13408
3075,13408
3069,13407
3064,13407
3058,13405
3053,13403
3047,13401
3042,13398
3038,13394
3034,13390
3030,13386
3026,13382
3023,13377
3021,13371
3019,13366
3017,13360
3017,13355
3016,13349
3016,12778
3017,12772
3017,12766
3019,12761
3021,12755
3023,12750
3026,12745
3030,12740
3034,12736
3038,12732
3042,12729
3047,12726
3053,12723
3058,12721
3064,12720
3069,12719
3075,12719
3193,12719
3199,12719
Z" /> 
</g>
<g >
</g>
<g style="fill:#000000; fill-opacity:1.0; 
stroke:#000000; stroke-width:0; stroke-opacity:1; 
stroke-linecap:round; stroke-linejoin:round;">
<path style="fill:#000000; fill-opacity:1.0; 
stroke:#000000; stroke-width:0; stroke-opacity:1; 
stroke-linecap:round; stroke-linejoin:round;fill-rule:evenodd;"
d="M 6597,12164
6603,12165
6608,12166
6614,12168
6619,12170
6624,12173
6628,12177
6633,12181
6636,12185
6640,12189
6643,12194
6645,12199
6647,12205
6648,12210
6649,12216
6650,12222
6650,12357
6649,12363
6648,12369
6647,12374
6645,12380
6643,12385
6640,12390
6636,12394
6633,12398
6628,12402
6624,12406
6619,12409
6614,12411
6608,12413
6603,12414
6597,12415
6591,12415
6475,12415
6470,12415
6464,12414
6458,12413
6453,12411
6448,12409
6443,12406
6438,12402
6434,12398
6430,12394
6427,12390
6424,12385
6422,12380
6420,12374
6418,12369
6418,12363
6417,12357
6417,12222
6418,12216
6418,12210
6420,12205
6422,12199
6424,12194
6427,12189
6430,12185
6434,12181
6438,12177
6443,12173
6448,12170
6453,12168
6458,12166
6464,12165
6470,12164
6475,12164
6591,12164
6597,12164
Z" /> 
<path style="fill:#000000; fill-opacity:1.0; 
stroke:#000000; stroke-width:0; stroke-opacity:1; 
stroke-linecap:round; stroke-linejoin:round;fill-rule:evenodd;"
d="M 6979,12164
6985,12165
6990,12166
6996,12168
7001,12170
7006,12173
7010,12177
7014,12181
7018,12185
7022,12189
7025,12194
7027,12199
7029,12205
7030,12210
7031,12216
7031,12222
7031,12357
7031,12363
7030,12369
7029,12374
7027,12380
7025,12385
7022,12390
7018,12394
7014,12398
7010,12402
7006,12406
7001,12409
6996,12411
6990,12413
6985,12414
6979,12415
6973,12415
6857,12415
6852,12415
6846,12414
6840,12413
6835,12411
6830,12409
6825,12406
6820,12402
6816,12398
6812,12394
6809,12390
6806,12385
6804,12380
6802,12374
6800,12369
6799,12363
6799,12357
6799,12222
6799,12216
6800,12210
6802,12205
6804,12199
6806,12194
6809,12189
6812,12185
6816,12181
6820,12177
6825,12173
6830,12170
6835,12168
6840,12166
6846,12165
6852,12164
6857,12164
6973,12164
6979,12164
Z" /> 
</g>
<g >
</g>
<g style="fill:#000000; fill-opacity:1.0; 
stroke:#000000; stroke-width:0; stroke-opacity:1; 
stroke-linecap:round; stroke-linejoin:round;">
<path style="fill:#000000; fill-opacity:1.0; 
stroke:#000000; stroke-width:0; stroke-opacity:1; 
stroke-linecap:round; stroke-linejoin:round;fill-rule:evenodd;"
d="M 10927,10624
10933,10625
10938,10626
10944,10628
10949,10630
10954,10633
10958,10637
10963,10641
10966,10645
10970,10649
10973,10654
10975,10659
10977,10665
10978,10670
10979,10676
10980,10682
10980,10817
10979,10823
10978,10829
10977,10834
10975,10840
10973,10845
10970,10850
10966,10854
10963,10858
10958,10862
10954,10866
10949,10869
10944,10871
10938,10873
10933,10874
10927,10875
10921,10875
10805,10875
10800,10875
10794,10874
10788,10873
10783,10871
10778,10869
10773,10866
10768,10862
10764,10858
10760,10854
10757,10850
10754,10845
10752,10840
10750,10834
10748,10829
10748,10823
10747,10817
10747,10682
10748,10676
10748,10670
10750,10665
10752,10659
10754,10654
10757,10649
10760,10645
10764,10641
10768,10637
10773,10633
10778,10630
10783,10628
10788,10626
10794,10625
10800,10624
10805,10624
10921,10624
10927,10624
Z" /> 
<path style="fill:#000000; fill-opacity:1.0; 
stroke:#000000; stroke-width:0; stroke-opacity:1; 
stroke-linecap:round; stroke-linejoin:round;fill-rule:evenodd;"
d="M 11309,10624
11315,10625
11320,10626
11326,10628
11331,10630
11336,10633
11340,10637
11344,10641
11348,10645
11352,10649
11355,10654
11357,10659
11359,10665
11360,10670
11361,10676
11361,10682
11361,10817
11361,10823
11360,10829
11359,10834
11357,10840
11355,10845
11352,10850
11348,10854
11344,10858
11340,10862
11336,10866
11331,10869
11326,10871
11320,10873
11315,10874
11309,10875
11303,10875
11187,10875
11182,10875
11176,10874
11170,10873
11165,10871
11160,10869
11155,10866
11150,10862
11146,10858
11142,10854
11139,10850
11136,10845
11134,10840
11132,10834
11130,10829
11129,10823
11129,10817
11129,10682
11129,10676
11130,10670
11132,10665
11134,10659
11136,10654
11139,10649
11142,10645
11146,10641
11150,10637
11155,10633
11160,10630
11165,10628
11170,10626
11176,10625
11182,10624
11187,10624
11303,10624
11309,10624
Z" /> 
</g>
<g >
</g>
<g style="fill:#000000; fill-opacity:1.0; 
stroke:#000000; stroke-width:0; stroke-opacity:1; 
stroke-linecap:round; stroke-linejoin:round;">
<path style="fill:#000000; fill-opacity:1.0; 
stroke:#000000; stroke-width:0; stroke-opacity:1; 
stroke-linecap:round; stroke-linejoin:round;fill-rule:evenodd;"
d="M 12497,10894
12503,10895
12508,10896
12514,10898
12519,10900
12524,10903
12528,10907
12533,10911
12536,10915
12540,10919
12543,10924
12545,10929
12547,10935
12548,10940
12549,10946
12550,10952
12550,11087
12549,11093
12548,11099
12547,11104
12545,11110
12543,11115
12540,11120
12536,11124
12533,11128
12528,11132
12524,11136
12519,11139
12514,11141
12508,11143
12503,11144
12497,11145
12491,11145
12375,11145
12370,11145
12364,11144
12358,11143
12353,11141
12348,11139
12343,11136
12338,11132
12334,11128
12330,11124
12327,11120
12324,11115
12322,11110
12320,11104
12318,11099
12318,11093
12317,11087
12317,10952
12318,10946
12318,10940
12320,10935
12322,10929
12324,10924
12327,10919
12330,10915
12334,10911
12338,10907
12343,10903
12348,10900
12353,10898
12358,10896
12364,10895
12370,10894
12375,10894
12491,10894
12497,10894
Z" /> 
<path style="fill:#000000; fill-opacity:1.0; 
stroke:#000000; stroke-width:0; stroke-opacity:1; 
stroke-linecap:round; stroke-linejoin:round;fill-rule:evenodd;"
d="M 12879,10894
12885,10895
12890,10896
12896,10898
12901,10900
12906,10903
12910,10907
12914,10911
12918,10915
12922,10919
12925,10924
12927,10929
12929,10935
12930,10940
12931,10946
12931,10952
12931,11087
12931,11093
12930,11099
12929,11104
12927,11110
12925,11115
12922,11120
12918,11124
12914,11128
12910,11132
12906,11136
12901,11139
12896,11141
12890,11143
12885,11144
12879,11145
12873,11145
12757,11145
12752,11145
12746,11144
12740,11143
12735,11141
12730,11139
12725,11136
12720,11132
12716,11128
12712,11124
12709,11120
12706,11115
12704,11110
12702,11104
12700,11099
12699,11093
12699,11087
12699,10952
12699,10946
12700,10940
12702,10935
12704,10929
12706,10924
12709,10919
12712,10915
12716,10911
12720,10907
12725,10903
12730,10900
12735,10898
12740,10896
12746,10895
12752,10894
12757,10894
12873,10894
12879,10894
Z" /> 
</g>
<g >
</g>
<g >
</g>
<g style="fill:#000000; fill-opacity:1.0; 
stroke:#000000; stroke-width:0; stroke-opacity:1; 
stroke-linecap:round; stroke-linejoin:round;">
<path style="fill:#000000; fill-opacity:1.0; 
stroke:#000000; stroke-width:0; stroke-opacity:1; 
stroke-linecap:round; stroke-linejoin:round;fill-rule:evenodd;"
d="M 13448,8868
13454,8869
13459,8870
13464,8872
13470,8874
13475,8877
13479,8881
13483,8884
13487,8889
13491,8893
13493,8898
13496,8903
13498,8909
13499,8914
13500,8920
13500,8925
13500,9042
13500,9047
13499,9053
13498,9058
13496,9064
13493,9069
13491,9074
13487,9078
13483,9083
13479,9087
13475,9090
13470,9093
13464,9095
13459,9097
13454,9099
13448,9099
13442,9100
13306,9100
13301,9099
13295,9099
13290,9097
13284,9095
13279,9093
13274,9090
13270,9087
13265,9083
13262,9078
13258,9074
13255,9069
13253,9064
13251,9058
13249,9053
13249,9047
13248,9042
13248,8925
13249,8920
13249,8914
13251,8909
13253,8903
13255,8898
13258,8893
13262,8889
13265,8884
13270,8881
13274,8877
13279,8874
13284,8872
13290,8870
13295,8869
13301,8868
13306,8867
13442,8867
13448,8868
Z" /> 
<path style="fill:#000000; fill-opacity:1.0; 
stroke:#000000; stroke-width:0; stroke-opacity:1; 
stroke-linecap:round; stroke-linejoin:round;fill-rule:evenodd;"
d="M 13448,9250
13454,9250
13459,9252
13464,9254
13470,9256
13475,9259
13479,9262
13483,9266
13487,9271
13491,9275
13493,9280
13496,9285
13498,9291
13499,9296
13500,9302
13500,9307
13500,9424
13500,9429
13499,9435
13498,9440
13496,9446
13493,9451
13491,9456
13487,9460
13483,9465
13479,9468
13475,9472
13470,9475
13464,9477
13459,9479
13454,9480
13448,9481
13442,9482
13306,9482
13301,9481
13295,9480
13290,9479
13284,9477
13279,9475
13274,9472
13270,9468
13265,9465
13262,9460
13258,9456
13255,9451
13253,9446
13251,9440
13249,9435
13249,9429
13248,9424
13248,9307
13249,9302
13249,9296
13251,9291
13253,9285
13255,9280
13258,9275
13262,9271
13265,9266
13270,9262
13274,9259
13279,9256
13284,9254
13290,9252
13295,9250
13301,9250
13306,9249
13442,9249
13448,9250
Z" /> 
</g>
<g >
</g>
<g style="fill:#000000; fill-opacity:1.0; 
stroke:#000000; stroke-width:0; stroke-opacity:1; 
stroke-linecap:round; stroke-linejoin:round;">
<path style="fill:#000000; fill-opacity:1.0; 
stroke:#000000; stroke-width:0; stroke-opacity:1; 
stroke-linecap:round; stroke-linejoin:round;fill-rule:evenodd;"
d="M 12599,9854
12605,9855
12610,9856
12616,9858
12621,9860
12626,9863
12630,9867
12634,9871
12638,9875
12642,9879
12645,9884
12647,9889
12649,9895
12650,9900
12651,9906
12651,9912
12651,10047
12651,10053
12650,10059
12649,10064
12647,10070
12645,10075
12642,10080
12638,10084
12634,10088
12630,10092
12626,10096
12621,10099
12616,10101
12610,10103
12605,10104
12599,10105
12593,10105
12477,10105
12472,10105
12466,10104
12460,10103
12455,10101
12450,10099
12445,10096
12440,10092
12436,10088
12432,10084
12429,10080
12426,10075
12424,10070
12422,10064
12420,10059
12419,10053
12419,10047
12419,9912
12419,9906
12420,9900
12422,9895
12424,9889
12426,9884
12429,9879
12432,9875
12436,9871
12440,9867
12445,9863
12450,9860
12455,9858
12460,9856
12466,9855
12472,9854
12477,9854
12593,9854
12599,9854
Z" /> 
<path style="fill:#000000; fill-opacity:1.0; 
stroke:#000000; stroke-width:0; stroke-opacity:1; 
stroke-linecap:round; stroke-linejoin:round;fill-rule:evenodd;"
d="M 12217,9854
12223,9855
12228,9856
12234,9858
12239,9860
12244,9863
12248,9867
12253,9871
12256,9875
12260,9879
12263,9884
12265,9889
12267,9895
12268,9900
12269,9906
12270,9912
12270,10047
12269,10053
12268,10059
12267,10064
12265,10070
12263,10075
12260,10080
12256,10084
12253,10088
12248,10092
12244,10096
12239,10099
12234,10101
12228,10103
12223,10104
12217,10105
12211,10105
12095,10105
12090,10105
12084,10104
12078,10103
12073,10101
12068,10099
12063,10096
12058,10092
12054,10088
12050,10084
12047,10080
12044,10075
12042,10070
12040,10064
12038,10059
12038,10053
12037,10047
12037,9912
12038,9906
12038,9900
12040,9895
12042,9889
12044,9884
12047,9879
12050,9875
12054,9871
12058,9867
12063,9863
12068,9860
12073,9858
12078,9856
12084,9855
12090,9854
12095,9854
12211,9854
12217,9854
Z" /> 
</g>
<g >
</g>
<g style="fill:#000000; fill-opacity:1.0; 
stroke:#000000; stroke-width:0; stroke-opacity:1; 
stroke-linecap:round; stroke-linejoin:round;">
<path style="fill:#000000; fill-opacity:1.0; 
stroke:#000000; stroke-width:0; stroke-opacity:1; 
stroke-linecap:round; stroke-linejoin:round;fill-rule:evenodd;"
d="M 12882,13557
12882,13163
13276,13163
13276,13557
12882,13557
Z" /> 
<path style="fill:#000000; fill-opacity:1.0; 
stroke:#000000; stroke-width:0; stroke-opacity:1; 
stroke-linecap:round; stroke-linejoin:round;fill-rule:evenodd;"
d="M 12882,12376
12882,11982
13276,11982
13276,12376
12882,12376
Z" /> 
<path style="fill:#000000; fill-opacity:1.0; 
stroke:#000000; stroke-width:0; stroke-opacity:1; 
stroke-linecap:round; stroke-linejoin:round;fill-rule:evenodd;"
d="M 13453,13203
13453,12336
13867,12336
13867,13203
13453,13203
Z" /> 
<path style="fill:#000000; fill-opacity:1.0; 
stroke:#000000; stroke-width:0; stroke-opacity:1; 
stroke-linecap:round; stroke-linejoin:round;fill-rule:evenodd;"
d="M 12292,13203
12292,12336
12705,12336
12705,13203
12292,13203
Z" /> 
</g>
<g >
</g>
<g style="fill:#000000; fill-opacity:1.0; 
stroke:#000000; stroke-width:0; stroke-opacity:1; 
stroke-linecap:round; stroke-linejoin:round;">
<path style="fill:#000000; fill-opacity:1.0; 
stroke:#000000; stroke-width:0; stroke-opacity:1; 
stroke-linecap:round; stroke-linejoin:round;fill-rule:evenodd;"
d="M 12727,3063
13121,3063
13121,3456
12727,3456
12727,3063
Z" /> 
<path style="fill:#000000; fill-opacity:1.0; 
stroke:#000000; stroke-width:0; stroke-opacity:1; 
stroke-linecap:round; stroke-linejoin:round;fill-rule:evenodd;"
d="M 13908,3063
14302,3063
14302,3456
13908,3456
13908,3063
Z" /> 
<path style="fill:#000000; fill-opacity:1.0; 
stroke:#000000; stroke-width:0; stroke-opacity:1; 
stroke-linecap:round; stroke-linejoin:round;fill-rule:evenodd;"
d="M 13081,3634
13947,3634
13947,4047
13081,4047
13081,3634
Z" /> 
<path style="fill:#000000; fill-opacity:1.0; 
stroke:#000000; stroke-width:0; stroke-opacity:1; 
stroke-linecap:round; stroke-linejoin:round;fill-rule:evenodd;"
d="M 13081,2472
13947,2472
13947,2885
13081,2885
13081,2472
Z" /> 
</g>
<g >
</g>
<g style="fill:#000000; fill-opacity:1.0; 
stroke:#000000; stroke-width:0; stroke-opacity:1; 
stroke-linecap:round; stroke-linejoin:round;">
<path style="fill:#000000; fill-opacity:1.0; 
stroke:#000000; stroke-width:0; stroke-opacity:1; 
stroke-linecap:round; stroke-linejoin:round;fill-rule:evenodd;"
d="M 16215,7589
16215,8259
15625,8259
15625,7589
16215,7589
Z" /> 
<path style="fill:#000000; fill-opacity:1.0; 
stroke:#000000; stroke-width:0; stroke-opacity:1; 
stroke-linecap:round; stroke-linejoin:round;fill-rule:evenodd;"
d="M 16215,10660
16215,11330
15625,11330
15625,10660
16215,10660
Z" /> 
<path style="fill:#000000; fill-opacity:1.0; 
stroke:#000000; stroke-width:0; stroke-opacity:1; 
stroke-linecap:round; stroke-linejoin:round;fill-rule:evenodd;"
d="M 14601,8623
14168,8623
14168,8524
14601,8524
14601,8623
Z" /> 
<path style="fill:#000000; fill-opacity:1.0; 
stroke:#000000; stroke-width:0; stroke-opacity:1; 
stroke-linecap:round; stroke-linejoin:round;fill-rule:evenodd;"
d="M 14601,8820
14168,8820
14168,8721
14601,8721
14601,8820
Z" /> 
<path style="fill:#000000; fill-opacity:1.0; 
stroke:#000000; stroke-width:0; stroke-opacity:1; 
stroke-linecap:round; stroke-linejoin:round;fill-rule:evenodd;"
d="M 14601,9017
14168,9017
14168,8918
14601,8918
14601,9017
Z" /> 
<path style="fill:#000000; fill-opacity:1.0; 
stroke:#000000; stroke-width:0; stroke-opacity:1; 
stroke-linecap:round; stroke-linejoin:round;fill-rule:evenodd;"
d="M 14601,9213
14168,9213
14168,9115
14601,9115
14601,9213
Z" /> 
<path style="fill:#000000; fill-opacity:1.0; 
stroke:#000000; stroke-width:0; stroke-opacity:1; 
stroke-linecap:round; stroke-linejoin:round;fill-rule:evenodd;"
d="M 14601,9410
14168,9410
14168,9312
14601,9312
14601,9410
Z" /> 
<path style="fill:#000000; fill-opacity:1.0; 
stroke:#000000; stroke-width:0; stroke-opacity:1; 
stroke-linecap:round; stroke-linejoin:round;fill-rule:evenodd;"
d="M 14601,9607
14168,9607
14168,9509
14601,9509
14601,9607
Z" /> 
<path style="fill:#000000; fill-opacity:1.0; 
stroke:#000000; stroke-width:0; stroke-opacity:1; 
stroke-linecap:round; stroke-linejoin:round;fill-rule:evenodd;"
d="M 14601,9804
14168,9804
14168,9706
14601,9706
14601,9804
Z" /> 
<path style="fill:#000000; fill-opacity:1.0; 
stroke:#000000; stroke-width:0; stroke-opacity:1; 
stroke-linecap:round; stroke-linejoin:round;fill-rule:evenodd;"
d="M 14601,10001
14168,10001
14168,9902
14601,9902
14601,10001
Z" /> 
<path style="fill:#000000; fill-opacity:1.0; 
stroke:#000000; stroke-width:0; stroke-opacity:1; 
stroke-linecap:round; stroke-linejoin:round;fill-rule:evenodd;"
d="M 14601,10198
14168,10198
14168,10099
14601,10099
14601,10198
Z" /> 
<path style="fill:#000000; fill-opacity:1.0; 
stroke:#000000; stroke-width:0; stroke-opacity:1; 
stroke-linecap:round; stroke-linejoin:round;fill-rule:evenodd;"
d="M 14601,10395
14168,10395
14168,10296
14601,10296
14601,10395
Z" /> 
</g>
<g >
</g>
<g style="fill:#000000; fill-opacity:1.0; 
stroke:#000000; stroke-width:0; stroke-opacity:1; 
stroke-linecap:round; stroke-linejoin:round;">
<path style="fill:#000000; fill-opacity:1.0; 
stroke:#000000; stroke-width:0; stroke-opacity:1; 
stroke-linecap:round; stroke-linejoin:round;fill-rule:evenodd;"
d="M 16152,7350
15483,7350
15483,6760
16152,6760
16152,7350
Z" /> 
<path style="fill:#000000; fill-opacity:1.0; 
stroke:#000000; stroke-width:0; stroke-opacity:1; 
stroke-linecap:round; stroke-linejoin:round;fill-rule:evenodd;"
d="M 10326,7350
9656,7350
9656,6760
10326,6760
10326,7350
Z" /> 
<path style="fill:#000000; fill-opacity:1.0; 
stroke:#000000; stroke-width:0; stroke-opacity:1; 
stroke-linecap:round; stroke-linejoin:round;fill-rule:evenodd;"
d="M 15119,5736
15119,5303
15217,5303
15217,5736
15119,5736
Z" /> 
<path style="fill:#000000; fill-opacity:1.0; 
stroke:#000000; stroke-width:0; stroke-opacity:1; 
stroke-linecap:round; stroke-linejoin:round;fill-rule:evenodd;"
d="M 14922,5736
14922,5303
15020,5303
15020,5736
14922,5736
Z" /> 
<path style="fill:#000000; fill-opacity:1.0; 
stroke:#000000; stroke-width:0; stroke-opacity:1; 
stroke-linecap:round; stroke-linejoin:round;fill-rule:evenodd;"
d="M 14725,5736
14725,5303
14824,5303
14824,5736
14725,5736
Z" /> 
<path style="fill:#000000; fill-opacity:1.0; 
stroke:#000000; stroke-width:0; stroke-opacity:1; 
stroke-linecap:round; stroke-linejoin:round;fill-rule:evenodd;"
d="M 14528,5736
14528,5303
14627,5303
14627,5736
14528,5736
Z" /> 
<path style="fill:#000000; fill-opacity:1.0; 
stroke:#000000; stroke-width:0; stroke-opacity:1; 
stroke-linecap:round; stroke-linejoin:round;fill-rule:evenodd;"
d="M 14332,5736
14332,5303
14430,5303
14430,5736
14332,5736
Z" /> 
<path style="fill:#000000; fill-opacity:1.0; 
stroke:#000000; stroke-width:0; stroke-opacity:1; 
stroke-linecap:round; stroke-linejoin:round;fill-rule:evenodd;"
d="M 14135,5736
14135,5303
14233,5303
14233,5736
14135,5736
Z" /> 
<path style="fill:#000000; fill-opacity:1.0; 
stroke:#000000; stroke-width:0; stroke-opacity:1; 
stroke-linecap:round; stroke-linejoin:round;fill-rule:evenodd;"
d="M 13938,5736
13938,5303
14036,5303
14036,5736
13938,5736
Z" /> 
<path style="fill:#000000; fill-opacity:1.0; 
stroke:#000000; stroke-width:0; stroke-opacity:1; 
stroke-linecap:round; stroke-linejoin:round;fill-rule:evenodd;"
d="M 13741,5736
13741,5303
13839,5303
13839,5736
13741,5736
Z" /> 
<path style="fill:#000000; fill-opacity:1.0; 
stroke:#000000; stroke-width:0; stroke-opacity:1; 
stroke-linecap:round; stroke-linejoin:round;fill-rule:evenodd;"
d="M 13544,5736
13544,5303
13643,5303
13643,5736
13544,5736
Z" /> 
<path style="fill:#000000; fill-opacity:1.0; 
stroke:#000000; stroke-width:0; stroke-opacity:1; 
stroke-linecap:round; stroke-linejoin:round;fill-rule:evenodd;"
d="M 13347,5736
13347,5303
13446,5303
13446,5736
13347,5736
Z" /> 
<path style="fill:#000000; fill-opacity:1.0; 
stroke:#000000; stroke-width:0; stroke-opacity:1; 
stroke-linecap:round; stroke-linejoin:round;fill-rule:evenodd;"
d="M 13150,5736
13150,5303
13249,5303
13249,5736
13150,5736
Z" /> 
<path style="fill:#000000; fill-opacity:1.0; 
stroke:#000000; stroke-width:0; stroke-opacity:1; 
stroke-linecap:round; stroke-linejoin:round;fill-rule:evenodd;"
d="M 12954,5736
12954,5303
13052,5303
13052,5736
12954,5736
Z" /> 
<path style="fill:#000000; fill-opacity:1.0; 
stroke:#000000; stroke-width:0; stroke-opacity:1; 
stroke-linecap:round; stroke-linejoin:round;fill-rule:evenodd;"
d="M 12757,5736
12757,5303
12855,5303
12855,5736
12757,5736
Z" /> 
<path style="fill:#000000; fill-opacity:1.0; 
stroke:#000000; stroke-width:0; stroke-opacity:1; 
stroke-linecap:round; stroke-linejoin:round;fill-rule:evenodd;"
d="M 12560,5736
12560,5303
12658,5303
12658,5736
12560,5736
Z" /> 
<path style="fill:#000000; fill-opacity:1.0; 
stroke:#000000; stroke-width:0; stroke-opacity:1; 
stroke-linecap:round; stroke-linejoin:round;fill-rule:evenodd;"
d="M 12363,5736
12363,5303
12461,5303
12461,5736
12363,5736
Z" /> 
<path style="fill:#000000; fill-opacity:1.0; 
stroke:#000000; stroke-width:0; stroke-opacity:1; 
stroke-linecap:round; stroke-linejoin:round;fill-rule:evenodd;"
d="M 12166,5736
12166,5303
12265,5303
12265,5736
12166,5736
Z" /> 
<path style="fill:#000000; fill-opacity:1.0; 
stroke:#000000; stroke-width:0; stroke-opacity:1; 
stroke-linecap:round; stroke-linejoin:round;fill-rule:evenodd;"
d="M 11969,5736
11969,5303
12068,5303
12068,5736
11969,5736
Z" /> 
<path style="fill:#000000; fill-opacity:1.0; 
stroke:#000000; stroke-width:0; stroke-opacity:1; 
stroke-linecap:round; stroke-linejoin:round;fill-rule:evenodd;"
d="M 11772,5736
11772,5303
11871,5303
11871,5736
11772,5736
Z" /> 
<path style="fill:#000000; fill-opacity:1.0; 
stroke:#000000; stroke-width:0; stroke-opacity:1; 
stroke-linecap:round; stroke-linejoin:round;fill-rule:evenodd;"
d="M 11576,5736
11576,5303
11674,5303
11674,5736
11576,5736
Z" /> 
<path style="fill:#000000; fill-opacity:1.0; 
stroke:#000000; stroke-width:0; stroke-opacity:1; 
stroke-linecap:round; stroke-linejoin:round;fill-rule:evenodd;"
d="M 11379,5736
11379,5303
11477,5303
11477,5736
11379,5736
Z" /> 
<path style="fill:#000000; fill-opacity:1.0; 
stroke:#000000; stroke-width:0; stroke-opacity:1; 
stroke-linecap:round; stroke-linejoin:round;fill-rule:evenodd;"
d="M 11182,5736
11182,5303
11280,5303
11280,5736
11182,5736
Z" /> 
<path style="fill:#000000; fill-opacity:1.0; 
stroke:#000000; stroke-width:0; stroke-opacity:1; 
stroke-linecap:round; stroke-linejoin:round;fill-rule:evenodd;"
d="M 10985,5736
10985,5303
11083,5303
11083,5736
10985,5736
Z" /> 
<path style="fill:#000000; fill-opacity:1.0; 
stroke:#000000; stroke-width:0; stroke-opacity:1; 
stroke-linecap:round; stroke-linejoin:round;fill-rule:evenodd;"
d="M 10788,5736
10788,5303
10887,5303
10887,5736
10788,5736
Z" /> 
<path style="fill:#000000; fill-opacity:1.0; 
stroke:#000000; stroke-width:0; stroke-opacity:1; 
stroke-linecap:round; stroke-linejoin:round;fill-rule:evenodd;"
d="M 10591,5736
10591,5303
10690,5303
10690,5736
10591,5736
Z" /> 
</g>
<g >
</g>
<g style="fill:#000000; fill-opacity:1.0; 
stroke:#000000; stroke-width:0; stroke-opacity:1; 
stroke-linecap:round; stroke-linejoin:round;">
<path style="fill:#000000; fill-opacity:1.0; 
stroke:#000000; stroke-width:0; stroke-opacity:1; 
stroke-linecap:round; stroke-linejoin:round;fill-rule:evenodd;"
d="M 10599,12063
10607,12064
10615,12066
10623,12069
10631,12073
10638,12077
10645,12082
10651,12088
10657,12094
10662,12101
10666,12108
10670,12116
10673,12124
10675,12132
10676,12140
10677,12149
10677,12350
10676,12359
10675,12367
10673,12375
10670,12383
10666,12391
10662,12398
10657,12405
10651,12411
10645,12417
10638,12422
10631,12426
10623,12430
10615,12433
10607,12435
10599,12436
10590,12437
10418,12437
10410,12436
10401,12435
10393,12433
10385,12430
10378,12426
10370,12422
10364,12417
10357,12411
10352,12405
10347,12398
10342,12391
10339,12383
10336,12375
10334,12367
10332,12359
10332,12350
10332,12149
10332,12140
10334,12132
10336,12124
10339,12116
10342,12108
10347,12101
10352,12094
10357,12088
10364,12082
10370,12077
10378,12073
10385,12069
10393,12066
10401,12064
10410,12063
10418,12062
10590,12062
10599,12063
Z" /> 
<path style="fill:#000000; fill-opacity:1.0; 
stroke:#000000; stroke-width:0; stroke-opacity:1; 
stroke-linecap:round; stroke-linejoin:round;fill-rule:evenodd;"
d="M 11219,12063
11227,12064
11236,12066
11243,12069
11251,12073
11258,12077
11265,12082
11271,12088
11277,12094
11282,12101
11286,12108
11290,12116
11293,12124
11295,12132
11296,12140
11297,12149
11297,12350
11296,12359
11295,12367
11293,12375
11290,12383
11286,12391
11282,12398
11277,12405
11271,12411
11265,12417
11258,12422
11251,12426
11243,12430
11236,12433
11227,12435
11219,12436
11211,12437
11038,12437
11030,12436
11021,12435
11013,12433
11005,12430
10998,12426
10990,12422
10984,12417
10977,12411
10972,12405
10967,12398
10962,12391
10959,12383
10956,12375
10954,12367
10953,12359
10952,12350
10952,12149
10953,12140
10954,12132
10956,12124
10959,12116
10962,12108
10967,12101
10972,12094
10977,12088
10984,12082
10990,12077
10998,12073
11005,12069
11013,12066
11021,12064
11030,12063
11038,12062
11211,12062
11219,12063
Z" /> 
</g>
<g >
</g>
<g style="fill:#000000; fill-opacity:1.0; 
stroke:#000000; stroke-width:0; stroke-opacity:1; 
stroke-linecap:round; stroke-linejoin:round;">
<path style="fill:#000000; fill-opacity:1.0; 
stroke:#000000; stroke-width:0; stroke-opacity:1; 
stroke-linecap:round; stroke-linejoin:round;fill-rule:evenodd;"
d="M 3118,10061
2941,10061
2941,9825
3118,9825
3118,10061
Z" /> 
<path style="fill:#000000; fill-opacity:1.0; 
stroke:#000000; stroke-width:0; stroke-opacity:1; 
stroke-linecap:round; stroke-linejoin:round;fill-rule:evenodd;"
d="M 3118,9234
2941,9234
2941,8998
3118,8998
3118,9234
Z" /> 
</g>
<g >
</g>
<g style="fill:#000000; fill-opacity:1.0; 
stroke:#000000; stroke-width:0; stroke-opacity:1; 
stroke-linecap:round; stroke-linejoin:round;">
<path style="fill:#000000; fill-opacity:1.0; 
stroke:#000000; stroke-width:0; stroke-opacity:1; 
stroke-linecap:round; stroke-linejoin:round;fill-rule:evenodd;"
d="M 7821,12324
7830,12326
7839,12328
7848,12331
7856,12335
7865,12340
7872,12346
7879,12352
7885,12359
7891,12367
7896,12375
7900,12383
7903,12392
7905,12401
7907,12410
7907,12420
7907,12779
7907,12789
7905,12798
7903,12807
7900,12816
7896,12824
7891,12832
7885,12840
7879,12847
7872,12853
7865,12859
7856,12864
7848,12868
7839,12871
7830,12873
7821,12875
7811,12875
7619,12875
7610,12875
7601,12873
7591,12871
7583,12868
7574,12864
7566,12859
7558,12853
7551,12847
7545,12840
7539,12832
7535,12824
7531,12816
7527,12807
7525,12798
7524,12789
7523,12779
7523,12420
7524,12410
7525,12401
7527,12392
7531,12383
7535,12375
7539,12367
7545,12359
7551,12352
7558,12346
7566,12340
7574,12335
7583,12331
7591,12328
7601,12326
7610,12324
7619,12324
7811,12324
7821,12324
Z" /> 
<path style="fill:#000000; fill-opacity:1.0; 
stroke:#000000; stroke-width:0; stroke-opacity:1; 
stroke-linecap:round; stroke-linejoin:round;fill-rule:evenodd;"
d="M 8559,12324
8568,12326
8577,12328
8586,12331
8595,12335
8603,12340
8610,12346
8617,12352
8624,12359
8629,12367
8634,12375
8638,12383
8641,12392
8644,12401
8645,12410
8645,12420
8645,12779
8645,12789
8644,12798
8641,12807
8638,12816
8634,12824
8629,12832
8624,12840
8617,12847
8610,12853
8603,12859
8595,12864
8586,12868
8577,12871
8568,12873
8559,12875
8549,12875
8357,12875
8348,12875
8339,12873
8330,12871
8321,12868
8312,12864
8304,12859
8297,12853
8290,12847
8283,12840
8278,12832
8273,12824
8269,12816
8266,12807
8263,12798
8262,12789
8262,12779
8262,12420
8262,12410
8263,12401
8266,12392
8269,12383
8273,12375
8278,12367
8283,12359
8290,12352
8297,12346
8304,12340
8312,12335
8321,12331
8330,12328
8339,12326
8348,12324
8357,12324
8549,12324
8559,12324
Z" /> 
</g>
<g >
</g>
<g style="fill:#000000; fill-opacity:1.0; 
stroke:#000000; stroke-width:0; stroke-opacity:1; 
stroke-linecap:round; stroke-linejoin:round;">
<path style="fill:#000000; fill-opacity:1.0; 
stroke:#000000; stroke-width:0; stroke-opacity:1; 
stroke-linecap:round; stroke-linejoin:round;fill-rule:evenodd;"
d="M 7428,13455
7434,13455
7439,13457
7444,13459
7450,13461
7455,13464
7459,13467
7463,13471
7467,13476
7471,13480
7473,13485
7476,13490
7478,13496
7479,13501
7480,13507
7480,13512
7480,13629
7480,13634
7479,13640
7478,13645
7476,13651
7473,13656
7471,13661
7467,13665
7463,13670
7459,13673
7455,13677
7450,13680
7444,13682
7439,13684
7434,13685
7428,13686
7422,13687
7286,13687
7281,13686
7275,13685
7270,13684
7264,13682
7259,13680
7254,13677
7250,13673
7245,13670
7242,13665
7238,13661
7235,13656
7233,13651
7231,13645
7229,13640
7229,13634
7228,13629
7228,13512
7229,13507
7229,13501
7231,13496
7233,13490
7235,13485
7238,13480
7242,13476
7245,13471
7250,13467
7254,13464
7259,13461
7264,13459
7270,13457
7275,13455
7281,13455
7286,13454
7422,13454
7428,13455
Z" /> 
<path style="fill:#000000; fill-opacity:1.0; 
stroke:#000000; stroke-width:0; stroke-opacity:1; 
stroke-linecap:round; stroke-linejoin:round;fill-rule:evenodd;"
d="M 7428,13073
7434,13074
7439,13075
7444,13077
7450,13079
7455,13082
7459,13086
7463,13089
7467,13094
7471,13098
7473,13103
7476,13108
7478,13114
7479,13119
7480,13125
7480,13130
7480,13247
7480,13252
7479,13258
7478,13263
7476,13269
7473,13274
7471,13279
7467,13283
7463,13288
7459,13292
7455,13295
7450,13298
7444,13300
7439,13302
7434,13304
7428,13304
7422,13305
7286,13305
7281,13304
7275,13304
7270,13302
7264,13300
7259,13298
7254,13295
7250,13292
7245,13288
7242,13283
7238,13279
7235,13274
7233,13269
7231,13263
7229,13258
7229,13252
7228,13247
7228,13130
7229,13125
7229,13119
7231,13114
7233,13108
7235,13103
7238,13098
7242,13094
7245,13089
7250,13086
7254,13082
7259,13079
7264,13077
7270,13075
7275,13074
7281,13073
7286,13072
7422,13072
7428,13073
Z" /> 
</g>
<g >
</g>
<g style="fill:#000000; fill-opacity:1.0; 
stroke:#000000; stroke-width:0; stroke-opacity:1; 
stroke-linecap:round; stroke-linejoin:round;">
<path style="fill:#000000; fill-opacity:1.0; 
stroke:#000000; stroke-width:0; stroke-opacity:1; 
stroke-linecap:round; stroke-linejoin:round;fill-rule:evenodd;"
d="M 7816,13455
7822,13455
7827,13457
7832,13459
7838,13461
7843,13464
7847,13467
7851,13471
7855,13476
7859,13480
7861,13485
7864,13490
7866,13496
7867,13501
7868,13507
7868,13512
7868,13629
7868,13634
7867,13640
7866,13645
7864,13651
7861,13656
7859,13661
7855,13665
7851,13670
7847,13673
7843,13677
7838,13680
7832,13682
7827,13684
7822,13685
7816,13686
7810,13687
7674,13687
7669,13686
7663,13685
7658,13684
7652,13682
7647,13680
7642,13677
7638,13673
7633,13670
7630,13665
7626,13661
7623,13656
7621,13651
7619,13645
7617,13640
7617,13634
7616,13629
7616,13512
7617,13507
7617,13501
7619,13496
7621,13490
7623,13485
7626,13480
7630,13476
7633,13471
7638,13467
7642,13464
7647,13461
7652,13459
7658,13457
7663,13455
7669,13455
7674,13454
7810,13454
7816,13455
Z" /> 
<path style="fill:#000000; fill-opacity:1.0; 
stroke:#000000; stroke-width:0; stroke-opacity:1; 
stroke-linecap:round; stroke-linejoin:round;fill-rule:evenodd;"
d="M 7816,13073
7822,13074
7827,13075
7832,13077
7838,13079
7843,13082
7847,13086
7851,13089
7855,13094
7859,13098
7861,13103
7864,13108
7866,13114
7867,13119
7868,13125
7868,13130
7868,13247
7868,13252
7867,13258
7866,13263
7864,13269
7861,13274
7859,13279
7855,13283
7851,13288
7847,13292
7843,13295
7838,13298
7832,13300
7827,13302
7822,13304
7816,13304
7810,13305
7674,13305
7669,13304
7663,13304
7658,13302
7652,13300
7647,13298
7642,13295
7638,13292
7633,13288
7630,13283
7626,13279
7623,13274
7621,13269
7619,13263
7617,13258
7617,13252
7616,13247
7616,13130
7617,13125
7617,13119
7619,13114
7621,13108
7623,13103
7626,13098
7630,13094
7633,13089
7638,13086
7642,13082
7647,13079
7652,13077
7658,13075
7663,13074
7669,13073
7674,13072
7810,13072
7816,13073
Z" /> 
</g>
<g >
</g>
<g style="fill:#000000; fill-opacity:1.0; 
stroke:#000000; stroke-width:0; stroke-opacity:1; 
stroke-linecap:round; stroke-linejoin:round;">
<path style="fill:#000000; fill-opacity:1.0; 
stroke:#000000; stroke-width:0; stroke-opacity:1; 
stroke-linecap:round; stroke-linejoin:round;fill-rule:evenodd;"
d="M 11299,9854
11305,9855
11310,9856
11316,9858
11321,9860
11326,9863
11330,9867
11334,9871
11338,9875
11342,9879
11345,9884
11347,9889
11349,9895
11350,9900
11351,9906
11351,9912
11351,10047
11351,10053
11350,10059
11349,10064
11347,10070
11345,10075
11342,10080
11338,10084
11334,10088
11330,10092
11326,10096
11321,10099
11316,10101
11310,10103
11305,10104
11299,10105
11293,10105
11177,10105
11172,10105
11166,10104
11160,10103
11155,10101
11150,10099
11145,10096
11140,10092
11136,10088
11132,10084
11129,10080
11126,10075
11124,10070
11122,10064
11120,10059
11119,10053
11119,10047
11119,9912
11119,9906
11120,9900
11122,9895
11124,9889
11126,9884
11129,9879
11132,9875
11136,9871
11140,9867
11145,9863
11150,9860
11155,9858
11160,9856
11166,9855
11172,9854
11177,9854
11293,9854
11299,9854
Z" /> 
<path style="fill:#000000; fill-opacity:1.0; 
stroke:#000000; stroke-width:0; stroke-opacity:1; 
stroke-linecap:round; stroke-linejoin:round;fill-rule:evenodd;"
d="M 10917,9854
10923,9855
10928,9856
10934,9858
10939,9860
10944,9863
10948,9867
10953,9871
10956,9875
10960,9879
10963,9884
10965,9889
10967,9895
10968,9900
10969,9906
10970,9912
10970,10047
10969,10053
10968,10059
10967,10064
10965,10070
10963,10075
10960,10080
10956,10084
10953,10088
10948,10092
10944,10096
10939,10099
10934,10101
10928,10103
10923,10104
10917,10105
10911,10105
10795,10105
10790,10105
10784,10104
10778,10103
10773,10101
10768,10099
10763,10096
10758,10092
10754,10088
10750,10084
10747,10080
10744,10075
10742,10070
10740,10064
10738,10059
10738,10053
10737,10047
10737,9912
10738,9906
10738,9900
10740,9895
10742,9889
10744,9884
10747,9879
10750,9875
10754,9871
10758,9867
10763,9863
10768,9860
10773,9858
10778,9856
10784,9855
10790,9854
10795,9854
10911,9854
10917,9854
Z" /> 
</g>
<g >
</g>
<g style="fill:#000000; fill-opacity:1.0; 
stroke:#000000; stroke-width:0; stroke-opacity:1; 
stroke-linecap:round; stroke-linejoin:round;">
<path style="fill:#000000; fill-opacity:1.0; 
stroke:#000000; stroke-width:0; stroke-opacity:1; 
stroke-linecap:round; stroke-linejoin:round;fill-rule:evenodd;"
d="M 10927,10224
10933,10225
10938,10226
10944,10228
10949,10230
10954,10233
10958,10237
10963,10241
10966,10245
10970,10249
10973,10254
10975,10259
10977,10265
10978,10270
10979,10276
10980,10282
10980,10417
10979,10423
10978,10429
10977,10434
10975,10440
10973,10445
10970,10450
10966,10454
10963,10458
10958,10462
10954,10466
10949,10469
10944,10471
10938,10473
10933,10474
10927,10475
10921,10475
10805,10475
10800,10475
10794,10474
10788,10473
10783,10471
10778,10469
10773,10466
10768,10462
10764,10458
10760,10454
10757,10450
10754,10445
10752,10440
10750,10434
10748,10429
10748,10423
10747,10417
10747,10282
10748,10276
10748,10270
10750,10265
10752,10259
10754,10254
10757,10249
10760,10245
10764,10241
10768,10237
10773,10233
10778,10230
10783,10228
10788,10226
10794,10225
10800,10224
10805,10224
10921,10224
10927,10224
Z" /> 
<path style="fill:#000000; fill-opacity:1.0; 
stroke:#000000; stroke-width:0; stroke-opacity:1; 
stroke-linecap:round; stroke-linejoin:round;fill-rule:evenodd;"
d="M 11309,10224
11315,10225
11320,10226
11326,10228
11331,10230
11336,10233
11340,10237
11344,10241
11348,10245
11352,10249
11355,10254
11357,10259
11359,10265
11360,10270
11361,10276
11361,10282
11361,10417
11361,10423
11360,10429
11359,10434
11357,10440
11355,10445
11352,10450
11348,10454
11344,10458
11340,10462
11336,10466
11331,10469
11326,10471
11320,10473
11315,10474
11309,10475
11303,10475
11187,10475
11182,10475
11176,10474
11170,10473
11165,10471
11160,10469
11155,10466
11150,10462
11146,10458
11142,10454
11139,10450
11136,10445
11134,10440
11132,10434
11130,10429
11129,10423
11129,10417
11129,10282
11129,10276
11130,10270
11132,10265
11134,10259
11136,10254
11139,10249
11142,10245
11146,10241
11150,10237
11155,10233
11160,10230
11165,10228
11170,10226
11176,10225
11182,10224
11187,10224
11303,10224
11309,10224
Z" /> 
</g>
<g >
</g>
<g style="fill:#000000; fill-opacity:1.0; 
stroke:#000000; stroke-width:0; stroke-opacity:1; 
stroke-linecap:round; stroke-linejoin:round;">
<path style="fill:#000000; fill-opacity:1.0; 
stroke:#000000; stroke-width:0; stroke-opacity:1; 
stroke-linecap:round; stroke-linejoin:round;fill-rule:evenodd;"
d="M 2603,9181
2072,9181
2072,9004
2603,9004
2603,9181
Z" /> 
<path style="fill:#000000; fill-opacity:1.0; 
stroke:#000000; stroke-width:0; stroke-opacity:1; 
stroke-linecap:round; stroke-linejoin:round;fill-rule:evenodd;"
d="M 2603,9437
2072,9437
2072,9260
2603,9260
2603,9437
Z" /> 
<path style="fill:#000000; fill-opacity:1.0; 
stroke:#000000; stroke-width:0; stroke-opacity:1; 
stroke-linecap:round; stroke-linejoin:round;fill-rule:evenodd;"
d="M 2603,9693
2072,9693
2072,9516
2603,9516
2603,9693
Z" /> 
<path style="fill:#000000; fill-opacity:1.0; 
stroke:#000000; stroke-width:0; stroke-opacity:1; 
stroke-linecap:round; stroke-linejoin:round;fill-rule:evenodd;"
d="M 2603,9949
2072,9949
2072,9772
2603,9772
2603,9949
Z" /> 
<path style="fill:#000000; fill-opacity:1.0; 
stroke:#000000; stroke-width:0; stroke-opacity:1; 
stroke-linecap:round; stroke-linejoin:round;fill-rule:evenodd;"
d="M 2603,10205
2072,10205
2072,10028
2603,10028
2603,10205
Z" /> 
<path style="fill:#000000; fill-opacity:1.0; 
stroke:#000000; stroke-width:0; stroke-opacity:1; 
stroke-linecap:round; stroke-linejoin:round;fill-rule:evenodd;"
d="M 979,8916
1589,8916
1589,9506
979,9506
979,8916
Z" /> 
<path style="fill:#000000; fill-opacity:1.0; 
stroke:#000000; stroke-width:0; stroke-opacity:1; 
stroke-linecap:round; stroke-linejoin:round;fill-rule:evenodd;"
d="M 979,9703
1589,9703
1589,10293
979,10293
979,9703
Z" /> 
<path style="fill:#000000; fill-opacity:1.0; 
stroke:#000000; stroke-width:0; stroke-opacity:1; 
stroke-linecap:round; stroke-linejoin:round;fill-rule:evenodd;"
d="M 979,8108
1589,8108
1589,8699
979,8699
979,8108
Z" /> 
<path style="fill:#000000; fill-opacity:1.0; 
stroke:#000000; stroke-width:0; stroke-opacity:1; 
stroke-linecap:round; stroke-linejoin:round;fill-rule:evenodd;"
d="M 979,10510
1589,10510
1589,11101
979,11101
979,10510
Z" /> 
</g>
<g >
</g>
<g style="fill:#000000; fill-opacity:1.0; 
stroke:#000000; stroke-width:0; stroke-opacity:1; 
stroke-linecap:round; stroke-linejoin:round;">
<circle cx="3689.88" cy="10053.7" r="66.9289" /> 
</g>
<g style="fill:#000000; fill-opacity:1.0; 
stroke:#000000; stroke-width:39.3701; stroke-opacity:1; 
stroke-linecap:round; stroke-linejoin:round;">
</g>
<g style="fill:#000000; fill-opacity:1.0; 
stroke:#000000; stroke-width:0; stroke-opacity:1; 
stroke-linecap:round; stroke-linejoin:round;">
<circle cx="3689.88" cy="9660" r="66.9289" /> 
</g>
<g style="fill:#000000; fill-opacity:1.0; 
stroke:#000000; stroke-width:39.3701; stroke-opacity:1; 
stroke-linecap:round; stroke-linejoin:round;">
</g>
<g style="fill:#000000; fill-opacity:1.0; 
stroke:#000000; stroke-width:0; stroke-opacity:1; 
stroke-linecap:round; stroke-linejoin:round;">
<circle cx="3689.88" cy="9266.3" r="66.9289" /> 
</g>
<g style="fill:#000000; fill-opacity:1.0; 
stroke:#000000; stroke-width:39.3701; stroke-opacity:1; 
stroke-linecap:round; stroke-linejoin:round;">
</g>
<g style="fill:#000000; fill-opacity:1.0; 
stroke:#000000; stroke-width:0; stroke-opacity:1; 
stroke-linecap:round; stroke-linejoin:round;">
<circle cx="4004.84" cy="10053.7" r="66.9289" /> 
</g>
<g style="fill:#000000; fill-opacity:1.0; 
stroke:#000000; stroke-width:39.3701; stroke-opacity:1; 
stroke-linecap:round; stroke-linejoin:round;">
</g>
<g style="fill:#000000; fill-opacity:1.0; 
stroke:#000000; stroke-width:0; stroke-opacity:1; 
stroke-linecap:round; stroke-linejoin:round;">
<circle cx="4004.84" cy="9660" r="66.9289" /> 
</g>
<g style="fill:#000000; fill-opacity:1.0; 
stroke:#000000; stroke-width:39.3701; stroke-opacity:1; 
stroke-linecap:round; stroke-linejoin:round;">
</g>
<g style="fill:#000000; fill-opacity:1.0; 
stroke:#000000; stroke-width:0; stroke-opacity:1; 
stroke-linecap:round; stroke-linejoin:round;">
<circle cx="4004.84" cy="9266.3" r="66.9289" /> 
</g>
<g style="fill:#000000; fill-opacity:1.0; 
stroke:#000000; stroke-width:39.3701; stroke-opacity:1; 
stroke-linecap:round; stroke-linejoin:round;">
</g>
<g style="fill:#000000; fill-opacity:1.0; 
stroke:#000000; stroke-width:0; stroke-opacity:1; 
stroke-linecap:round; stroke-linejoin:round;">
<circle cx="4319.8" cy="10053.7" r="66.9289" /> 
</g>
<g style="fill:#000000; fill-opacity:1.0; 
stroke:#000000; stroke-width:39.3701; stroke-opacity:1; 
stroke-linecap:round; stroke-linejoin:round;">
</g>
<g style="fill:#000000; fill-opacity:1.0; 
stroke:#000000; stroke-width:0; stroke-opacity:1; 
stroke-linecap:round; stroke-linejoin:round;">
<circle cx="4319.8" cy="9660" r="66.9289" /> 
</g>
<g style="fill:#000000; fill-opacity:1.0; 
stroke:#000000; stroke-width:39.3701; stroke-opacity:1; 
stroke-linecap:round; stroke-linejoin:round;">
</g>
<g style="fill:#000000; fill-opacity:1.0; 
stroke:#000000; stroke-width:0; stroke-opacity:1; 
stroke-linecap:round; stroke-linejoin:round;">
<circle cx="4319.8" cy="9266.3" r="66.9289" /> 
</g>
<g style="fill:#000000; fill-opacity:1.0; 
stroke:#000000; stroke-width:39.3701; stroke-opacity:1; 
stroke-linecap:round; stroke-linejoin:round;">
</g>
<g >
</g>
<g >
</g>
<g style="fill:#000000; fill-opacity:1.0; 
stroke:#000000; stroke-width:39.3701; stroke-opacity:1; 
stroke-linecap:round; stroke-linejoin:round;">
</g>
<g style="fill:#000000; fill-opacity:1.0; 
stroke:#000000; stroke-width:0; stroke-opacity:1; 
stroke-linecap:round; stroke-linejoin:round;">
<path style="fill:#000000; fill-opacity:1.0; 
stroke:#000000; stroke-width:0; stroke-opacity:1; 
stroke-linecap:round; stroke-linejoin:round;fill-rule:evenodd;"
d="M 9128,13463
9134,13463
9139,13465
9144,13467
9150,13469
9155,13472
9159,13475
9163,13479
9167,13484
9171,13488
9173,13493
9176,13498
9178,13504
9179,13509
9180,13515
9180,13520
9180,13637
9180,13642
9179,13648
9178,13653
9176,13659
9173,13664
9171,13669
9167,13673
9163,13678
9159,13681
9155,13685
9150,13688
9144,13690
9139,13692
9134,13693
9128,13694
9122,13695
8986,13695
8981,13694
8975,13693
8970,13692
8964,13690
8959,13688
8954,13685
8950,13681
8945,13678
8942,13673
8938,13669
8935,13664
8933,13659
8931,13653
8929,13648
8929,13642
8928,13637
8928,13520
8929,13515
8929,13509
8931,13504
8933,13498
8935,13493
8938,13488
8942,13484
8945,13479
8950,13475
8954,13472
8959,13469
8964,13467
8970,13465
8975,13463
8981,13463
8986,13462
9122,13462
9128,13463
Z" /> 
<path style="fill:#000000; fill-opacity:1.0; 
stroke:#000000; stroke-width:0; stroke-opacity:1; 
stroke-linecap:round; stroke-linejoin:round;fill-rule:evenodd;"
d="M 9128,13081
9134,13082
9139,13083
9144,13085
9150,13087
9155,13090
9159,13094
9163,13097
9167,13102
9171,13106
9173,13111
9176,13116
9178,13122
9179,13127
9180,13133
9180,13138
9180,13255
9180,13260
9179,13266
9178,13271
9176,13277
9173,13282
9171,13287
9167,13291
9163,13296
9159,13300
9155,13303
9150,13306
9144,13308
9139,13310
9134,13312
9128,13312
9122,13313
8986,13313
8981,13312
8975,13312
8970,13310
8964,13308
8959,13306
8954,13303
8950,13300
8945,13296
8942,13291
8938,13287
8935,13282
8933,13277
8931,13271
8929,13266
8929,13260
8928,13255
8928,13138
8929,13133
8929,13127
8931,13122
8933,13116
8935,13111
8938,13106
8942,13102
8945,13097
8950,13094
8954,13090
8959,13087
8964,13085
8970,13083
8975,13082
8981,13081
8986,13080
9122,13080
9128,13081
Z" /> 
</g>
<g >
</g>
<g style="fill:#000000; fill-opacity:1.0; 
stroke:#000000; stroke-width:0; stroke-opacity:1; 
stroke-linecap:round; stroke-linejoin:round;">
<path style="fill:#000000; fill-opacity:1.0; 
stroke:#000000; stroke-width:0; stroke-opacity:1; 
stroke-linecap:round; stroke-linejoin:round;fill-rule:evenodd;"
d="M 5125,12922
5125,12567
5479,12567
5479,12922
5125,12922
Z" /> 
<path style="fill:#000000; fill-opacity:1.0; 
stroke:#000000; stroke-width:0; stroke-opacity:1; 
stroke-linecap:round; stroke-linejoin:round;fill-rule:evenodd;"
d="M 5125,13552
5125,13197
5479,13197
5479,13552
5125,13552
Z" /> 
<path style="fill:#000000; fill-opacity:1.0; 
stroke:#000000; stroke-width:0; stroke-opacity:1; 
stroke-linecap:round; stroke-linejoin:round;fill-rule:evenodd;"
d="M 6739,13552
6739,13197
7094,13197
7094,13552
6739,13552
Z" /> 
<path style="fill:#000000; fill-opacity:1.0; 
stroke:#000000; stroke-width:0; stroke-opacity:1; 
stroke-linecap:round; stroke-linejoin:round;fill-rule:evenodd;"
d="M 6739,12922
6739,12567
7094,12567
7094,12922
6739,12922
Z" /> 
</g>
<g >
</g>
<g style="fill:#000000; fill-opacity:1.0; 
stroke:#000000; stroke-width:0; stroke-opacity:1; 
stroke-linecap:round; stroke-linejoin:round;">
<path style="fill:#000000; fill-opacity:1.0; 
stroke:#000000; stroke-width:0; stroke-opacity:1; 
stroke-linecap:round; stroke-linejoin:round;fill-rule:evenodd;"
d="M 10058,11763
10064,11764
10069,11765
10074,11767
10080,11769
10085,11772
10089,11776
10093,11779
10097,11784
10101,11788
10103,11793
10106,11798
10108,11804
10109,11809
10110,11815
10110,11820
10110,11937
10110,11942
10109,11948
10108,11953
10106,11959
10103,11964
10101,11969
10097,11973
10093,11978
10089,11982
10085,11985
10080,11988
10074,11990
10069,11992
10064,11994
10058,11994
10052,11995
9916,11995
9911,11994
9905,11994
9900,11992
9894,11990
9889,11988
9884,11985
9880,11982
9875,11978
9872,11973
9868,11969
9865,11964
9863,11959
9861,11953
9859,11948
9859,11942
9858,11937
9858,11820
9859,11815
9859,11809
9861,11804
9863,11798
9865,11793
9868,11788
9872,11784
9875,11779
9880,11776
9884,11772
9889,11769
9894,11767
9900,11765
9905,11764
9911,11763
9916,11762
10052,11762
10058,11763
Z" /> 
<path style="fill:#000000; fill-opacity:1.0; 
stroke:#000000; stroke-width:0; stroke-opacity:1; 
stroke-linecap:round; stroke-linejoin:round;fill-rule:evenodd;"
d="M 10058,12145
10064,12145
10069,12147
10074,12149
10080,12151
10085,12154
10089,12157
10093,12161
10097,12166
10101,12170
10103,12175
10106,12180
10108,12186
10109,12191
10110,12197
10110,12202
10110,12319
10110,12324
10109,12330
10108,12335
10106,12341
10103,12346
10101,12351
10097,12355
10093,12360
10089,12363
10085,12367
10080,12370
10074,12372
10069,12374
10064,12375
10058,12376
10052,12377
9916,12377
9911,12376
9905,12375
9900,12374
9894,12372
9889,12370
9884,12367
9880,12363
9875,12360
9872,12355
9868,12351
9865,12346
9863,12341
9861,12335
9859,12330
9859,12324
9858,12319
9858,12202
9859,12197
9859,12191
9861,12186
9863,12180
9865,12175
9868,12170
9872,12166
9875,12161
9880,12157
9884,12154
9889,12151
9894,12149
9900,12147
9905,12145
9911,12145
9916,12144
10052,12144
10058,12145
Z" /> 
</g>
<g >
</g>
<g >
</g>
<g >
</g>
<g >
</g>
<g >
</g>
<g >
</g>
<g style="fill:#000000; fill-opacity:1.0; 
stroke:#000000; stroke-width:0; stroke-opacity:1; 
stroke-linecap:round; stroke-linejoin:round;">
<path style="fill:#000000; fill-opacity:1.0; 
stroke:#000000; stroke-width:0; stroke-opacity:1; 
stroke-linecap:round; stroke-linejoin:round;fill-rule:evenodd;"
d="M 12899,11284
12905,11285
12910,11286
12916,11288
12921,11290
12926,11293
12930,11297
12934,11301
12938,11305
12942,11309
12945,11314
12947,11319
12949,11325
12950,11330
12951,11336
12951,11342
12951,11477
12951,11483
12950,11489
12949,11494
12947,11500
12945,11505
12942,11510
12938,11514
12934,11518
12930,11522
12926,11526
12921,11529
12916,11531
12910,11533
12905,11534
12899,11535
12893,11535
12777,11535
12772,11535
12766,11534
12760,11533
12755,11531
12750,11529
12745,11526
12740,11522
12736,11518
12732,11514
12729,11510
12726,11505
12724,11500
12722,11494
12720,11489
12719,11483
12719,11477
12719,11342
12719,11336
12720,11330
12722,11325
12724,11319
12726,11314
12729,11309
12732,11305
12736,11301
12740,11297
12745,11293
12750,11290
12755,11288
12760,11286
12766,11285
12772,11284
12777,11284
12893,11284
12899,11284
Z" /> 
<path style="fill:#000000; fill-opacity:1.0; 
stroke:#000000; stroke-width:0; stroke-opacity:1; 
stroke-linecap:round; stroke-linejoin:round;fill-rule:evenodd;"
d="M 12517,11284
12523,11285
12528,11286
12534,11288
12539,11290
12544,11293
12548,11297
12553,11301
12556,11305
12560,11309
12563,11314
12565,11319
12567,11325
12568,11330
12569,11336
12570,11342
12570,11477
12569,11483
12568,11489
12567,11494
12565,11500
12563,11505
12560,11510
12556,11514
12553,11518
12548,11522
12544,11526
12539,11529
12534,11531
12528,11533
12523,11534
12517,11535
12511,11535
12395,11535
12390,11535
12384,11534
12378,11533
12373,11531
12368,11529
12363,11526
12358,11522
12354,11518
12350,11514
12347,11510
12344,11505
12342,11500
12340,11494
12338,11489
12338,11483
12337,11477
12337,11342
12338,11336
12338,11330
12340,11325
12342,11319
12344,11314
12347,11309
12350,11305
12354,11301
12358,11297
12363,11293
12368,11290
12373,11288
12378,11286
12384,11285
12390,11284
12395,11284
12511,11284
12517,11284
Z" /> 
</g>
<g >
</g>
<g style="fill:#000000; fill-opacity:1.0; 
stroke:#000000; stroke-width:0; stroke-opacity:1; 
stroke-linecap:round; stroke-linejoin:round;">
<path style="fill:#000000; fill-opacity:1.0; 
stroke:#000000; stroke-width:0; stroke-opacity:1; 
stroke-linecap:round; stroke-linejoin:round;fill-rule:evenodd;"
d="M 5898,9224
5904,9225
5909,9226
5915,9228
5920,9230
5925,9233
5929,9237
5933,9241
5937,9245
5941,9249
5944,9254
5946,9259
5948,9265
5949,9270
5950,9276
5950,9282
5950,9417
5950,9423
5949,9429
5948,9434
5946,9440
5944,9445
5941,9450
5937,9454
5933,9458
5929,9462
5925,9466
5920,9469
5915,9471
5909,9473
5904,9474
5898,9475
5892,9475
5776,9475
5771,9475
5765,9474
5759,9473
5754,9471
5749,9469
5744,9466
5739,9462
5735,9458
5731,9454
5728,9450
5725,9445
5723,9440
5721,9434
5719,9429
5718,9423
5718,9417
5718,9282
5718,9276
5719,9270
5721,9265
5723,9259
5725,9254
5728,9249
5731,9245
5735,9241
5739,9237
5744,9233
5749,9230
5754,9228
5759,9226
5765,9225
5771,9224
5776,9224
5892,9224
5898,9224
Z" /> 
<path style="fill:#000000; fill-opacity:1.0; 
stroke:#000000; stroke-width:0; stroke-opacity:1; 
stroke-linecap:round; stroke-linejoin:round;fill-rule:evenodd;"
d="M 6280,9224
6286,9225
6291,9226
6297,9228
6302,9230
6307,9233
6311,9237
6315,9241
6319,9245
6323,9249
6326,9254
6328,9259
6330,9265
6331,9270
6332,9276
6332,9282
6332,9417
6332,9423
6331,9429
6330,9434
6328,9440
6326,9445
6323,9450
6319,9454
6315,9458
6311,9462
6307,9466
6302,9469
6297,9471
6291,9473
6286,9474
6280,9475
6274,9475
6158,9475
6152,9475
6147,9474
6141,9473
6136,9471
6131,9469
6126,9466
6121,9462
6117,9458
6113,9454
6110,9450
6107,9445
6105,9440
6103,9434
6101,9429
6100,9423
6100,9417
6100,9282
6100,9276
6101,9270
6103,9265
6105,9259
6107,9254
6110,9249
6113,9245
6117,9241
6121,9237
6126,9233
6131,9230
6136,9228
6141,9226
6147,9225
6152,9224
6158,9224
6274,9224
6280,9224
Z" /> 
</g>
<g >
</g>
<g style="fill:#000000; fill-opacity:1.0; 
stroke:#000000; stroke-width:0; stroke-opacity:1; 
stroke-linecap:round; stroke-linejoin:round;">
<path style="fill:#000000; fill-opacity:1.0; 
stroke:#000000; stroke-width:0; stroke-opacity:1; 
stroke-linecap:round; stroke-linejoin:round;fill-rule:evenodd;"
d="M 6279,8844
6285,8845
6290,8846
6296,8848
6301,8850
6306,8853
6310,8857
6314,8861
6318,8865
6322,8869
6325,8874
6327,8879
6329,8885
6330,8890
6331,8896
6331,8902
6331,9037
6331,9043
6330,9049
6329,9054
6327,9060
6325,9065
6322,9070
6318,9074
6314,9078
6310,9082
6306,9086
6301,9089
6296,9091
6290,9093
6285,9094
6279,9095
6273,9095
6157,9095
6152,9095
6146,9094
6140,9093
6135,9091
6130,9089
6125,9086
6120,9082
6116,9078
6112,9074
6109,9070
6106,9065
6104,9060
6102,9054
6100,9049
6099,9043
6099,9037
6099,8902
6099,8896
6100,8890
6102,8885
6104,8879
6106,8874
6109,8869
6112,8865
6116,8861
6120,8857
6125,8853
6130,8850
6135,8848
6140,8846
6146,8845
6152,8844
6157,8844
6273,8844
6279,8844
Z" /> 
<path style="fill:#000000; fill-opacity:1.0; 
stroke:#000000; stroke-width:0; stroke-opacity:1; 
stroke-linecap:round; stroke-linejoin:round;fill-rule:evenodd;"
d="M 5897,8844
5903,8845
5908,8846
5914,8848
5919,8850
5924,8853
5928,8857
5933,8861
5936,8865
5940,8869
5943,8874
5945,8879
5947,8885
5948,8890
5949,8896
5950,8902
5950,9037
5949,9043
5948,9049
5947,9054
5945,9060
5943,9065
5940,9070
5936,9074
5933,9078
5928,9082
5924,9086
5919,9089
5914,9091
5908,9093
5903,9094
5897,9095
5891,9095
5775,9095
5770,9095
5764,9094
5758,9093
5753,9091
5748,9089
5743,9086
5738,9082
5734,9078
5730,9074
5727,9070
5724,9065
5722,9060
5720,9054
5718,9049
5718,9043
5717,9037
5717,8902
5718,8896
5718,8890
5720,8885
5722,8879
5724,8874
5727,8869
5730,8865
5734,8861
5738,8857
5743,8853
5748,8850
5753,8848
5758,8846
5764,8845
5770,8844
5775,8844
5891,8844
5897,8844
Z" /> 
</g>
<g >
</g>
<g >
</g>
<g >
</g>
</g> 
</svg>
