M48
INCH,TZ
T1C0.0118
T2C0.0354
T3C0.0394
T4C0.0472
%
G90
G05
T1
X31500Y-33600
X31500Y-35425
X31500Y-34525
X31525Y-36450
X32248Y-31673
X32250Y-31900
X32250Y-32150
X32250Y-32500
X32250Y-32975
X32250Y-33925
X32250Y-34200
X32250Y-34550
X32250Y-34823
X32250Y-35050
X32250Y-35327
X32250Y-35700
X32253Y-32727
X32450Y-36050
X32500Y-37075
X32500Y-37575
X32500Y-38050
X32600Y-40150
X32600Y-40402
X32950Y-31400
X32950Y-31800
X32950Y-32575
X32950Y-33175
X32950Y-34887
X32952Y-34449
X33000Y-33775
X33050Y-31075
X33050Y-39375
X33100Y-40658
X33425Y-34525
X33450Y-35100
X33455Y-33906
X33455Y-35331
X33473Y-32198
X33475Y-31950
X33475Y-32700
X33475Y-32975
X33475Y-33350
X33520Y-31369
X34050Y-37075
X34050Y-37575
X34175Y-40675
X34300Y-35200
X34306Y-32075
X34306Y-32850
X34327Y-31750
X34350Y-38650
X34381Y-35736
X34475Y-33925
X34600Y-40000
X34675Y-34500
X34675Y-35150
X34725Y-32125
X34725Y-32775
X34775Y-38475
X35025Y-34825
X35055Y-32450
X35400Y-34650
X35400Y-35150
X35425Y-32275
X35425Y-32775
X35650Y-40000
X35700Y-40700
X35775Y-32850
X35775Y-33625
X35775Y-34675
X35775Y-35200
X35775Y-31075
X35800Y-32325
X36093Y-37507
X36100Y-37100
X36100Y-37900
X36100Y-38300
X36100Y-38700
X36150Y-40000
X36391Y-37300
X36400Y-37700
X36400Y-38100
X36400Y-38900
X36405Y-38480
X36600Y-34950
X36650Y-32575
X36650Y-33175
X36650Y-33525
X36700Y-31650
X36700Y-31975
X36700Y-35450
X36700Y-35850
X36708Y-39490
X36750Y-39900
X36763Y-36481
X36800Y-41325
X37050Y-40250
X37075Y-40650
X37150Y-38900
X37177Y-36525
X37200Y-37325
X37375Y-36250
X37375Y-39875
X37575Y-36525
X37675Y-38900
X37750Y-39875
X37775Y-36250
X37975Y-36525
X38100Y-38200
X38150Y-38900
X38150Y-39875
X38200Y-41050
X38375Y-36525
X38400Y-35050
X38401Y-39875
X38475Y-37275
X38478Y-31521
X38550Y-36225
X38575Y-32300
X38749Y-40239
X38750Y-36525
X38750Y-39875
X38800Y-38325
X38875Y-39125
X38900Y-42050
X38950Y-36225
X39025Y-31475
X39100Y-40450
X39100Y-40700
X39120Y-39956
X39125Y-32325
X39150Y-36500
X39350Y-32925
X39350Y-33875
X39400Y-39625
X39450Y-40775
X39475Y-32350
X39575Y-35050
X39750Y-37100
X39750Y-37500
X39750Y-37900
X39750Y-38300
X39750Y-38900
X39750Y-39275
X39750Y-38673
X39875Y-41700
X40050Y-37300
X40050Y-37700
X40050Y-38100
X40075Y-39275
X40175Y-31075
X40300Y-33300
X40875Y-34550
X40875Y-40850
X40888Y-31252
X40900Y-39125
X41450Y-39450
X44550Y-42000
X45075Y-39700
X45100Y-38225
X45925Y-37550
X45925Y-39275
X46125Y-38400
X46525Y-30925
X46525Y-31725
X46525Y-32500
X46525Y-38025
X46525Y-38800
X46525Y-39600
X46525Y-40375
X46525Y-41175
X46550Y-30150
X47100Y-33625
X47100Y-34425
X47125Y-35325
T2
X32160Y-39405
X32160Y-41374
T3
X35450Y-30300
X36450Y-30300
T4
X31097Y-39011
X31097Y-41767
T0
M30
