%TF.GenerationSoftware,KiCad,Pcbnew,(5.1.4)-1*%
%TF.CreationDate,2019-10-27T14:05:37-07:00*%
%TF.ProjectId,spriteSAMD,73707269-7465-4534-914d-442e6b696361,rev?*%
%TF.SameCoordinates,Original*%
%TF.FileFunction,Legend,Bot*%
%TF.FilePolarity,Positive*%
%FSLAX46Y46*%
G04 Gerber Fmt 4.6, Leading zero omitted, Abs format (unit mm)*
G04 Created by KiCad (PCBNEW (5.1.4)-1) date 2019-10-27 14:05:37*
%MOMM*%
%LPD*%
G04 APERTURE LIST*
%ADD10C,0.150000*%
%ADD11C,0.100000*%
G04 APERTURE END LIST*
D10*
X166534838Y-83859666D02*
X166058647Y-83859666D01*
X166630076Y-84145380D02*
X166296742Y-83145380D01*
X165963409Y-84145380D01*
X165677695Y-83859666D02*
X165201504Y-83859666D01*
X165772933Y-84145380D02*
X165439600Y-83145380D01*
X165106266Y-84145380D01*
X164820552Y-83240619D02*
X164772933Y-83193000D01*
X164677695Y-83145380D01*
X164439600Y-83145380D01*
X164344361Y-83193000D01*
X164296742Y-83240619D01*
X164249123Y-83335857D01*
X164249123Y-83431095D01*
X164296742Y-83573952D01*
X164868171Y-84145380D01*
X164249123Y-84145380D01*
X163915790Y-83145380D02*
X163296742Y-83145380D01*
X163630076Y-83526333D01*
X163487219Y-83526333D01*
X163391980Y-83573952D01*
X163344361Y-83621571D01*
X163296742Y-83716809D01*
X163296742Y-83954904D01*
X163344361Y-84050142D01*
X163391980Y-84097761D01*
X163487219Y-84145380D01*
X163772933Y-84145380D01*
X163868171Y-84097761D01*
X163915790Y-84050142D01*
X162439600Y-83145380D02*
X162630076Y-83145380D01*
X162725314Y-83193000D01*
X162772933Y-83240619D01*
X162868171Y-83383476D01*
X162915790Y-83573952D01*
X162915790Y-83954904D01*
X162868171Y-84050142D01*
X162820552Y-84097761D01*
X162725314Y-84145380D01*
X162534838Y-84145380D01*
X162439600Y-84097761D01*
X162391980Y-84050142D01*
X162344361Y-83954904D01*
X162344361Y-83716809D01*
X162391980Y-83621571D01*
X162439600Y-83573952D01*
X162534838Y-83526333D01*
X162725314Y-83526333D01*
X162820552Y-83573952D01*
X162868171Y-83621571D01*
X162915790Y-83716809D01*
X166608923Y-80986380D02*
X166037495Y-80986380D01*
X166323209Y-81986380D02*
X166323209Y-80986380D01*
X165704161Y-81986380D02*
X165704161Y-81319714D01*
X165704161Y-80986380D02*
X165751780Y-81034000D01*
X165704161Y-81081619D01*
X165656542Y-81034000D01*
X165704161Y-80986380D01*
X165704161Y-81081619D01*
X165227971Y-81986380D02*
X165227971Y-81319714D01*
X165227971Y-81414952D02*
X165180352Y-81367333D01*
X165085114Y-81319714D01*
X164942257Y-81319714D01*
X164847019Y-81367333D01*
X164799400Y-81462571D01*
X164799400Y-81986380D01*
X164799400Y-81462571D02*
X164751780Y-81367333D01*
X164656542Y-81319714D01*
X164513685Y-81319714D01*
X164418447Y-81367333D01*
X164370828Y-81462571D01*
X164370828Y-81986380D01*
X163275590Y-80986380D02*
X162942257Y-81986380D01*
X162608923Y-80986380D01*
X162275590Y-81986380D02*
X162275590Y-81319714D01*
X162275590Y-81510190D02*
X162227971Y-81414952D01*
X162180352Y-81367333D01*
X162085114Y-81319714D01*
X161989876Y-81319714D01*
X161227971Y-81986380D02*
X161227971Y-81462571D01*
X161275590Y-81367333D01*
X161370828Y-81319714D01*
X161561304Y-81319714D01*
X161656542Y-81367333D01*
X161227971Y-81938761D02*
X161323209Y-81986380D01*
X161561304Y-81986380D01*
X161656542Y-81938761D01*
X161704161Y-81843523D01*
X161704161Y-81748285D01*
X161656542Y-81653047D01*
X161561304Y-81605428D01*
X161323209Y-81605428D01*
X161227971Y-81557809D01*
X160751780Y-81986380D02*
X160751780Y-80986380D01*
X160656542Y-81605428D02*
X160370828Y-81986380D01*
X160370828Y-81319714D02*
X160751780Y-81700666D01*
X159513685Y-81986380D02*
X159513685Y-81462571D01*
X159561304Y-81367333D01*
X159656542Y-81319714D01*
X159847019Y-81319714D01*
X159942257Y-81367333D01*
X159513685Y-81938761D02*
X159608923Y-81986380D01*
X159847019Y-81986380D01*
X159942257Y-81938761D01*
X159989876Y-81843523D01*
X159989876Y-81748285D01*
X159942257Y-81653047D01*
X159847019Y-81605428D01*
X159608923Y-81605428D01*
X159513685Y-81557809D01*
X159085114Y-81938761D02*
X158989876Y-81986380D01*
X158799400Y-81986380D01*
X158704161Y-81938761D01*
X158656542Y-81843523D01*
X158656542Y-81795904D01*
X158704161Y-81700666D01*
X158799400Y-81653047D01*
X158942257Y-81653047D01*
X159037495Y-81605428D01*
X159085114Y-81510190D01*
X159085114Y-81462571D01*
X159037495Y-81367333D01*
X158942257Y-81319714D01*
X158799400Y-81319714D01*
X158704161Y-81367333D01*
X157513685Y-81081619D02*
X157466066Y-81034000D01*
X157370828Y-80986380D01*
X157132733Y-80986380D01*
X157037495Y-81034000D01*
X156989876Y-81081619D01*
X156942257Y-81176857D01*
X156942257Y-81272095D01*
X156989876Y-81414952D01*
X157561304Y-81986380D01*
X156942257Y-81986380D01*
X156323209Y-80986380D02*
X156227971Y-80986380D01*
X156132733Y-81034000D01*
X156085114Y-81081619D01*
X156037495Y-81176857D01*
X155989876Y-81367333D01*
X155989876Y-81605428D01*
X156037495Y-81795904D01*
X156085114Y-81891142D01*
X156132733Y-81938761D01*
X156227971Y-81986380D01*
X156323209Y-81986380D01*
X156418447Y-81938761D01*
X156466066Y-81891142D01*
X156513685Y-81795904D01*
X156561304Y-81605428D01*
X156561304Y-81367333D01*
X156513685Y-81176857D01*
X156466066Y-81081619D01*
X156418447Y-81034000D01*
X156323209Y-80986380D01*
X155037495Y-81986380D02*
X155608923Y-81986380D01*
X155323209Y-81986380D02*
X155323209Y-80986380D01*
X155418447Y-81129238D01*
X155513685Y-81224476D01*
X155608923Y-81272095D01*
X154561304Y-81986380D02*
X154370828Y-81986380D01*
X154275590Y-81938761D01*
X154227971Y-81891142D01*
X154132733Y-81748285D01*
X154085114Y-81557809D01*
X154085114Y-81176857D01*
X154132733Y-81081619D01*
X154180352Y-81034000D01*
X154275590Y-80986380D01*
X154466066Y-80986380D01*
X154561304Y-81034000D01*
X154608923Y-81081619D01*
X154656542Y-81176857D01*
X154656542Y-81414952D01*
X154608923Y-81510190D01*
X154561304Y-81557809D01*
X154466066Y-81605428D01*
X154275590Y-81605428D01*
X154180352Y-81557809D01*
X154132733Y-81510190D01*
X154085114Y-81414952D01*
X165972333Y-79649580D02*
X166305666Y-79173390D01*
X166543761Y-79649580D02*
X166543761Y-78649580D01*
X166162809Y-78649580D01*
X166067571Y-78697200D01*
X166019952Y-78744819D01*
X165972333Y-78840057D01*
X165972333Y-78982914D01*
X166019952Y-79078152D01*
X166067571Y-79125771D01*
X166162809Y-79173390D01*
X166543761Y-79173390D01*
X165210428Y-79125771D02*
X165543761Y-79125771D01*
X165543761Y-79649580D02*
X165543761Y-78649580D01*
X165067571Y-78649580D01*
X163924714Y-79649580D02*
X163924714Y-78649580D01*
X163591380Y-79363866D01*
X163258047Y-78649580D01*
X163258047Y-79649580D01*
X162639000Y-79649580D02*
X162734238Y-79601961D01*
X162781857Y-79554342D01*
X162829476Y-79459104D01*
X162829476Y-79173390D01*
X162781857Y-79078152D01*
X162734238Y-79030533D01*
X162639000Y-78982914D01*
X162496142Y-78982914D01*
X162400904Y-79030533D01*
X162353285Y-79078152D01*
X162305666Y-79173390D01*
X162305666Y-79459104D01*
X162353285Y-79554342D01*
X162400904Y-79601961D01*
X162496142Y-79649580D01*
X162639000Y-79649580D01*
X161448523Y-79649580D02*
X161448523Y-78649580D01*
X161448523Y-79601961D02*
X161543761Y-79649580D01*
X161734238Y-79649580D01*
X161829476Y-79601961D01*
X161877095Y-79554342D01*
X161924714Y-79459104D01*
X161924714Y-79173390D01*
X161877095Y-79078152D01*
X161829476Y-79030533D01*
X161734238Y-78982914D01*
X161543761Y-78982914D01*
X161448523Y-79030533D01*
X160543761Y-78982914D02*
X160543761Y-79649580D01*
X160972333Y-78982914D02*
X160972333Y-79506723D01*
X160924714Y-79601961D01*
X160829476Y-79649580D01*
X160686619Y-79649580D01*
X160591380Y-79601961D01*
X160543761Y-79554342D01*
X159924714Y-79649580D02*
X160019952Y-79601961D01*
X160067571Y-79506723D01*
X160067571Y-78649580D01*
X159162809Y-79601961D02*
X159258047Y-79649580D01*
X159448523Y-79649580D01*
X159543761Y-79601961D01*
X159591380Y-79506723D01*
X159591380Y-79125771D01*
X159543761Y-79030533D01*
X159448523Y-78982914D01*
X159258047Y-78982914D01*
X159162809Y-79030533D01*
X159115190Y-79125771D01*
X159115190Y-79221009D01*
X159591380Y-79316247D01*
X158067571Y-78649580D02*
X157496142Y-78649580D01*
X157781857Y-79649580D02*
X157781857Y-78649580D01*
X156781857Y-79601961D02*
X156877095Y-79649580D01*
X157067571Y-79649580D01*
X157162809Y-79601961D01*
X157210428Y-79506723D01*
X157210428Y-79125771D01*
X157162809Y-79030533D01*
X157067571Y-78982914D01*
X156877095Y-78982914D01*
X156781857Y-79030533D01*
X156734238Y-79125771D01*
X156734238Y-79221009D01*
X157210428Y-79316247D01*
X156353285Y-79601961D02*
X156258047Y-79649580D01*
X156067571Y-79649580D01*
X155972333Y-79601961D01*
X155924714Y-79506723D01*
X155924714Y-79459104D01*
X155972333Y-79363866D01*
X156067571Y-79316247D01*
X156210428Y-79316247D01*
X156305666Y-79268628D01*
X156353285Y-79173390D01*
X156353285Y-79125771D01*
X156305666Y-79030533D01*
X156210428Y-78982914D01*
X156067571Y-78982914D01*
X155972333Y-79030533D01*
X155639000Y-78982914D02*
X155258047Y-78982914D01*
X155496142Y-78649580D02*
X155496142Y-79506723D01*
X155448523Y-79601961D01*
X155353285Y-79649580D01*
X155258047Y-79649580D01*
X154924714Y-79649580D02*
X154924714Y-78649580D01*
X154924714Y-79030533D02*
X154829476Y-78982914D01*
X154639000Y-78982914D01*
X154543761Y-79030533D01*
X154496142Y-79078152D01*
X154448523Y-79173390D01*
X154448523Y-79459104D01*
X154496142Y-79554342D01*
X154543761Y-79601961D01*
X154639000Y-79649580D01*
X154829476Y-79649580D01*
X154924714Y-79601961D01*
X153639000Y-79601961D02*
X153734238Y-79649580D01*
X153924714Y-79649580D01*
X154019952Y-79601961D01*
X154067571Y-79506723D01*
X154067571Y-79125771D01*
X154019952Y-79030533D01*
X153924714Y-78982914D01*
X153734238Y-78982914D01*
X153639000Y-79030533D01*
X153591380Y-79125771D01*
X153591380Y-79221009D01*
X154067571Y-79316247D01*
X152734238Y-79649580D02*
X152734238Y-78649580D01*
X152734238Y-79601961D02*
X152829476Y-79649580D01*
X153019952Y-79649580D01*
X153115190Y-79601961D01*
X153162809Y-79554342D01*
X153210428Y-79459104D01*
X153210428Y-79173390D01*
X153162809Y-79078152D01*
X153115190Y-79030533D01*
X153019952Y-78982914D01*
X152829476Y-78982914D01*
X152734238Y-79030533D01*
D11*
X145999200Y-65938400D02*
X170408600Y-65938400D01*
X145999200Y-95707200D02*
X145999200Y-65938400D01*
X171704000Y-95707200D02*
X145999200Y-95707200D01*
X171704000Y-65938400D02*
X171704000Y-95707200D01*
X170408600Y-65938400D02*
X171704000Y-65938400D01*
D10*
X155651142Y-75931733D02*
X155698761Y-75884114D01*
X155746380Y-75741257D01*
X155746380Y-75646019D01*
X155698761Y-75503161D01*
X155603523Y-75407923D01*
X155508285Y-75360304D01*
X155317809Y-75312685D01*
X155174952Y-75312685D01*
X154984476Y-75360304D01*
X154889238Y-75407923D01*
X154794000Y-75503161D01*
X154746380Y-75646019D01*
X154746380Y-75741257D01*
X154794000Y-75884114D01*
X154841619Y-75931733D01*
X154746380Y-76265066D02*
X154746380Y-76884114D01*
X155127333Y-76550780D01*
X155127333Y-76693638D01*
X155174952Y-76788876D01*
X155222571Y-76836495D01*
X155317809Y-76884114D01*
X155555904Y-76884114D01*
X155651142Y-76836495D01*
X155698761Y-76788876D01*
X155746380Y-76693638D01*
X155746380Y-76407923D01*
X155698761Y-76312685D01*
X155651142Y-76265066D01*
X160553342Y-75880933D02*
X160600961Y-75833314D01*
X160648580Y-75690457D01*
X160648580Y-75595219D01*
X160600961Y-75452361D01*
X160505723Y-75357123D01*
X160410485Y-75309504D01*
X160220009Y-75261885D01*
X160077152Y-75261885D01*
X159886676Y-75309504D01*
X159791438Y-75357123D01*
X159696200Y-75452361D01*
X159648580Y-75595219D01*
X159648580Y-75690457D01*
X159696200Y-75833314D01*
X159743819Y-75880933D01*
X159743819Y-76261885D02*
X159696200Y-76309504D01*
X159648580Y-76404742D01*
X159648580Y-76642838D01*
X159696200Y-76738076D01*
X159743819Y-76785695D01*
X159839057Y-76833314D01*
X159934295Y-76833314D01*
X160077152Y-76785695D01*
X160648580Y-76214266D01*
X160648580Y-76833314D01*
X158064142Y-75906333D02*
X158111761Y-75858714D01*
X158159380Y-75715857D01*
X158159380Y-75620619D01*
X158111761Y-75477761D01*
X158016523Y-75382523D01*
X157921285Y-75334904D01*
X157730809Y-75287285D01*
X157587952Y-75287285D01*
X157397476Y-75334904D01*
X157302238Y-75382523D01*
X157207000Y-75477761D01*
X157159380Y-75620619D01*
X157159380Y-75715857D01*
X157207000Y-75858714D01*
X157254619Y-75906333D01*
X158159380Y-76858714D02*
X158159380Y-76287285D01*
X158159380Y-76573000D02*
X157159380Y-76573000D01*
X157302238Y-76477761D01*
X157397476Y-76382523D01*
X157445095Y-76287285D01*
M02*
