M48
; DRILL file {KiCad (5.1.4)-1} date 10/27/2019 2:05:40 PM
; FORMAT={-:-/ absolute / inch / decimal}
; #@! TF.CreationDate,2019-10-27T14:05:40-07:00
; #@! TF.GenerationSoftware,Kicad,Pcbnew,(5.1.4)-1
FMAT,2
INCH
T1C0.0118
T2C0.0394
%
G90
G05
T1
X6.255Y-2.936
X6.516Y-2.627
X6.516Y-2.661
X6.516Y-2.697
X6.517Y-2.732
X6.534Y-2.868
X6.538Y-2.76
X6.539Y-2.811
X6.54Y-2.783
X6.54Y-2.921
X6.564Y-2.925
X6.589Y-2.924
X6.603Y-2.782
X6.604Y-2.81
X6.605Y-2.759
X6.607Y-2.914
X6.611Y-2.838
X6.611Y-2.864
X6.612Y-2.889
X6.626Y-2.698
X6.626Y-2.733
X6.627Y-2.626
X6.627Y-2.661
T2
X5.943Y-3.683
X6.043Y-3.683
X6.143Y-3.683
X6.243Y-3.683
X6.343Y-3.683
X6.443Y-3.683
X6.543Y-3.683
X6.643Y-3.683
X5.834Y-2.683
X5.934Y-2.683
X6.034Y-2.683
X6.134Y-2.683
X6.234Y-2.683
X6.334Y-2.683
T0
M30
