%TF.GenerationSoftware,KiCad,Pcbnew,(5.1.4)-1*%
%TF.CreationDate,2019-10-27T14:05:37-07:00*%
%TF.ProjectId,spriteSAMD,73707269-7465-4534-914d-442e6b696361,rev?*%
%TF.SameCoordinates,Original*%
%TF.FileFunction,Copper,L2,Bot*%
%TF.FilePolarity,Positive*%
%FSLAX46Y46*%
G04 Gerber Fmt 4.6, Leading zero omitted, Abs format (unit mm)*
G04 Created by KiCad (PCBNEW (5.1.4)-1) date 2019-10-27 14:05:37*
%MOMM*%
%LPD*%
G04 APERTURE LIST*
%ADD10C,0.100000*%
%ADD11O,1.700000X1.700000*%
%ADD12R,1.700000X1.700000*%
%ADD13C,0.590000*%
%ADD14R,1.350000X4.200000*%
%ADD15C,0.450000*%
%ADD16C,0.330200*%
%ADD17C,0.127000*%
G04 APERTURE END LIST*
D10*
X145999200Y-65938400D02*
X170408600Y-65938400D01*
X145999200Y-95707200D02*
X145999200Y-65938400D01*
X171704000Y-95707200D02*
X145999200Y-95707200D01*
X171704000Y-65938400D02*
X171704000Y-95707200D01*
X170408600Y-65938400D02*
X171704000Y-65938400D01*
D11*
X148183600Y-68148200D03*
X150723600Y-68148200D03*
X153263600Y-68148200D03*
X155803600Y-68148200D03*
X158343600Y-68148200D03*
D12*
X160883600Y-68148200D03*
D10*
G36*
X156650958Y-76289110D02*
G01*
X156665276Y-76291234D01*
X156679317Y-76294751D01*
X156692946Y-76299628D01*
X156706031Y-76305817D01*
X156718447Y-76313258D01*
X156730073Y-76321881D01*
X156740798Y-76331602D01*
X156750519Y-76342327D01*
X156759142Y-76353953D01*
X156766583Y-76366369D01*
X156772772Y-76379454D01*
X156777649Y-76393083D01*
X156781166Y-76407124D01*
X156783290Y-76421442D01*
X156784000Y-76435900D01*
X156784000Y-76730900D01*
X156783290Y-76745358D01*
X156781166Y-76759676D01*
X156777649Y-76773717D01*
X156772772Y-76787346D01*
X156766583Y-76800431D01*
X156759142Y-76812847D01*
X156750519Y-76824473D01*
X156740798Y-76835198D01*
X156730073Y-76844919D01*
X156718447Y-76853542D01*
X156706031Y-76860983D01*
X156692946Y-76867172D01*
X156679317Y-76872049D01*
X156665276Y-76875566D01*
X156650958Y-76877690D01*
X156636500Y-76878400D01*
X156291500Y-76878400D01*
X156277042Y-76877690D01*
X156262724Y-76875566D01*
X156248683Y-76872049D01*
X156235054Y-76867172D01*
X156221969Y-76860983D01*
X156209553Y-76853542D01*
X156197927Y-76844919D01*
X156187202Y-76835198D01*
X156177481Y-76824473D01*
X156168858Y-76812847D01*
X156161417Y-76800431D01*
X156155228Y-76787346D01*
X156150351Y-76773717D01*
X156146834Y-76759676D01*
X156144710Y-76745358D01*
X156144000Y-76730900D01*
X156144000Y-76435900D01*
X156144710Y-76421442D01*
X156146834Y-76407124D01*
X156150351Y-76393083D01*
X156155228Y-76379454D01*
X156161417Y-76366369D01*
X156168858Y-76353953D01*
X156177481Y-76342327D01*
X156187202Y-76331602D01*
X156197927Y-76321881D01*
X156209553Y-76313258D01*
X156221969Y-76305817D01*
X156235054Y-76299628D01*
X156248683Y-76294751D01*
X156262724Y-76291234D01*
X156277042Y-76289110D01*
X156291500Y-76288400D01*
X156636500Y-76288400D01*
X156650958Y-76289110D01*
X156650958Y-76289110D01*
G37*
D13*
X156464000Y-76583400D03*
D10*
G36*
X156650958Y-75319110D02*
G01*
X156665276Y-75321234D01*
X156679317Y-75324751D01*
X156692946Y-75329628D01*
X156706031Y-75335817D01*
X156718447Y-75343258D01*
X156730073Y-75351881D01*
X156740798Y-75361602D01*
X156750519Y-75372327D01*
X156759142Y-75383953D01*
X156766583Y-75396369D01*
X156772772Y-75409454D01*
X156777649Y-75423083D01*
X156781166Y-75437124D01*
X156783290Y-75451442D01*
X156784000Y-75465900D01*
X156784000Y-75760900D01*
X156783290Y-75775358D01*
X156781166Y-75789676D01*
X156777649Y-75803717D01*
X156772772Y-75817346D01*
X156766583Y-75830431D01*
X156759142Y-75842847D01*
X156750519Y-75854473D01*
X156740798Y-75865198D01*
X156730073Y-75874919D01*
X156718447Y-75883542D01*
X156706031Y-75890983D01*
X156692946Y-75897172D01*
X156679317Y-75902049D01*
X156665276Y-75905566D01*
X156650958Y-75907690D01*
X156636500Y-75908400D01*
X156291500Y-75908400D01*
X156277042Y-75907690D01*
X156262724Y-75905566D01*
X156248683Y-75902049D01*
X156235054Y-75897172D01*
X156221969Y-75890983D01*
X156209553Y-75883542D01*
X156197927Y-75874919D01*
X156187202Y-75865198D01*
X156177481Y-75854473D01*
X156168858Y-75842847D01*
X156161417Y-75830431D01*
X156155228Y-75817346D01*
X156150351Y-75803717D01*
X156146834Y-75789676D01*
X156144710Y-75775358D01*
X156144000Y-75760900D01*
X156144000Y-75465900D01*
X156144710Y-75451442D01*
X156146834Y-75437124D01*
X156150351Y-75423083D01*
X156155228Y-75409454D01*
X156161417Y-75396369D01*
X156168858Y-75383953D01*
X156177481Y-75372327D01*
X156187202Y-75361602D01*
X156197927Y-75351881D01*
X156209553Y-75343258D01*
X156221969Y-75335817D01*
X156235054Y-75329628D01*
X156248683Y-75324751D01*
X156262724Y-75321234D01*
X156277042Y-75319110D01*
X156291500Y-75318400D01*
X156636500Y-75318400D01*
X156650958Y-75319110D01*
X156650958Y-75319110D01*
G37*
D13*
X156464000Y-75613400D03*
D10*
G36*
X161553158Y-76238310D02*
G01*
X161567476Y-76240434D01*
X161581517Y-76243951D01*
X161595146Y-76248828D01*
X161608231Y-76255017D01*
X161620647Y-76262458D01*
X161632273Y-76271081D01*
X161642998Y-76280802D01*
X161652719Y-76291527D01*
X161661342Y-76303153D01*
X161668783Y-76315569D01*
X161674972Y-76328654D01*
X161679849Y-76342283D01*
X161683366Y-76356324D01*
X161685490Y-76370642D01*
X161686200Y-76385100D01*
X161686200Y-76680100D01*
X161685490Y-76694558D01*
X161683366Y-76708876D01*
X161679849Y-76722917D01*
X161674972Y-76736546D01*
X161668783Y-76749631D01*
X161661342Y-76762047D01*
X161652719Y-76773673D01*
X161642998Y-76784398D01*
X161632273Y-76794119D01*
X161620647Y-76802742D01*
X161608231Y-76810183D01*
X161595146Y-76816372D01*
X161581517Y-76821249D01*
X161567476Y-76824766D01*
X161553158Y-76826890D01*
X161538700Y-76827600D01*
X161193700Y-76827600D01*
X161179242Y-76826890D01*
X161164924Y-76824766D01*
X161150883Y-76821249D01*
X161137254Y-76816372D01*
X161124169Y-76810183D01*
X161111753Y-76802742D01*
X161100127Y-76794119D01*
X161089402Y-76784398D01*
X161079681Y-76773673D01*
X161071058Y-76762047D01*
X161063617Y-76749631D01*
X161057428Y-76736546D01*
X161052551Y-76722917D01*
X161049034Y-76708876D01*
X161046910Y-76694558D01*
X161046200Y-76680100D01*
X161046200Y-76385100D01*
X161046910Y-76370642D01*
X161049034Y-76356324D01*
X161052551Y-76342283D01*
X161057428Y-76328654D01*
X161063617Y-76315569D01*
X161071058Y-76303153D01*
X161079681Y-76291527D01*
X161089402Y-76280802D01*
X161100127Y-76271081D01*
X161111753Y-76262458D01*
X161124169Y-76255017D01*
X161137254Y-76248828D01*
X161150883Y-76243951D01*
X161164924Y-76240434D01*
X161179242Y-76238310D01*
X161193700Y-76237600D01*
X161538700Y-76237600D01*
X161553158Y-76238310D01*
X161553158Y-76238310D01*
G37*
D13*
X161366200Y-76532600D03*
D10*
G36*
X161553158Y-75268310D02*
G01*
X161567476Y-75270434D01*
X161581517Y-75273951D01*
X161595146Y-75278828D01*
X161608231Y-75285017D01*
X161620647Y-75292458D01*
X161632273Y-75301081D01*
X161642998Y-75310802D01*
X161652719Y-75321527D01*
X161661342Y-75333153D01*
X161668783Y-75345569D01*
X161674972Y-75358654D01*
X161679849Y-75372283D01*
X161683366Y-75386324D01*
X161685490Y-75400642D01*
X161686200Y-75415100D01*
X161686200Y-75710100D01*
X161685490Y-75724558D01*
X161683366Y-75738876D01*
X161679849Y-75752917D01*
X161674972Y-75766546D01*
X161668783Y-75779631D01*
X161661342Y-75792047D01*
X161652719Y-75803673D01*
X161642998Y-75814398D01*
X161632273Y-75824119D01*
X161620647Y-75832742D01*
X161608231Y-75840183D01*
X161595146Y-75846372D01*
X161581517Y-75851249D01*
X161567476Y-75854766D01*
X161553158Y-75856890D01*
X161538700Y-75857600D01*
X161193700Y-75857600D01*
X161179242Y-75856890D01*
X161164924Y-75854766D01*
X161150883Y-75851249D01*
X161137254Y-75846372D01*
X161124169Y-75840183D01*
X161111753Y-75832742D01*
X161100127Y-75824119D01*
X161089402Y-75814398D01*
X161079681Y-75803673D01*
X161071058Y-75792047D01*
X161063617Y-75779631D01*
X161057428Y-75766546D01*
X161052551Y-75752917D01*
X161049034Y-75738876D01*
X161046910Y-75724558D01*
X161046200Y-75710100D01*
X161046200Y-75415100D01*
X161046910Y-75400642D01*
X161049034Y-75386324D01*
X161052551Y-75372283D01*
X161057428Y-75358654D01*
X161063617Y-75345569D01*
X161071058Y-75333153D01*
X161079681Y-75321527D01*
X161089402Y-75310802D01*
X161100127Y-75301081D01*
X161111753Y-75292458D01*
X161124169Y-75285017D01*
X161137254Y-75278828D01*
X161150883Y-75273951D01*
X161164924Y-75270434D01*
X161179242Y-75268310D01*
X161193700Y-75267600D01*
X161538700Y-75267600D01*
X161553158Y-75268310D01*
X161553158Y-75268310D01*
G37*
D13*
X161366200Y-75562600D03*
D10*
G36*
X159063958Y-76263710D02*
G01*
X159078276Y-76265834D01*
X159092317Y-76269351D01*
X159105946Y-76274228D01*
X159119031Y-76280417D01*
X159131447Y-76287858D01*
X159143073Y-76296481D01*
X159153798Y-76306202D01*
X159163519Y-76316927D01*
X159172142Y-76328553D01*
X159179583Y-76340969D01*
X159185772Y-76354054D01*
X159190649Y-76367683D01*
X159194166Y-76381724D01*
X159196290Y-76396042D01*
X159197000Y-76410500D01*
X159197000Y-76705500D01*
X159196290Y-76719958D01*
X159194166Y-76734276D01*
X159190649Y-76748317D01*
X159185772Y-76761946D01*
X159179583Y-76775031D01*
X159172142Y-76787447D01*
X159163519Y-76799073D01*
X159153798Y-76809798D01*
X159143073Y-76819519D01*
X159131447Y-76828142D01*
X159119031Y-76835583D01*
X159105946Y-76841772D01*
X159092317Y-76846649D01*
X159078276Y-76850166D01*
X159063958Y-76852290D01*
X159049500Y-76853000D01*
X158704500Y-76853000D01*
X158690042Y-76852290D01*
X158675724Y-76850166D01*
X158661683Y-76846649D01*
X158648054Y-76841772D01*
X158634969Y-76835583D01*
X158622553Y-76828142D01*
X158610927Y-76819519D01*
X158600202Y-76809798D01*
X158590481Y-76799073D01*
X158581858Y-76787447D01*
X158574417Y-76775031D01*
X158568228Y-76761946D01*
X158563351Y-76748317D01*
X158559834Y-76734276D01*
X158557710Y-76719958D01*
X158557000Y-76705500D01*
X158557000Y-76410500D01*
X158557710Y-76396042D01*
X158559834Y-76381724D01*
X158563351Y-76367683D01*
X158568228Y-76354054D01*
X158574417Y-76340969D01*
X158581858Y-76328553D01*
X158590481Y-76316927D01*
X158600202Y-76306202D01*
X158610927Y-76296481D01*
X158622553Y-76287858D01*
X158634969Y-76280417D01*
X158648054Y-76274228D01*
X158661683Y-76269351D01*
X158675724Y-76265834D01*
X158690042Y-76263710D01*
X158704500Y-76263000D01*
X159049500Y-76263000D01*
X159063958Y-76263710D01*
X159063958Y-76263710D01*
G37*
D13*
X158877000Y-76558000D03*
D10*
G36*
X159063958Y-75293710D02*
G01*
X159078276Y-75295834D01*
X159092317Y-75299351D01*
X159105946Y-75304228D01*
X159119031Y-75310417D01*
X159131447Y-75317858D01*
X159143073Y-75326481D01*
X159153798Y-75336202D01*
X159163519Y-75346927D01*
X159172142Y-75358553D01*
X159179583Y-75370969D01*
X159185772Y-75384054D01*
X159190649Y-75397683D01*
X159194166Y-75411724D01*
X159196290Y-75426042D01*
X159197000Y-75440500D01*
X159197000Y-75735500D01*
X159196290Y-75749958D01*
X159194166Y-75764276D01*
X159190649Y-75778317D01*
X159185772Y-75791946D01*
X159179583Y-75805031D01*
X159172142Y-75817447D01*
X159163519Y-75829073D01*
X159153798Y-75839798D01*
X159143073Y-75849519D01*
X159131447Y-75858142D01*
X159119031Y-75865583D01*
X159105946Y-75871772D01*
X159092317Y-75876649D01*
X159078276Y-75880166D01*
X159063958Y-75882290D01*
X159049500Y-75883000D01*
X158704500Y-75883000D01*
X158690042Y-75882290D01*
X158675724Y-75880166D01*
X158661683Y-75876649D01*
X158648054Y-75871772D01*
X158634969Y-75865583D01*
X158622553Y-75858142D01*
X158610927Y-75849519D01*
X158600202Y-75839798D01*
X158590481Y-75829073D01*
X158581858Y-75817447D01*
X158574417Y-75805031D01*
X158568228Y-75791946D01*
X158563351Y-75778317D01*
X158559834Y-75764276D01*
X158557710Y-75749958D01*
X158557000Y-75735500D01*
X158557000Y-75440500D01*
X158557710Y-75426042D01*
X158559834Y-75411724D01*
X158563351Y-75397683D01*
X158568228Y-75384054D01*
X158574417Y-75370969D01*
X158581858Y-75358553D01*
X158590481Y-75346927D01*
X158600202Y-75336202D01*
X158610927Y-75326481D01*
X158622553Y-75317858D01*
X158634969Y-75310417D01*
X158648054Y-75304228D01*
X158661683Y-75299351D01*
X158675724Y-75295834D01*
X158690042Y-75293710D01*
X158704500Y-75293000D01*
X159049500Y-75293000D01*
X159063958Y-75293710D01*
X159063958Y-75293710D01*
G37*
D13*
X158877000Y-75588000D03*
D14*
X164078400Y-68046600D03*
X169728400Y-68046600D03*
D11*
X168732200Y-93548200D03*
X166192200Y-93548200D03*
X163652200Y-93548200D03*
X161112200Y-93548200D03*
X158572200Y-93548200D03*
X156032200Y-93548200D03*
X153492200Y-93548200D03*
D12*
X150952200Y-93548200D03*
D15*
X168325800Y-67589400D03*
X166065200Y-70104000D03*
X166116000Y-70688200D03*
X166090600Y-71399400D03*
X167767000Y-70078600D03*
X167716200Y-70662800D03*
X167741600Y-71374000D03*
X167919400Y-72085200D03*
X167919400Y-72745600D03*
X167944800Y-73380600D03*
X167817800Y-74015600D03*
X167360600Y-74269600D03*
X166725600Y-74295000D03*
X166116000Y-74193400D03*
X165963600Y-72847200D03*
X165506400Y-66725800D03*
X165506400Y-67589400D03*
X165506400Y-68503800D03*
X165531800Y-69392800D03*
X168300400Y-69418200D03*
X168300400Y-68529200D03*
X168325800Y-66700400D03*
X158877000Y-74574400D03*
D16*
X158877000Y-75588000D02*
X158877000Y-74574400D01*
X156464000Y-75613400D02*
X156898200Y-75613400D01*
X157937200Y-74574400D02*
X158877000Y-74574400D01*
X156898200Y-75613400D02*
X157937200Y-74574400D01*
X160378000Y-74574400D02*
X158877000Y-74574400D01*
X161366200Y-75562600D02*
X160378000Y-74574400D01*
D17*
G36*
X163212900Y-67871975D02*
G01*
X163260525Y-67919600D01*
X163951400Y-67919600D01*
X163951400Y-67899600D01*
X164205400Y-67899600D01*
X164205400Y-67919600D01*
X164896275Y-67919600D01*
X164943900Y-67871975D01*
X164944711Y-66178900D01*
X168862089Y-66178900D01*
X168862900Y-67871975D01*
X168910525Y-67919600D01*
X169601400Y-67919600D01*
X169601400Y-67899600D01*
X169855400Y-67899600D01*
X169855400Y-67919600D01*
X170546275Y-67919600D01*
X170593900Y-67871975D01*
X170594711Y-66178900D01*
X171463500Y-66178900D01*
X171463501Y-95466700D01*
X146239700Y-95466700D01*
X146239700Y-92698200D01*
X149910779Y-92698200D01*
X149910779Y-94398200D01*
X149914457Y-94435544D01*
X149925350Y-94471454D01*
X149943039Y-94504548D01*
X149966845Y-94533555D01*
X149995852Y-94557361D01*
X150028946Y-94575050D01*
X150064856Y-94585943D01*
X150102200Y-94589621D01*
X151802200Y-94589621D01*
X151839544Y-94585943D01*
X151875454Y-94575050D01*
X151908548Y-94557361D01*
X151937555Y-94533555D01*
X151961361Y-94504548D01*
X151979050Y-94471454D01*
X151989943Y-94435544D01*
X151993621Y-94398200D01*
X151993621Y-93548200D01*
X152446666Y-93548200D01*
X152466756Y-93752174D01*
X152526253Y-93948309D01*
X152622870Y-94129068D01*
X152752896Y-94287504D01*
X152911332Y-94417530D01*
X153092091Y-94514147D01*
X153288226Y-94573644D01*
X153441090Y-94588700D01*
X153543310Y-94588700D01*
X153696174Y-94573644D01*
X153892309Y-94514147D01*
X154073068Y-94417530D01*
X154231504Y-94287504D01*
X154361530Y-94129068D01*
X154458147Y-93948309D01*
X154517644Y-93752174D01*
X154537734Y-93548200D01*
X154986666Y-93548200D01*
X155006756Y-93752174D01*
X155066253Y-93948309D01*
X155162870Y-94129068D01*
X155292896Y-94287504D01*
X155451332Y-94417530D01*
X155632091Y-94514147D01*
X155828226Y-94573644D01*
X155981090Y-94588700D01*
X156083310Y-94588700D01*
X156236174Y-94573644D01*
X156432309Y-94514147D01*
X156613068Y-94417530D01*
X156771504Y-94287504D01*
X156901530Y-94129068D01*
X156998147Y-93948309D01*
X157057644Y-93752174D01*
X157077734Y-93548200D01*
X157526666Y-93548200D01*
X157546756Y-93752174D01*
X157606253Y-93948309D01*
X157702870Y-94129068D01*
X157832896Y-94287504D01*
X157991332Y-94417530D01*
X158172091Y-94514147D01*
X158368226Y-94573644D01*
X158521090Y-94588700D01*
X158623310Y-94588700D01*
X158776174Y-94573644D01*
X158972309Y-94514147D01*
X159153068Y-94417530D01*
X159311504Y-94287504D01*
X159441530Y-94129068D01*
X159538147Y-93948309D01*
X159597644Y-93752174D01*
X159617734Y-93548200D01*
X160066666Y-93548200D01*
X160086756Y-93752174D01*
X160146253Y-93948309D01*
X160242870Y-94129068D01*
X160372896Y-94287504D01*
X160531332Y-94417530D01*
X160712091Y-94514147D01*
X160908226Y-94573644D01*
X161061090Y-94588700D01*
X161163310Y-94588700D01*
X161316174Y-94573644D01*
X161512309Y-94514147D01*
X161693068Y-94417530D01*
X161851504Y-94287504D01*
X161981530Y-94129068D01*
X162078147Y-93948309D01*
X162137644Y-93752174D01*
X162157734Y-93548200D01*
X162606666Y-93548200D01*
X162626756Y-93752174D01*
X162686253Y-93948309D01*
X162782870Y-94129068D01*
X162912896Y-94287504D01*
X163071332Y-94417530D01*
X163252091Y-94514147D01*
X163448226Y-94573644D01*
X163601090Y-94588700D01*
X163703310Y-94588700D01*
X163856174Y-94573644D01*
X164052309Y-94514147D01*
X164233068Y-94417530D01*
X164391504Y-94287504D01*
X164521530Y-94129068D01*
X164618147Y-93948309D01*
X164677644Y-93752174D01*
X164697734Y-93548200D01*
X165146666Y-93548200D01*
X165166756Y-93752174D01*
X165226253Y-93948309D01*
X165322870Y-94129068D01*
X165452896Y-94287504D01*
X165611332Y-94417530D01*
X165792091Y-94514147D01*
X165988226Y-94573644D01*
X166141090Y-94588700D01*
X166243310Y-94588700D01*
X166396174Y-94573644D01*
X166592309Y-94514147D01*
X166773068Y-94417530D01*
X166931504Y-94287504D01*
X167061530Y-94129068D01*
X167158147Y-93948309D01*
X167192461Y-93835191D01*
X167732055Y-93835191D01*
X167807262Y-94024795D01*
X167918013Y-94196084D01*
X168060053Y-94342475D01*
X168227923Y-94458343D01*
X168415173Y-94539234D01*
X168445211Y-94548338D01*
X168605200Y-94532919D01*
X168605200Y-93675200D01*
X168859200Y-93675200D01*
X168859200Y-94532919D01*
X169019189Y-94548338D01*
X169049227Y-94539234D01*
X169236477Y-94458343D01*
X169404347Y-94342475D01*
X169546387Y-94196084D01*
X169657138Y-94024795D01*
X169732345Y-93835191D01*
X169717302Y-93675200D01*
X168859200Y-93675200D01*
X168605200Y-93675200D01*
X167747098Y-93675200D01*
X167732055Y-93835191D01*
X167192461Y-93835191D01*
X167217644Y-93752174D01*
X167237734Y-93548200D01*
X167217644Y-93344226D01*
X167192462Y-93261209D01*
X167732055Y-93261209D01*
X167747098Y-93421200D01*
X168605200Y-93421200D01*
X168605200Y-92563481D01*
X168859200Y-92563481D01*
X168859200Y-93421200D01*
X169717302Y-93421200D01*
X169732345Y-93261209D01*
X169657138Y-93071605D01*
X169546387Y-92900316D01*
X169404347Y-92753925D01*
X169236477Y-92638057D01*
X169049227Y-92557166D01*
X169019189Y-92548062D01*
X168859200Y-92563481D01*
X168605200Y-92563481D01*
X168445211Y-92548062D01*
X168415173Y-92557166D01*
X168227923Y-92638057D01*
X168060053Y-92753925D01*
X167918013Y-92900316D01*
X167807262Y-93071605D01*
X167732055Y-93261209D01*
X167192462Y-93261209D01*
X167158147Y-93148091D01*
X167061530Y-92967332D01*
X166931504Y-92808896D01*
X166773068Y-92678870D01*
X166592309Y-92582253D01*
X166396174Y-92522756D01*
X166243310Y-92507700D01*
X166141090Y-92507700D01*
X165988226Y-92522756D01*
X165792091Y-92582253D01*
X165611332Y-92678870D01*
X165452896Y-92808896D01*
X165322870Y-92967332D01*
X165226253Y-93148091D01*
X165166756Y-93344226D01*
X165146666Y-93548200D01*
X164697734Y-93548200D01*
X164677644Y-93344226D01*
X164618147Y-93148091D01*
X164521530Y-92967332D01*
X164391504Y-92808896D01*
X164233068Y-92678870D01*
X164052309Y-92582253D01*
X163856174Y-92522756D01*
X163703310Y-92507700D01*
X163601090Y-92507700D01*
X163448226Y-92522756D01*
X163252091Y-92582253D01*
X163071332Y-92678870D01*
X162912896Y-92808896D01*
X162782870Y-92967332D01*
X162686253Y-93148091D01*
X162626756Y-93344226D01*
X162606666Y-93548200D01*
X162157734Y-93548200D01*
X162137644Y-93344226D01*
X162078147Y-93148091D01*
X161981530Y-92967332D01*
X161851504Y-92808896D01*
X161693068Y-92678870D01*
X161512309Y-92582253D01*
X161316174Y-92522756D01*
X161163310Y-92507700D01*
X161061090Y-92507700D01*
X160908226Y-92522756D01*
X160712091Y-92582253D01*
X160531332Y-92678870D01*
X160372896Y-92808896D01*
X160242870Y-92967332D01*
X160146253Y-93148091D01*
X160086756Y-93344226D01*
X160066666Y-93548200D01*
X159617734Y-93548200D01*
X159597644Y-93344226D01*
X159538147Y-93148091D01*
X159441530Y-92967332D01*
X159311504Y-92808896D01*
X159153068Y-92678870D01*
X158972309Y-92582253D01*
X158776174Y-92522756D01*
X158623310Y-92507700D01*
X158521090Y-92507700D01*
X158368226Y-92522756D01*
X158172091Y-92582253D01*
X157991332Y-92678870D01*
X157832896Y-92808896D01*
X157702870Y-92967332D01*
X157606253Y-93148091D01*
X157546756Y-93344226D01*
X157526666Y-93548200D01*
X157077734Y-93548200D01*
X157057644Y-93344226D01*
X156998147Y-93148091D01*
X156901530Y-92967332D01*
X156771504Y-92808896D01*
X156613068Y-92678870D01*
X156432309Y-92582253D01*
X156236174Y-92522756D01*
X156083310Y-92507700D01*
X155981090Y-92507700D01*
X155828226Y-92522756D01*
X155632091Y-92582253D01*
X155451332Y-92678870D01*
X155292896Y-92808896D01*
X155162870Y-92967332D01*
X155066253Y-93148091D01*
X155006756Y-93344226D01*
X154986666Y-93548200D01*
X154537734Y-93548200D01*
X154517644Y-93344226D01*
X154458147Y-93148091D01*
X154361530Y-92967332D01*
X154231504Y-92808896D01*
X154073068Y-92678870D01*
X153892309Y-92582253D01*
X153696174Y-92522756D01*
X153543310Y-92507700D01*
X153441090Y-92507700D01*
X153288226Y-92522756D01*
X153092091Y-92582253D01*
X152911332Y-92678870D01*
X152752896Y-92808896D01*
X152622870Y-92967332D01*
X152526253Y-93148091D01*
X152466756Y-93344226D01*
X152446666Y-93548200D01*
X151993621Y-93548200D01*
X151993621Y-92698200D01*
X151989943Y-92660856D01*
X151979050Y-92624946D01*
X151961361Y-92591852D01*
X151937555Y-92562845D01*
X151908548Y-92539039D01*
X151875454Y-92521350D01*
X151839544Y-92510457D01*
X151802200Y-92506779D01*
X150102200Y-92506779D01*
X150064856Y-92510457D01*
X150028946Y-92521350D01*
X149995852Y-92539039D01*
X149966845Y-92562845D01*
X149943039Y-92591852D01*
X149925350Y-92624946D01*
X149914457Y-92660856D01*
X149910779Y-92698200D01*
X146239700Y-92698200D01*
X146239700Y-76878400D01*
X155952578Y-76878400D01*
X155956256Y-76915745D01*
X155967149Y-76951654D01*
X155984838Y-76984748D01*
X156008644Y-77013756D01*
X156037652Y-77037562D01*
X156070746Y-77055251D01*
X156106655Y-77066144D01*
X156144000Y-77069822D01*
X156289375Y-77068900D01*
X156337000Y-77021275D01*
X156337000Y-76710400D01*
X156591000Y-76710400D01*
X156591000Y-77021275D01*
X156638625Y-77068900D01*
X156784000Y-77069822D01*
X156821345Y-77066144D01*
X156857254Y-77055251D01*
X156890348Y-77037562D01*
X156919356Y-77013756D01*
X156943162Y-76984748D01*
X156960851Y-76951654D01*
X156971744Y-76915745D01*
X156975422Y-76878400D01*
X156975228Y-76853000D01*
X158365578Y-76853000D01*
X158369256Y-76890345D01*
X158380149Y-76926254D01*
X158397838Y-76959348D01*
X158421644Y-76988356D01*
X158450652Y-77012162D01*
X158483746Y-77029851D01*
X158519655Y-77040744D01*
X158557000Y-77044422D01*
X158702375Y-77043500D01*
X158750000Y-76995875D01*
X158750000Y-76685000D01*
X159004000Y-76685000D01*
X159004000Y-76995875D01*
X159051625Y-77043500D01*
X159197000Y-77044422D01*
X159234345Y-77040744D01*
X159270254Y-77029851D01*
X159303348Y-77012162D01*
X159332356Y-76988356D01*
X159356162Y-76959348D01*
X159373851Y-76926254D01*
X159384744Y-76890345D01*
X159388422Y-76853000D01*
X159388228Y-76827600D01*
X160854778Y-76827600D01*
X160858456Y-76864945D01*
X160869349Y-76900854D01*
X160887038Y-76933948D01*
X160910844Y-76962956D01*
X160939852Y-76986762D01*
X160972946Y-77004451D01*
X161008855Y-77015344D01*
X161046200Y-77019022D01*
X161191575Y-77018100D01*
X161239200Y-76970475D01*
X161239200Y-76659600D01*
X161493200Y-76659600D01*
X161493200Y-76970475D01*
X161540825Y-77018100D01*
X161686200Y-77019022D01*
X161723545Y-77015344D01*
X161759454Y-77004451D01*
X161792548Y-76986762D01*
X161821556Y-76962956D01*
X161845362Y-76933948D01*
X161863051Y-76900854D01*
X161873944Y-76864945D01*
X161877622Y-76827600D01*
X161876700Y-76707225D01*
X161829075Y-76659600D01*
X161493200Y-76659600D01*
X161239200Y-76659600D01*
X160903325Y-76659600D01*
X160855700Y-76707225D01*
X160854778Y-76827600D01*
X159388228Y-76827600D01*
X159387500Y-76732625D01*
X159339875Y-76685000D01*
X159004000Y-76685000D01*
X158750000Y-76685000D01*
X158414125Y-76685000D01*
X158366500Y-76732625D01*
X158365578Y-76853000D01*
X156975228Y-76853000D01*
X156974500Y-76758025D01*
X156926875Y-76710400D01*
X156591000Y-76710400D01*
X156337000Y-76710400D01*
X156001125Y-76710400D01*
X155953500Y-76758025D01*
X155952578Y-76878400D01*
X146239700Y-76878400D01*
X146239700Y-76288400D01*
X155952578Y-76288400D01*
X155953500Y-76408775D01*
X156001125Y-76456400D01*
X156337000Y-76456400D01*
X156337000Y-76436400D01*
X156591000Y-76436400D01*
X156591000Y-76456400D01*
X156926875Y-76456400D01*
X156974500Y-76408775D01*
X156975422Y-76288400D01*
X156971744Y-76251055D01*
X156960851Y-76215146D01*
X156943162Y-76182052D01*
X156919356Y-76153044D01*
X156890348Y-76129238D01*
X156857254Y-76111549D01*
X156821345Y-76100656D01*
X156784000Y-76096978D01*
X156657201Y-76097782D01*
X156702620Y-76093309D01*
X156766199Y-76074022D01*
X156824794Y-76042703D01*
X156876153Y-76000553D01*
X156900852Y-75970458D01*
X156915655Y-75969000D01*
X156915663Y-75969000D01*
X156967910Y-75963854D01*
X157034940Y-75943521D01*
X157096716Y-75910501D01*
X157150863Y-75866063D01*
X157161999Y-75852494D01*
X158084494Y-74930000D01*
X158521401Y-74930000D01*
X158521400Y-75155921D01*
X158516206Y-75158697D01*
X158464847Y-75200847D01*
X158422697Y-75252206D01*
X158391378Y-75310801D01*
X158372091Y-75374380D01*
X158365579Y-75440500D01*
X158365579Y-75735500D01*
X158372091Y-75801620D01*
X158391378Y-75865199D01*
X158422697Y-75923794D01*
X158464847Y-75975153D01*
X158516206Y-76017303D01*
X158574801Y-76048622D01*
X158638380Y-76067909D01*
X158683799Y-76072382D01*
X158557000Y-76071578D01*
X158519655Y-76075256D01*
X158483746Y-76086149D01*
X158450652Y-76103838D01*
X158421644Y-76127644D01*
X158397838Y-76156652D01*
X158380149Y-76189746D01*
X158369256Y-76225655D01*
X158365578Y-76263000D01*
X158366500Y-76383375D01*
X158414125Y-76431000D01*
X158750000Y-76431000D01*
X158750000Y-76411000D01*
X159004000Y-76411000D01*
X159004000Y-76431000D01*
X159339875Y-76431000D01*
X159387500Y-76383375D01*
X159388422Y-76263000D01*
X159384744Y-76225655D01*
X159373851Y-76189746D01*
X159356162Y-76156652D01*
X159332356Y-76127644D01*
X159303348Y-76103838D01*
X159270254Y-76086149D01*
X159234345Y-76075256D01*
X159197000Y-76071578D01*
X159070201Y-76072382D01*
X159115620Y-76067909D01*
X159179199Y-76048622D01*
X159237794Y-76017303D01*
X159289153Y-75975153D01*
X159331303Y-75923794D01*
X159362622Y-75865199D01*
X159381909Y-75801620D01*
X159388421Y-75735500D01*
X159388421Y-75440500D01*
X159381909Y-75374380D01*
X159362622Y-75310801D01*
X159331303Y-75252206D01*
X159289153Y-75200847D01*
X159237794Y-75158697D01*
X159232600Y-75155921D01*
X159232600Y-74930000D01*
X160230707Y-74930000D01*
X160854779Y-75554073D01*
X160854779Y-75710100D01*
X160861291Y-75776220D01*
X160880578Y-75839799D01*
X160911897Y-75898394D01*
X160954047Y-75949753D01*
X161005406Y-75991903D01*
X161064001Y-76023222D01*
X161127580Y-76042509D01*
X161172999Y-76046982D01*
X161046200Y-76046178D01*
X161008855Y-76049856D01*
X160972946Y-76060749D01*
X160939852Y-76078438D01*
X160910844Y-76102244D01*
X160887038Y-76131252D01*
X160869349Y-76164346D01*
X160858456Y-76200255D01*
X160854778Y-76237600D01*
X160855700Y-76357975D01*
X160903325Y-76405600D01*
X161239200Y-76405600D01*
X161239200Y-76385600D01*
X161493200Y-76385600D01*
X161493200Y-76405600D01*
X161829075Y-76405600D01*
X161876700Y-76357975D01*
X161877622Y-76237600D01*
X161873944Y-76200255D01*
X161863051Y-76164346D01*
X161845362Y-76131252D01*
X161821556Y-76102244D01*
X161792548Y-76078438D01*
X161759454Y-76060749D01*
X161723545Y-76049856D01*
X161686200Y-76046178D01*
X161559401Y-76046982D01*
X161604820Y-76042509D01*
X161668399Y-76023222D01*
X161726994Y-75991903D01*
X161778353Y-75949753D01*
X161820503Y-75898394D01*
X161851822Y-75839799D01*
X161871109Y-75776220D01*
X161877621Y-75710100D01*
X161877621Y-75415100D01*
X161871109Y-75348980D01*
X161851822Y-75285401D01*
X161820503Y-75226806D01*
X161778353Y-75175447D01*
X161726994Y-75133297D01*
X161668399Y-75101978D01*
X161604820Y-75082691D01*
X161538700Y-75076179D01*
X161382673Y-75076179D01*
X160641799Y-74335306D01*
X160630663Y-74321737D01*
X160576516Y-74277299D01*
X160514740Y-74244279D01*
X160447710Y-74223946D01*
X160395463Y-74218800D01*
X160395455Y-74218800D01*
X160378000Y-74217081D01*
X160360545Y-74218800D01*
X159092687Y-74218800D01*
X159073813Y-74206189D01*
X158998197Y-74174868D01*
X158917923Y-74158900D01*
X158836077Y-74158900D01*
X158755803Y-74174868D01*
X158680187Y-74206189D01*
X158661313Y-74218800D01*
X157954655Y-74218800D01*
X157937200Y-74217081D01*
X157919744Y-74218800D01*
X157919737Y-74218800D01*
X157873766Y-74223328D01*
X157867489Y-74223946D01*
X157847156Y-74230114D01*
X157800460Y-74244279D01*
X157738684Y-74277299D01*
X157684537Y-74321737D01*
X157673406Y-74335300D01*
X156824674Y-75184033D01*
X156766199Y-75152778D01*
X156702620Y-75133491D01*
X156636500Y-75126979D01*
X156291500Y-75126979D01*
X156225380Y-75133491D01*
X156161801Y-75152778D01*
X156103206Y-75184097D01*
X156051847Y-75226247D01*
X156009697Y-75277606D01*
X155978378Y-75336201D01*
X155959091Y-75399780D01*
X155952579Y-75465900D01*
X155952579Y-75760900D01*
X155959091Y-75827020D01*
X155978378Y-75890599D01*
X156009697Y-75949194D01*
X156051847Y-76000553D01*
X156103206Y-76042703D01*
X156161801Y-76074022D01*
X156225380Y-76093309D01*
X156270799Y-76097782D01*
X156144000Y-76096978D01*
X156106655Y-76100656D01*
X156070746Y-76111549D01*
X156037652Y-76129238D01*
X156008644Y-76153044D01*
X155984838Y-76182052D01*
X155967149Y-76215146D01*
X155956256Y-76251055D01*
X155952578Y-76288400D01*
X146239700Y-76288400D01*
X146239700Y-70146600D01*
X163211978Y-70146600D01*
X163215656Y-70183945D01*
X163226549Y-70219854D01*
X163244238Y-70252948D01*
X163268044Y-70281956D01*
X163297052Y-70305762D01*
X163330146Y-70323451D01*
X163366055Y-70334344D01*
X163403400Y-70338022D01*
X163903775Y-70337100D01*
X163951400Y-70289475D01*
X163951400Y-68173600D01*
X164205400Y-68173600D01*
X164205400Y-70289475D01*
X164253025Y-70337100D01*
X164753400Y-70338022D01*
X164790745Y-70334344D01*
X164826654Y-70323451D01*
X164859748Y-70305762D01*
X164888756Y-70281956D01*
X164912562Y-70252948D01*
X164930251Y-70219854D01*
X164941144Y-70183945D01*
X164944822Y-70146600D01*
X168861978Y-70146600D01*
X168865656Y-70183945D01*
X168876549Y-70219854D01*
X168894238Y-70252948D01*
X168918044Y-70281956D01*
X168947052Y-70305762D01*
X168980146Y-70323451D01*
X169016055Y-70334344D01*
X169053400Y-70338022D01*
X169553775Y-70337100D01*
X169601400Y-70289475D01*
X169601400Y-68173600D01*
X169855400Y-68173600D01*
X169855400Y-70289475D01*
X169903025Y-70337100D01*
X170403400Y-70338022D01*
X170440745Y-70334344D01*
X170476654Y-70323451D01*
X170509748Y-70305762D01*
X170538756Y-70281956D01*
X170562562Y-70252948D01*
X170580251Y-70219854D01*
X170591144Y-70183945D01*
X170594822Y-70146600D01*
X170593900Y-68221225D01*
X170546275Y-68173600D01*
X169855400Y-68173600D01*
X169601400Y-68173600D01*
X168910525Y-68173600D01*
X168862900Y-68221225D01*
X168861978Y-70146600D01*
X164944822Y-70146600D01*
X164943900Y-68221225D01*
X164896275Y-68173600D01*
X164205400Y-68173600D01*
X163951400Y-68173600D01*
X163260525Y-68173600D01*
X163212900Y-68221225D01*
X163211978Y-70146600D01*
X146239700Y-70146600D01*
X146239700Y-68148200D01*
X147138066Y-68148200D01*
X147158156Y-68352174D01*
X147217653Y-68548309D01*
X147314270Y-68729068D01*
X147444296Y-68887504D01*
X147602732Y-69017530D01*
X147783491Y-69114147D01*
X147979626Y-69173644D01*
X148132490Y-69188700D01*
X148234710Y-69188700D01*
X148387574Y-69173644D01*
X148583709Y-69114147D01*
X148764468Y-69017530D01*
X148922904Y-68887504D01*
X149052930Y-68729068D01*
X149149547Y-68548309D01*
X149209044Y-68352174D01*
X149229134Y-68148200D01*
X149678066Y-68148200D01*
X149698156Y-68352174D01*
X149757653Y-68548309D01*
X149854270Y-68729068D01*
X149984296Y-68887504D01*
X150142732Y-69017530D01*
X150323491Y-69114147D01*
X150519626Y-69173644D01*
X150672490Y-69188700D01*
X150774710Y-69188700D01*
X150927574Y-69173644D01*
X151123709Y-69114147D01*
X151304468Y-69017530D01*
X151462904Y-68887504D01*
X151592930Y-68729068D01*
X151689547Y-68548309D01*
X151749044Y-68352174D01*
X151769134Y-68148200D01*
X152218066Y-68148200D01*
X152238156Y-68352174D01*
X152297653Y-68548309D01*
X152394270Y-68729068D01*
X152524296Y-68887504D01*
X152682732Y-69017530D01*
X152863491Y-69114147D01*
X153059626Y-69173644D01*
X153212490Y-69188700D01*
X153314710Y-69188700D01*
X153467574Y-69173644D01*
X153663709Y-69114147D01*
X153844468Y-69017530D01*
X154002904Y-68887504D01*
X154132930Y-68729068D01*
X154229547Y-68548309D01*
X154289044Y-68352174D01*
X154309134Y-68148200D01*
X154758066Y-68148200D01*
X154778156Y-68352174D01*
X154837653Y-68548309D01*
X154934270Y-68729068D01*
X155064296Y-68887504D01*
X155222732Y-69017530D01*
X155403491Y-69114147D01*
X155599626Y-69173644D01*
X155752490Y-69188700D01*
X155854710Y-69188700D01*
X156007574Y-69173644D01*
X156203709Y-69114147D01*
X156384468Y-69017530D01*
X156542904Y-68887504D01*
X156672930Y-68729068D01*
X156769547Y-68548309D01*
X156829044Y-68352174D01*
X156849134Y-68148200D01*
X157298066Y-68148200D01*
X157318156Y-68352174D01*
X157377653Y-68548309D01*
X157474270Y-68729068D01*
X157604296Y-68887504D01*
X157762732Y-69017530D01*
X157943491Y-69114147D01*
X158139626Y-69173644D01*
X158292490Y-69188700D01*
X158394710Y-69188700D01*
X158547574Y-69173644D01*
X158743709Y-69114147D01*
X158924468Y-69017530D01*
X159082904Y-68887504D01*
X159212930Y-68729068D01*
X159309547Y-68548309D01*
X159369044Y-68352174D01*
X159389134Y-68148200D01*
X159369044Y-67944226D01*
X159309547Y-67748091D01*
X159212930Y-67567332D01*
X159082904Y-67408896D01*
X158948022Y-67298200D01*
X159842179Y-67298200D01*
X159842179Y-68998200D01*
X159845857Y-69035544D01*
X159856750Y-69071454D01*
X159874439Y-69104548D01*
X159898245Y-69133555D01*
X159927252Y-69157361D01*
X159960346Y-69175050D01*
X159996256Y-69185943D01*
X160033600Y-69189621D01*
X161733600Y-69189621D01*
X161770944Y-69185943D01*
X161806854Y-69175050D01*
X161839948Y-69157361D01*
X161868955Y-69133555D01*
X161892761Y-69104548D01*
X161910450Y-69071454D01*
X161921343Y-69035544D01*
X161925021Y-68998200D01*
X161925021Y-67298200D01*
X161921343Y-67260856D01*
X161910450Y-67224946D01*
X161892761Y-67191852D01*
X161868955Y-67162845D01*
X161839948Y-67139039D01*
X161806854Y-67121350D01*
X161770944Y-67110457D01*
X161733600Y-67106779D01*
X160033600Y-67106779D01*
X159996256Y-67110457D01*
X159960346Y-67121350D01*
X159927252Y-67139039D01*
X159898245Y-67162845D01*
X159874439Y-67191852D01*
X159856750Y-67224946D01*
X159845857Y-67260856D01*
X159842179Y-67298200D01*
X158948022Y-67298200D01*
X158924468Y-67278870D01*
X158743709Y-67182253D01*
X158547574Y-67122756D01*
X158394710Y-67107700D01*
X158292490Y-67107700D01*
X158139626Y-67122756D01*
X157943491Y-67182253D01*
X157762732Y-67278870D01*
X157604296Y-67408896D01*
X157474270Y-67567332D01*
X157377653Y-67748091D01*
X157318156Y-67944226D01*
X157298066Y-68148200D01*
X156849134Y-68148200D01*
X156829044Y-67944226D01*
X156769547Y-67748091D01*
X156672930Y-67567332D01*
X156542904Y-67408896D01*
X156384468Y-67278870D01*
X156203709Y-67182253D01*
X156007574Y-67122756D01*
X155854710Y-67107700D01*
X155752490Y-67107700D01*
X155599626Y-67122756D01*
X155403491Y-67182253D01*
X155222732Y-67278870D01*
X155064296Y-67408896D01*
X154934270Y-67567332D01*
X154837653Y-67748091D01*
X154778156Y-67944226D01*
X154758066Y-68148200D01*
X154309134Y-68148200D01*
X154289044Y-67944226D01*
X154229547Y-67748091D01*
X154132930Y-67567332D01*
X154002904Y-67408896D01*
X153844468Y-67278870D01*
X153663709Y-67182253D01*
X153467574Y-67122756D01*
X153314710Y-67107700D01*
X153212490Y-67107700D01*
X153059626Y-67122756D01*
X152863491Y-67182253D01*
X152682732Y-67278870D01*
X152524296Y-67408896D01*
X152394270Y-67567332D01*
X152297653Y-67748091D01*
X152238156Y-67944226D01*
X152218066Y-68148200D01*
X151769134Y-68148200D01*
X151749044Y-67944226D01*
X151689547Y-67748091D01*
X151592930Y-67567332D01*
X151462904Y-67408896D01*
X151304468Y-67278870D01*
X151123709Y-67182253D01*
X150927574Y-67122756D01*
X150774710Y-67107700D01*
X150672490Y-67107700D01*
X150519626Y-67122756D01*
X150323491Y-67182253D01*
X150142732Y-67278870D01*
X149984296Y-67408896D01*
X149854270Y-67567332D01*
X149757653Y-67748091D01*
X149698156Y-67944226D01*
X149678066Y-68148200D01*
X149229134Y-68148200D01*
X149209044Y-67944226D01*
X149149547Y-67748091D01*
X149052930Y-67567332D01*
X148922904Y-67408896D01*
X148764468Y-67278870D01*
X148583709Y-67182253D01*
X148387574Y-67122756D01*
X148234710Y-67107700D01*
X148132490Y-67107700D01*
X147979626Y-67122756D01*
X147783491Y-67182253D01*
X147602732Y-67278870D01*
X147444296Y-67408896D01*
X147314270Y-67567332D01*
X147217653Y-67748091D01*
X147158156Y-67944226D01*
X147138066Y-68148200D01*
X146239700Y-68148200D01*
X146239700Y-66178900D01*
X163212089Y-66178900D01*
X163212900Y-67871975D01*
X163212900Y-67871975D01*
G37*
X163212900Y-67871975D02*
X163260525Y-67919600D01*
X163951400Y-67919600D01*
X163951400Y-67899600D01*
X164205400Y-67899600D01*
X164205400Y-67919600D01*
X164896275Y-67919600D01*
X164943900Y-67871975D01*
X164944711Y-66178900D01*
X168862089Y-66178900D01*
X168862900Y-67871975D01*
X168910525Y-67919600D01*
X169601400Y-67919600D01*
X169601400Y-67899600D01*
X169855400Y-67899600D01*
X169855400Y-67919600D01*
X170546275Y-67919600D01*
X170593900Y-67871975D01*
X170594711Y-66178900D01*
X171463500Y-66178900D01*
X171463501Y-95466700D01*
X146239700Y-95466700D01*
X146239700Y-92698200D01*
X149910779Y-92698200D01*
X149910779Y-94398200D01*
X149914457Y-94435544D01*
X149925350Y-94471454D01*
X149943039Y-94504548D01*
X149966845Y-94533555D01*
X149995852Y-94557361D01*
X150028946Y-94575050D01*
X150064856Y-94585943D01*
X150102200Y-94589621D01*
X151802200Y-94589621D01*
X151839544Y-94585943D01*
X151875454Y-94575050D01*
X151908548Y-94557361D01*
X151937555Y-94533555D01*
X151961361Y-94504548D01*
X151979050Y-94471454D01*
X151989943Y-94435544D01*
X151993621Y-94398200D01*
X151993621Y-93548200D01*
X152446666Y-93548200D01*
X152466756Y-93752174D01*
X152526253Y-93948309D01*
X152622870Y-94129068D01*
X152752896Y-94287504D01*
X152911332Y-94417530D01*
X153092091Y-94514147D01*
X153288226Y-94573644D01*
X153441090Y-94588700D01*
X153543310Y-94588700D01*
X153696174Y-94573644D01*
X153892309Y-94514147D01*
X154073068Y-94417530D01*
X154231504Y-94287504D01*
X154361530Y-94129068D01*
X154458147Y-93948309D01*
X154517644Y-93752174D01*
X154537734Y-93548200D01*
X154986666Y-93548200D01*
X155006756Y-93752174D01*
X155066253Y-93948309D01*
X155162870Y-94129068D01*
X155292896Y-94287504D01*
X155451332Y-94417530D01*
X155632091Y-94514147D01*
X155828226Y-94573644D01*
X155981090Y-94588700D01*
X156083310Y-94588700D01*
X156236174Y-94573644D01*
X156432309Y-94514147D01*
X156613068Y-94417530D01*
X156771504Y-94287504D01*
X156901530Y-94129068D01*
X156998147Y-93948309D01*
X157057644Y-93752174D01*
X157077734Y-93548200D01*
X157526666Y-93548200D01*
X157546756Y-93752174D01*
X157606253Y-93948309D01*
X157702870Y-94129068D01*
X157832896Y-94287504D01*
X157991332Y-94417530D01*
X158172091Y-94514147D01*
X158368226Y-94573644D01*
X158521090Y-94588700D01*
X158623310Y-94588700D01*
X158776174Y-94573644D01*
X158972309Y-94514147D01*
X159153068Y-94417530D01*
X159311504Y-94287504D01*
X159441530Y-94129068D01*
X159538147Y-93948309D01*
X159597644Y-93752174D01*
X159617734Y-93548200D01*
X160066666Y-93548200D01*
X160086756Y-93752174D01*
X160146253Y-93948309D01*
X160242870Y-94129068D01*
X160372896Y-94287504D01*
X160531332Y-94417530D01*
X160712091Y-94514147D01*
X160908226Y-94573644D01*
X161061090Y-94588700D01*
X161163310Y-94588700D01*
X161316174Y-94573644D01*
X161512309Y-94514147D01*
X161693068Y-94417530D01*
X161851504Y-94287504D01*
X161981530Y-94129068D01*
X162078147Y-93948309D01*
X162137644Y-93752174D01*
X162157734Y-93548200D01*
X162606666Y-93548200D01*
X162626756Y-93752174D01*
X162686253Y-93948309D01*
X162782870Y-94129068D01*
X162912896Y-94287504D01*
X163071332Y-94417530D01*
X163252091Y-94514147D01*
X163448226Y-94573644D01*
X163601090Y-94588700D01*
X163703310Y-94588700D01*
X163856174Y-94573644D01*
X164052309Y-94514147D01*
X164233068Y-94417530D01*
X164391504Y-94287504D01*
X164521530Y-94129068D01*
X164618147Y-93948309D01*
X164677644Y-93752174D01*
X164697734Y-93548200D01*
X165146666Y-93548200D01*
X165166756Y-93752174D01*
X165226253Y-93948309D01*
X165322870Y-94129068D01*
X165452896Y-94287504D01*
X165611332Y-94417530D01*
X165792091Y-94514147D01*
X165988226Y-94573644D01*
X166141090Y-94588700D01*
X166243310Y-94588700D01*
X166396174Y-94573644D01*
X166592309Y-94514147D01*
X166773068Y-94417530D01*
X166931504Y-94287504D01*
X167061530Y-94129068D01*
X167158147Y-93948309D01*
X167192461Y-93835191D01*
X167732055Y-93835191D01*
X167807262Y-94024795D01*
X167918013Y-94196084D01*
X168060053Y-94342475D01*
X168227923Y-94458343D01*
X168415173Y-94539234D01*
X168445211Y-94548338D01*
X168605200Y-94532919D01*
X168605200Y-93675200D01*
X168859200Y-93675200D01*
X168859200Y-94532919D01*
X169019189Y-94548338D01*
X169049227Y-94539234D01*
X169236477Y-94458343D01*
X169404347Y-94342475D01*
X169546387Y-94196084D01*
X169657138Y-94024795D01*
X169732345Y-93835191D01*
X169717302Y-93675200D01*
X168859200Y-93675200D01*
X168605200Y-93675200D01*
X167747098Y-93675200D01*
X167732055Y-93835191D01*
X167192461Y-93835191D01*
X167217644Y-93752174D01*
X167237734Y-93548200D01*
X167217644Y-93344226D01*
X167192462Y-93261209D01*
X167732055Y-93261209D01*
X167747098Y-93421200D01*
X168605200Y-93421200D01*
X168605200Y-92563481D01*
X168859200Y-92563481D01*
X168859200Y-93421200D01*
X169717302Y-93421200D01*
X169732345Y-93261209D01*
X169657138Y-93071605D01*
X169546387Y-92900316D01*
X169404347Y-92753925D01*
X169236477Y-92638057D01*
X169049227Y-92557166D01*
X169019189Y-92548062D01*
X168859200Y-92563481D01*
X168605200Y-92563481D01*
X168445211Y-92548062D01*
X168415173Y-92557166D01*
X168227923Y-92638057D01*
X168060053Y-92753925D01*
X167918013Y-92900316D01*
X167807262Y-93071605D01*
X167732055Y-93261209D01*
X167192462Y-93261209D01*
X167158147Y-93148091D01*
X167061530Y-92967332D01*
X166931504Y-92808896D01*
X166773068Y-92678870D01*
X166592309Y-92582253D01*
X166396174Y-92522756D01*
X166243310Y-92507700D01*
X166141090Y-92507700D01*
X165988226Y-92522756D01*
X165792091Y-92582253D01*
X165611332Y-92678870D01*
X165452896Y-92808896D01*
X165322870Y-92967332D01*
X165226253Y-93148091D01*
X165166756Y-93344226D01*
X165146666Y-93548200D01*
X164697734Y-93548200D01*
X164677644Y-93344226D01*
X164618147Y-93148091D01*
X164521530Y-92967332D01*
X164391504Y-92808896D01*
X164233068Y-92678870D01*
X164052309Y-92582253D01*
X163856174Y-92522756D01*
X163703310Y-92507700D01*
X163601090Y-92507700D01*
X163448226Y-92522756D01*
X163252091Y-92582253D01*
X163071332Y-92678870D01*
X162912896Y-92808896D01*
X162782870Y-92967332D01*
X162686253Y-93148091D01*
X162626756Y-93344226D01*
X162606666Y-93548200D01*
X162157734Y-93548200D01*
X162137644Y-93344226D01*
X162078147Y-93148091D01*
X161981530Y-92967332D01*
X161851504Y-92808896D01*
X161693068Y-92678870D01*
X161512309Y-92582253D01*
X161316174Y-92522756D01*
X161163310Y-92507700D01*
X161061090Y-92507700D01*
X160908226Y-92522756D01*
X160712091Y-92582253D01*
X160531332Y-92678870D01*
X160372896Y-92808896D01*
X160242870Y-92967332D01*
X160146253Y-93148091D01*
X160086756Y-93344226D01*
X160066666Y-93548200D01*
X159617734Y-93548200D01*
X159597644Y-93344226D01*
X159538147Y-93148091D01*
X159441530Y-92967332D01*
X159311504Y-92808896D01*
X159153068Y-92678870D01*
X158972309Y-92582253D01*
X158776174Y-92522756D01*
X158623310Y-92507700D01*
X158521090Y-92507700D01*
X158368226Y-92522756D01*
X158172091Y-92582253D01*
X157991332Y-92678870D01*
X157832896Y-92808896D01*
X157702870Y-92967332D01*
X157606253Y-93148091D01*
X157546756Y-93344226D01*
X157526666Y-93548200D01*
X157077734Y-93548200D01*
X157057644Y-93344226D01*
X156998147Y-93148091D01*
X156901530Y-92967332D01*
X156771504Y-92808896D01*
X156613068Y-92678870D01*
X156432309Y-92582253D01*
X156236174Y-92522756D01*
X156083310Y-92507700D01*
X155981090Y-92507700D01*
X155828226Y-92522756D01*
X155632091Y-92582253D01*
X155451332Y-92678870D01*
X155292896Y-92808896D01*
X155162870Y-92967332D01*
X155066253Y-93148091D01*
X155006756Y-93344226D01*
X154986666Y-93548200D01*
X154537734Y-93548200D01*
X154517644Y-93344226D01*
X154458147Y-93148091D01*
X154361530Y-92967332D01*
X154231504Y-92808896D01*
X154073068Y-92678870D01*
X153892309Y-92582253D01*
X153696174Y-92522756D01*
X153543310Y-92507700D01*
X153441090Y-92507700D01*
X153288226Y-92522756D01*
X153092091Y-92582253D01*
X152911332Y-92678870D01*
X152752896Y-92808896D01*
X152622870Y-92967332D01*
X152526253Y-93148091D01*
X152466756Y-93344226D01*
X152446666Y-93548200D01*
X151993621Y-93548200D01*
X151993621Y-92698200D01*
X151989943Y-92660856D01*
X151979050Y-92624946D01*
X151961361Y-92591852D01*
X151937555Y-92562845D01*
X151908548Y-92539039D01*
X151875454Y-92521350D01*
X151839544Y-92510457D01*
X151802200Y-92506779D01*
X150102200Y-92506779D01*
X150064856Y-92510457D01*
X150028946Y-92521350D01*
X149995852Y-92539039D01*
X149966845Y-92562845D01*
X149943039Y-92591852D01*
X149925350Y-92624946D01*
X149914457Y-92660856D01*
X149910779Y-92698200D01*
X146239700Y-92698200D01*
X146239700Y-76878400D01*
X155952578Y-76878400D01*
X155956256Y-76915745D01*
X155967149Y-76951654D01*
X155984838Y-76984748D01*
X156008644Y-77013756D01*
X156037652Y-77037562D01*
X156070746Y-77055251D01*
X156106655Y-77066144D01*
X156144000Y-77069822D01*
X156289375Y-77068900D01*
X156337000Y-77021275D01*
X156337000Y-76710400D01*
X156591000Y-76710400D01*
X156591000Y-77021275D01*
X156638625Y-77068900D01*
X156784000Y-77069822D01*
X156821345Y-77066144D01*
X156857254Y-77055251D01*
X156890348Y-77037562D01*
X156919356Y-77013756D01*
X156943162Y-76984748D01*
X156960851Y-76951654D01*
X156971744Y-76915745D01*
X156975422Y-76878400D01*
X156975228Y-76853000D01*
X158365578Y-76853000D01*
X158369256Y-76890345D01*
X158380149Y-76926254D01*
X158397838Y-76959348D01*
X158421644Y-76988356D01*
X158450652Y-77012162D01*
X158483746Y-77029851D01*
X158519655Y-77040744D01*
X158557000Y-77044422D01*
X158702375Y-77043500D01*
X158750000Y-76995875D01*
X158750000Y-76685000D01*
X159004000Y-76685000D01*
X159004000Y-76995875D01*
X159051625Y-77043500D01*
X159197000Y-77044422D01*
X159234345Y-77040744D01*
X159270254Y-77029851D01*
X159303348Y-77012162D01*
X159332356Y-76988356D01*
X159356162Y-76959348D01*
X159373851Y-76926254D01*
X159384744Y-76890345D01*
X159388422Y-76853000D01*
X159388228Y-76827600D01*
X160854778Y-76827600D01*
X160858456Y-76864945D01*
X160869349Y-76900854D01*
X160887038Y-76933948D01*
X160910844Y-76962956D01*
X160939852Y-76986762D01*
X160972946Y-77004451D01*
X161008855Y-77015344D01*
X161046200Y-77019022D01*
X161191575Y-77018100D01*
X161239200Y-76970475D01*
X161239200Y-76659600D01*
X161493200Y-76659600D01*
X161493200Y-76970475D01*
X161540825Y-77018100D01*
X161686200Y-77019022D01*
X161723545Y-77015344D01*
X161759454Y-77004451D01*
X161792548Y-76986762D01*
X161821556Y-76962956D01*
X161845362Y-76933948D01*
X161863051Y-76900854D01*
X161873944Y-76864945D01*
X161877622Y-76827600D01*
X161876700Y-76707225D01*
X161829075Y-76659600D01*
X161493200Y-76659600D01*
X161239200Y-76659600D01*
X160903325Y-76659600D01*
X160855700Y-76707225D01*
X160854778Y-76827600D01*
X159388228Y-76827600D01*
X159387500Y-76732625D01*
X159339875Y-76685000D01*
X159004000Y-76685000D01*
X158750000Y-76685000D01*
X158414125Y-76685000D01*
X158366500Y-76732625D01*
X158365578Y-76853000D01*
X156975228Y-76853000D01*
X156974500Y-76758025D01*
X156926875Y-76710400D01*
X156591000Y-76710400D01*
X156337000Y-76710400D01*
X156001125Y-76710400D01*
X155953500Y-76758025D01*
X155952578Y-76878400D01*
X146239700Y-76878400D01*
X146239700Y-76288400D01*
X155952578Y-76288400D01*
X155953500Y-76408775D01*
X156001125Y-76456400D01*
X156337000Y-76456400D01*
X156337000Y-76436400D01*
X156591000Y-76436400D01*
X156591000Y-76456400D01*
X156926875Y-76456400D01*
X156974500Y-76408775D01*
X156975422Y-76288400D01*
X156971744Y-76251055D01*
X156960851Y-76215146D01*
X156943162Y-76182052D01*
X156919356Y-76153044D01*
X156890348Y-76129238D01*
X156857254Y-76111549D01*
X156821345Y-76100656D01*
X156784000Y-76096978D01*
X156657201Y-76097782D01*
X156702620Y-76093309D01*
X156766199Y-76074022D01*
X156824794Y-76042703D01*
X156876153Y-76000553D01*
X156900852Y-75970458D01*
X156915655Y-75969000D01*
X156915663Y-75969000D01*
X156967910Y-75963854D01*
X157034940Y-75943521D01*
X157096716Y-75910501D01*
X157150863Y-75866063D01*
X157161999Y-75852494D01*
X158084494Y-74930000D01*
X158521401Y-74930000D01*
X158521400Y-75155921D01*
X158516206Y-75158697D01*
X158464847Y-75200847D01*
X158422697Y-75252206D01*
X158391378Y-75310801D01*
X158372091Y-75374380D01*
X158365579Y-75440500D01*
X158365579Y-75735500D01*
X158372091Y-75801620D01*
X158391378Y-75865199D01*
X158422697Y-75923794D01*
X158464847Y-75975153D01*
X158516206Y-76017303D01*
X158574801Y-76048622D01*
X158638380Y-76067909D01*
X158683799Y-76072382D01*
X158557000Y-76071578D01*
X158519655Y-76075256D01*
X158483746Y-76086149D01*
X158450652Y-76103838D01*
X158421644Y-76127644D01*
X158397838Y-76156652D01*
X158380149Y-76189746D01*
X158369256Y-76225655D01*
X158365578Y-76263000D01*
X158366500Y-76383375D01*
X158414125Y-76431000D01*
X158750000Y-76431000D01*
X158750000Y-76411000D01*
X159004000Y-76411000D01*
X159004000Y-76431000D01*
X159339875Y-76431000D01*
X159387500Y-76383375D01*
X159388422Y-76263000D01*
X159384744Y-76225655D01*
X159373851Y-76189746D01*
X159356162Y-76156652D01*
X159332356Y-76127644D01*
X159303348Y-76103838D01*
X159270254Y-76086149D01*
X159234345Y-76075256D01*
X159197000Y-76071578D01*
X159070201Y-76072382D01*
X159115620Y-76067909D01*
X159179199Y-76048622D01*
X159237794Y-76017303D01*
X159289153Y-75975153D01*
X159331303Y-75923794D01*
X159362622Y-75865199D01*
X159381909Y-75801620D01*
X159388421Y-75735500D01*
X159388421Y-75440500D01*
X159381909Y-75374380D01*
X159362622Y-75310801D01*
X159331303Y-75252206D01*
X159289153Y-75200847D01*
X159237794Y-75158697D01*
X159232600Y-75155921D01*
X159232600Y-74930000D01*
X160230707Y-74930000D01*
X160854779Y-75554073D01*
X160854779Y-75710100D01*
X160861291Y-75776220D01*
X160880578Y-75839799D01*
X160911897Y-75898394D01*
X160954047Y-75949753D01*
X161005406Y-75991903D01*
X161064001Y-76023222D01*
X161127580Y-76042509D01*
X161172999Y-76046982D01*
X161046200Y-76046178D01*
X161008855Y-76049856D01*
X160972946Y-76060749D01*
X160939852Y-76078438D01*
X160910844Y-76102244D01*
X160887038Y-76131252D01*
X160869349Y-76164346D01*
X160858456Y-76200255D01*
X160854778Y-76237600D01*
X160855700Y-76357975D01*
X160903325Y-76405600D01*
X161239200Y-76405600D01*
X161239200Y-76385600D01*
X161493200Y-76385600D01*
X161493200Y-76405600D01*
X161829075Y-76405600D01*
X161876700Y-76357975D01*
X161877622Y-76237600D01*
X161873944Y-76200255D01*
X161863051Y-76164346D01*
X161845362Y-76131252D01*
X161821556Y-76102244D01*
X161792548Y-76078438D01*
X161759454Y-76060749D01*
X161723545Y-76049856D01*
X161686200Y-76046178D01*
X161559401Y-76046982D01*
X161604820Y-76042509D01*
X161668399Y-76023222D01*
X161726994Y-75991903D01*
X161778353Y-75949753D01*
X161820503Y-75898394D01*
X161851822Y-75839799D01*
X161871109Y-75776220D01*
X161877621Y-75710100D01*
X161877621Y-75415100D01*
X161871109Y-75348980D01*
X161851822Y-75285401D01*
X161820503Y-75226806D01*
X161778353Y-75175447D01*
X161726994Y-75133297D01*
X161668399Y-75101978D01*
X161604820Y-75082691D01*
X161538700Y-75076179D01*
X161382673Y-75076179D01*
X160641799Y-74335306D01*
X160630663Y-74321737D01*
X160576516Y-74277299D01*
X160514740Y-74244279D01*
X160447710Y-74223946D01*
X160395463Y-74218800D01*
X160395455Y-74218800D01*
X160378000Y-74217081D01*
X160360545Y-74218800D01*
X159092687Y-74218800D01*
X159073813Y-74206189D01*
X158998197Y-74174868D01*
X158917923Y-74158900D01*
X158836077Y-74158900D01*
X158755803Y-74174868D01*
X158680187Y-74206189D01*
X158661313Y-74218800D01*
X157954655Y-74218800D01*
X157937200Y-74217081D01*
X157919744Y-74218800D01*
X157919737Y-74218800D01*
X157873766Y-74223328D01*
X157867489Y-74223946D01*
X157847156Y-74230114D01*
X157800460Y-74244279D01*
X157738684Y-74277299D01*
X157684537Y-74321737D01*
X157673406Y-74335300D01*
X156824674Y-75184033D01*
X156766199Y-75152778D01*
X156702620Y-75133491D01*
X156636500Y-75126979D01*
X156291500Y-75126979D01*
X156225380Y-75133491D01*
X156161801Y-75152778D01*
X156103206Y-75184097D01*
X156051847Y-75226247D01*
X156009697Y-75277606D01*
X155978378Y-75336201D01*
X155959091Y-75399780D01*
X155952579Y-75465900D01*
X155952579Y-75760900D01*
X155959091Y-75827020D01*
X155978378Y-75890599D01*
X156009697Y-75949194D01*
X156051847Y-76000553D01*
X156103206Y-76042703D01*
X156161801Y-76074022D01*
X156225380Y-76093309D01*
X156270799Y-76097782D01*
X156144000Y-76096978D01*
X156106655Y-76100656D01*
X156070746Y-76111549D01*
X156037652Y-76129238D01*
X156008644Y-76153044D01*
X155984838Y-76182052D01*
X155967149Y-76215146D01*
X155956256Y-76251055D01*
X155952578Y-76288400D01*
X146239700Y-76288400D01*
X146239700Y-70146600D01*
X163211978Y-70146600D01*
X163215656Y-70183945D01*
X163226549Y-70219854D01*
X163244238Y-70252948D01*
X163268044Y-70281956D01*
X163297052Y-70305762D01*
X163330146Y-70323451D01*
X163366055Y-70334344D01*
X163403400Y-70338022D01*
X163903775Y-70337100D01*
X163951400Y-70289475D01*
X163951400Y-68173600D01*
X164205400Y-68173600D01*
X164205400Y-70289475D01*
X164253025Y-70337100D01*
X164753400Y-70338022D01*
X164790745Y-70334344D01*
X164826654Y-70323451D01*
X164859748Y-70305762D01*
X164888756Y-70281956D01*
X164912562Y-70252948D01*
X164930251Y-70219854D01*
X164941144Y-70183945D01*
X164944822Y-70146600D01*
X168861978Y-70146600D01*
X168865656Y-70183945D01*
X168876549Y-70219854D01*
X168894238Y-70252948D01*
X168918044Y-70281956D01*
X168947052Y-70305762D01*
X168980146Y-70323451D01*
X169016055Y-70334344D01*
X169053400Y-70338022D01*
X169553775Y-70337100D01*
X169601400Y-70289475D01*
X169601400Y-68173600D01*
X169855400Y-68173600D01*
X169855400Y-70289475D01*
X169903025Y-70337100D01*
X170403400Y-70338022D01*
X170440745Y-70334344D01*
X170476654Y-70323451D01*
X170509748Y-70305762D01*
X170538756Y-70281956D01*
X170562562Y-70252948D01*
X170580251Y-70219854D01*
X170591144Y-70183945D01*
X170594822Y-70146600D01*
X170593900Y-68221225D01*
X170546275Y-68173600D01*
X169855400Y-68173600D01*
X169601400Y-68173600D01*
X168910525Y-68173600D01*
X168862900Y-68221225D01*
X168861978Y-70146600D01*
X164944822Y-70146600D01*
X164943900Y-68221225D01*
X164896275Y-68173600D01*
X164205400Y-68173600D01*
X163951400Y-68173600D01*
X163260525Y-68173600D01*
X163212900Y-68221225D01*
X163211978Y-70146600D01*
X146239700Y-70146600D01*
X146239700Y-68148200D01*
X147138066Y-68148200D01*
X147158156Y-68352174D01*
X147217653Y-68548309D01*
X147314270Y-68729068D01*
X147444296Y-68887504D01*
X147602732Y-69017530D01*
X147783491Y-69114147D01*
X147979626Y-69173644D01*
X148132490Y-69188700D01*
X148234710Y-69188700D01*
X148387574Y-69173644D01*
X148583709Y-69114147D01*
X148764468Y-69017530D01*
X148922904Y-68887504D01*
X149052930Y-68729068D01*
X149149547Y-68548309D01*
X149209044Y-68352174D01*
X149229134Y-68148200D01*
X149678066Y-68148200D01*
X149698156Y-68352174D01*
X149757653Y-68548309D01*
X149854270Y-68729068D01*
X149984296Y-68887504D01*
X150142732Y-69017530D01*
X150323491Y-69114147D01*
X150519626Y-69173644D01*
X150672490Y-69188700D01*
X150774710Y-69188700D01*
X150927574Y-69173644D01*
X151123709Y-69114147D01*
X151304468Y-69017530D01*
X151462904Y-68887504D01*
X151592930Y-68729068D01*
X151689547Y-68548309D01*
X151749044Y-68352174D01*
X151769134Y-68148200D01*
X152218066Y-68148200D01*
X152238156Y-68352174D01*
X152297653Y-68548309D01*
X152394270Y-68729068D01*
X152524296Y-68887504D01*
X152682732Y-69017530D01*
X152863491Y-69114147D01*
X153059626Y-69173644D01*
X153212490Y-69188700D01*
X153314710Y-69188700D01*
X153467574Y-69173644D01*
X153663709Y-69114147D01*
X153844468Y-69017530D01*
X154002904Y-68887504D01*
X154132930Y-68729068D01*
X154229547Y-68548309D01*
X154289044Y-68352174D01*
X154309134Y-68148200D01*
X154758066Y-68148200D01*
X154778156Y-68352174D01*
X154837653Y-68548309D01*
X154934270Y-68729068D01*
X155064296Y-68887504D01*
X155222732Y-69017530D01*
X155403491Y-69114147D01*
X155599626Y-69173644D01*
X155752490Y-69188700D01*
X155854710Y-69188700D01*
X156007574Y-69173644D01*
X156203709Y-69114147D01*
X156384468Y-69017530D01*
X156542904Y-68887504D01*
X156672930Y-68729068D01*
X156769547Y-68548309D01*
X156829044Y-68352174D01*
X156849134Y-68148200D01*
X157298066Y-68148200D01*
X157318156Y-68352174D01*
X157377653Y-68548309D01*
X157474270Y-68729068D01*
X157604296Y-68887504D01*
X157762732Y-69017530D01*
X157943491Y-69114147D01*
X158139626Y-69173644D01*
X158292490Y-69188700D01*
X158394710Y-69188700D01*
X158547574Y-69173644D01*
X158743709Y-69114147D01*
X158924468Y-69017530D01*
X159082904Y-68887504D01*
X159212930Y-68729068D01*
X159309547Y-68548309D01*
X159369044Y-68352174D01*
X159389134Y-68148200D01*
X159369044Y-67944226D01*
X159309547Y-67748091D01*
X159212930Y-67567332D01*
X159082904Y-67408896D01*
X158948022Y-67298200D01*
X159842179Y-67298200D01*
X159842179Y-68998200D01*
X159845857Y-69035544D01*
X159856750Y-69071454D01*
X159874439Y-69104548D01*
X159898245Y-69133555D01*
X159927252Y-69157361D01*
X159960346Y-69175050D01*
X159996256Y-69185943D01*
X160033600Y-69189621D01*
X161733600Y-69189621D01*
X161770944Y-69185943D01*
X161806854Y-69175050D01*
X161839948Y-69157361D01*
X161868955Y-69133555D01*
X161892761Y-69104548D01*
X161910450Y-69071454D01*
X161921343Y-69035544D01*
X161925021Y-68998200D01*
X161925021Y-67298200D01*
X161921343Y-67260856D01*
X161910450Y-67224946D01*
X161892761Y-67191852D01*
X161868955Y-67162845D01*
X161839948Y-67139039D01*
X161806854Y-67121350D01*
X161770944Y-67110457D01*
X161733600Y-67106779D01*
X160033600Y-67106779D01*
X159996256Y-67110457D01*
X159960346Y-67121350D01*
X159927252Y-67139039D01*
X159898245Y-67162845D01*
X159874439Y-67191852D01*
X159856750Y-67224946D01*
X159845857Y-67260856D01*
X159842179Y-67298200D01*
X158948022Y-67298200D01*
X158924468Y-67278870D01*
X158743709Y-67182253D01*
X158547574Y-67122756D01*
X158394710Y-67107700D01*
X158292490Y-67107700D01*
X158139626Y-67122756D01*
X157943491Y-67182253D01*
X157762732Y-67278870D01*
X157604296Y-67408896D01*
X157474270Y-67567332D01*
X157377653Y-67748091D01*
X157318156Y-67944226D01*
X157298066Y-68148200D01*
X156849134Y-68148200D01*
X156829044Y-67944226D01*
X156769547Y-67748091D01*
X156672930Y-67567332D01*
X156542904Y-67408896D01*
X156384468Y-67278870D01*
X156203709Y-67182253D01*
X156007574Y-67122756D01*
X155854710Y-67107700D01*
X155752490Y-67107700D01*
X155599626Y-67122756D01*
X155403491Y-67182253D01*
X155222732Y-67278870D01*
X155064296Y-67408896D01*
X154934270Y-67567332D01*
X154837653Y-67748091D01*
X154778156Y-67944226D01*
X154758066Y-68148200D01*
X154309134Y-68148200D01*
X154289044Y-67944226D01*
X154229547Y-67748091D01*
X154132930Y-67567332D01*
X154002904Y-67408896D01*
X153844468Y-67278870D01*
X153663709Y-67182253D01*
X153467574Y-67122756D01*
X153314710Y-67107700D01*
X153212490Y-67107700D01*
X153059626Y-67122756D01*
X152863491Y-67182253D01*
X152682732Y-67278870D01*
X152524296Y-67408896D01*
X152394270Y-67567332D01*
X152297653Y-67748091D01*
X152238156Y-67944226D01*
X152218066Y-68148200D01*
X151769134Y-68148200D01*
X151749044Y-67944226D01*
X151689547Y-67748091D01*
X151592930Y-67567332D01*
X151462904Y-67408896D01*
X151304468Y-67278870D01*
X151123709Y-67182253D01*
X150927574Y-67122756D01*
X150774710Y-67107700D01*
X150672490Y-67107700D01*
X150519626Y-67122756D01*
X150323491Y-67182253D01*
X150142732Y-67278870D01*
X149984296Y-67408896D01*
X149854270Y-67567332D01*
X149757653Y-67748091D01*
X149698156Y-67944226D01*
X149678066Y-68148200D01*
X149229134Y-68148200D01*
X149209044Y-67944226D01*
X149149547Y-67748091D01*
X149052930Y-67567332D01*
X148922904Y-67408896D01*
X148764468Y-67278870D01*
X148583709Y-67182253D01*
X148387574Y-67122756D01*
X148234710Y-67107700D01*
X148132490Y-67107700D01*
X147979626Y-67122756D01*
X147783491Y-67182253D01*
X147602732Y-67278870D01*
X147444296Y-67408896D01*
X147314270Y-67567332D01*
X147217653Y-67748091D01*
X147158156Y-67944226D01*
X147138066Y-68148200D01*
X146239700Y-68148200D01*
X146239700Y-66178900D01*
X163212089Y-66178900D01*
X163212900Y-67871975D01*
M02*
