%TF.GenerationSoftware,KiCad,Pcbnew,(5.1.4)-1*%
%TF.CreationDate,2019-10-27T14:05:37-07:00*%
%TF.ProjectId,spriteSAMD,73707269-7465-4534-914d-442e6b696361,rev?*%
%TF.SameCoordinates,Original*%
%TF.FileFunction,Soldermask,Top*%
%TF.FilePolarity,Negative*%
%FSLAX46Y46*%
G04 Gerber Fmt 4.6, Leading zero omitted, Abs format (unit mm)*
G04 Created by KiCad (PCBNEW (5.1.4)-1) date 2019-10-27 14:05:37*
%MOMM*%
%LPD*%
G04 APERTURE LIST*
%ADD10C,0.100000*%
%ADD11O,1.750800X1.750800*%
%ADD12R,1.750800X1.750800*%
%ADD13R,1.320800X3.650800*%
%ADD14R,1.400800X4.250800*%
%ADD15R,1.050800X1.850800*%
G04 APERTURE END LIST*
D10*
X145999200Y-65938400D02*
X170408600Y-65938400D01*
X145999200Y-95707200D02*
X145999200Y-65938400D01*
X171704000Y-95707200D02*
X145999200Y-95707200D01*
X171704000Y-65938400D02*
X171704000Y-95707200D01*
X170408600Y-65938400D02*
X171704000Y-65938400D01*
D11*
X148183600Y-68148200D03*
X150723600Y-68148200D03*
X153263600Y-68148200D03*
X155803600Y-68148200D03*
X158343600Y-68148200D03*
D12*
X160883600Y-68148200D03*
D13*
X166903400Y-67846600D03*
D14*
X164078400Y-68046600D03*
X169728400Y-68046600D03*
D11*
X168732200Y-93548200D03*
X166192200Y-93548200D03*
X163652200Y-93548200D03*
X161112200Y-93548200D03*
X158572200Y-93548200D03*
X156032200Y-93548200D03*
X153492200Y-93548200D03*
D12*
X150952200Y-93548200D03*
D15*
X152893000Y-72846600D03*
X154893000Y-72846600D03*
X156893000Y-72846600D03*
X158893000Y-72846600D03*
X160893000Y-72846600D03*
X162893000Y-72846600D03*
X164893000Y-72846600D03*
X166893000Y-72846600D03*
X166893000Y-88646600D03*
X164893000Y-88646600D03*
X162893000Y-88646600D03*
X160893000Y-88646600D03*
X158893000Y-88646600D03*
X156893000Y-88646600D03*
X154893000Y-88646600D03*
X152893000Y-88646600D03*
M02*
