%TF.GenerationSoftware,KiCad,Pcbnew,(5.1.4)-1*%
%TF.CreationDate,2019-10-27T14:05:36-07:00*%
%TF.ProjectId,spriteSAMD,73707269-7465-4534-914d-442e6b696361,rev?*%
%TF.SameCoordinates,Original*%
%TF.FileFunction,Copper,L1,Top*%
%TF.FilePolarity,Positive*%
%FSLAX46Y46*%
G04 Gerber Fmt 4.6, Leading zero omitted, Abs format (unit mm)*
G04 Created by KiCad (PCBNEW (5.1.4)-1) date 2019-10-27 14:05:36*
%MOMM*%
%LPD*%
G04 APERTURE LIST*
%ADD10C,0.100000*%
%ADD11O,1.700000X1.700000*%
%ADD12R,1.700000X1.700000*%
%ADD13R,1.270000X3.600000*%
%ADD14R,1.350000X4.200000*%
%ADD15R,1.000000X1.800000*%
%ADD16C,0.450000*%
%ADD17C,0.330200*%
%ADD18C,0.548640*%
%ADD19C,0.600000*%
%ADD20C,0.127000*%
G04 APERTURE END LIST*
D10*
X145999200Y-65938400D02*
X170408600Y-65938400D01*
X145999200Y-95707200D02*
X145999200Y-65938400D01*
X171704000Y-95707200D02*
X145999200Y-95707200D01*
X171704000Y-65938400D02*
X171704000Y-95707200D01*
X170408600Y-65938400D02*
X171704000Y-65938400D01*
D11*
X148183600Y-68148200D03*
X150723600Y-68148200D03*
X153263600Y-68148200D03*
X155803600Y-68148200D03*
X158343600Y-68148200D03*
D12*
X160883600Y-68148200D03*
D13*
X166903400Y-67846600D03*
D14*
X164078400Y-68046600D03*
X169728400Y-68046600D03*
D11*
X168732200Y-93548200D03*
X166192200Y-93548200D03*
X163652200Y-93548200D03*
X161112200Y-93548200D03*
X158572200Y-93548200D03*
X156032200Y-93548200D03*
X153492200Y-93548200D03*
D12*
X150952200Y-93548200D03*
D15*
X152893000Y-72846600D03*
X154893000Y-72846600D03*
X156893000Y-72846600D03*
X158893000Y-72846600D03*
X160893000Y-72846600D03*
X162893000Y-72846600D03*
X164893000Y-72846600D03*
X166893000Y-72846600D03*
X166893000Y-88646600D03*
X164893000Y-88646600D03*
X162893000Y-88646600D03*
X160893000Y-88646600D03*
X158893000Y-88646600D03*
X156893000Y-88646600D03*
X154893000Y-88646600D03*
X152893000Y-88646600D03*
D16*
X168325800Y-67589400D03*
X166065200Y-70104000D03*
X166116000Y-70688200D03*
X166090600Y-71399400D03*
X167767000Y-70078600D03*
X167716200Y-70662800D03*
X167741600Y-71374000D03*
X167919400Y-72085200D03*
X167919400Y-72745600D03*
X167944800Y-73380600D03*
X167817800Y-74015600D03*
X167360600Y-74269600D03*
X166725600Y-74295000D03*
X166116000Y-74193400D03*
X165963600Y-72847200D03*
X165506400Y-66725800D03*
X165506400Y-67589400D03*
X165506400Y-68503800D03*
X165531800Y-69392800D03*
X168300400Y-69418200D03*
X168300400Y-68529200D03*
X168325800Y-66700400D03*
X158877000Y-74574400D03*
D17*
X166893000Y-91709000D02*
X168732200Y-93548200D01*
X166893000Y-88646600D02*
X166893000Y-91709000D01*
X154893000Y-88646600D02*
X154893000Y-90242400D01*
X153492200Y-91643200D02*
X153492200Y-93548200D01*
X154893000Y-90242400D02*
X153492200Y-91643200D01*
X158893000Y-88646600D02*
X158893000Y-90585800D01*
X158572200Y-90906600D02*
X158572200Y-93548200D01*
X158893000Y-90585800D02*
X158572200Y-90906600D01*
X156032200Y-91059000D02*
X156032200Y-93548200D01*
X156893000Y-88646600D02*
X156893000Y-90198200D01*
X156893000Y-90198200D02*
X156032200Y-91059000D01*
X160893000Y-93329000D02*
X161112200Y-93548200D01*
X160893000Y-88646600D02*
X160893000Y-93329000D01*
X162893000Y-92789000D02*
X163652200Y-93548200D01*
X162893000Y-88646600D02*
X162893000Y-92789000D01*
X162893000Y-72446600D02*
X162893000Y-72846600D01*
X160883600Y-70437200D02*
X162893000Y-72446600D01*
X160883600Y-68148200D02*
X160883600Y-70437200D01*
X158343600Y-69897200D02*
X158343600Y-68148200D01*
X160893000Y-72846600D02*
X160893000Y-72446600D01*
X160893000Y-72446600D02*
X158343600Y-69897200D01*
X158877000Y-72862600D02*
X158893000Y-72846600D01*
X158877000Y-74574400D02*
X158877000Y-72862600D01*
D18*
X156893000Y-72446600D02*
X156893000Y-72846600D01*
X154113599Y-69667199D02*
X156893000Y-72446600D01*
X153263600Y-68148200D02*
X154113599Y-68998199D01*
X154113599Y-68998199D02*
X154113599Y-69667199D01*
X156893000Y-72846600D02*
X158893000Y-72846600D01*
D17*
X154893000Y-72317600D02*
X154893000Y-72846600D01*
X150723600Y-68148200D02*
X154893000Y-72317600D01*
X152882000Y-72846600D02*
X152893000Y-72846600D01*
X148183600Y-68148200D02*
X152882000Y-72846600D01*
X164893000Y-92249000D02*
X166192200Y-93548200D01*
X164893000Y-88646600D02*
X164893000Y-92249000D01*
D19*
X166903400Y-72836200D02*
X166893000Y-72846600D01*
X166903400Y-67846600D02*
X166903400Y-72836200D01*
D20*
G36*
X163212900Y-67871975D02*
G01*
X163260525Y-67919600D01*
X163951400Y-67919600D01*
X163951400Y-67899600D01*
X164205400Y-67899600D01*
X164205400Y-67919600D01*
X164896275Y-67919600D01*
X164943900Y-67871975D01*
X164944711Y-66178900D01*
X166076979Y-66178900D01*
X166076979Y-69646600D01*
X166080657Y-69683944D01*
X166091550Y-69719854D01*
X166109239Y-69752948D01*
X166133045Y-69781955D01*
X166162052Y-69805761D01*
X166195146Y-69823450D01*
X166231056Y-69834343D01*
X166268400Y-69838021D01*
X166408100Y-69838021D01*
X166408100Y-71755179D01*
X166393000Y-71755179D01*
X166355656Y-71758857D01*
X166319746Y-71769750D01*
X166286652Y-71787439D01*
X166257645Y-71811245D01*
X166233839Y-71840252D01*
X166216150Y-71873346D01*
X166205257Y-71909256D01*
X166201579Y-71946600D01*
X166201579Y-73746600D01*
X166205257Y-73783944D01*
X166216150Y-73819854D01*
X166233839Y-73852948D01*
X166257645Y-73881955D01*
X166286652Y-73905761D01*
X166319746Y-73923450D01*
X166355656Y-73934343D01*
X166393000Y-73938021D01*
X167393000Y-73938021D01*
X167430344Y-73934343D01*
X167466254Y-73923450D01*
X167499348Y-73905761D01*
X167528355Y-73881955D01*
X167552161Y-73852948D01*
X167569850Y-73819854D01*
X167580743Y-73783944D01*
X167584421Y-73746600D01*
X167584421Y-71946600D01*
X167580743Y-71909256D01*
X167569850Y-71873346D01*
X167552161Y-71840252D01*
X167528355Y-71811245D01*
X167499348Y-71787439D01*
X167466254Y-71769750D01*
X167430344Y-71758857D01*
X167398700Y-71755740D01*
X167398700Y-70146600D01*
X168861978Y-70146600D01*
X168865656Y-70183945D01*
X168876549Y-70219854D01*
X168894238Y-70252948D01*
X168918044Y-70281956D01*
X168947052Y-70305762D01*
X168980146Y-70323451D01*
X169016055Y-70334344D01*
X169053400Y-70338022D01*
X169553775Y-70337100D01*
X169601400Y-70289475D01*
X169601400Y-68173600D01*
X169855400Y-68173600D01*
X169855400Y-70289475D01*
X169903025Y-70337100D01*
X170403400Y-70338022D01*
X170440745Y-70334344D01*
X170476654Y-70323451D01*
X170509748Y-70305762D01*
X170538756Y-70281956D01*
X170562562Y-70252948D01*
X170580251Y-70219854D01*
X170591144Y-70183945D01*
X170594822Y-70146600D01*
X170593900Y-68221225D01*
X170546275Y-68173600D01*
X169855400Y-68173600D01*
X169601400Y-68173600D01*
X168910525Y-68173600D01*
X168862900Y-68221225D01*
X168861978Y-70146600D01*
X167398700Y-70146600D01*
X167398700Y-69838021D01*
X167538400Y-69838021D01*
X167575744Y-69834343D01*
X167611654Y-69823450D01*
X167644748Y-69805761D01*
X167673755Y-69781955D01*
X167697561Y-69752948D01*
X167715250Y-69719854D01*
X167726143Y-69683944D01*
X167729821Y-69646600D01*
X167729821Y-66178900D01*
X168862089Y-66178900D01*
X168862900Y-67871975D01*
X168910525Y-67919600D01*
X169601400Y-67919600D01*
X169601400Y-67899600D01*
X169855400Y-67899600D01*
X169855400Y-67919600D01*
X170546275Y-67919600D01*
X170593900Y-67871975D01*
X170594711Y-66178900D01*
X171463500Y-66178900D01*
X171463501Y-95466700D01*
X146239700Y-95466700D01*
X146239700Y-92698200D01*
X149910779Y-92698200D01*
X149910779Y-94398200D01*
X149914457Y-94435544D01*
X149925350Y-94471454D01*
X149943039Y-94504548D01*
X149966845Y-94533555D01*
X149995852Y-94557361D01*
X150028946Y-94575050D01*
X150064856Y-94585943D01*
X150102200Y-94589621D01*
X151802200Y-94589621D01*
X151839544Y-94585943D01*
X151875454Y-94575050D01*
X151908548Y-94557361D01*
X151937555Y-94533555D01*
X151961361Y-94504548D01*
X151979050Y-94471454D01*
X151989943Y-94435544D01*
X151993621Y-94398200D01*
X151993621Y-93548200D01*
X152446666Y-93548200D01*
X152466756Y-93752174D01*
X152526253Y-93948309D01*
X152622870Y-94129068D01*
X152752896Y-94287504D01*
X152911332Y-94417530D01*
X153092091Y-94514147D01*
X153288226Y-94573644D01*
X153441090Y-94588700D01*
X153543310Y-94588700D01*
X153696174Y-94573644D01*
X153892309Y-94514147D01*
X154073068Y-94417530D01*
X154231504Y-94287504D01*
X154361530Y-94129068D01*
X154458147Y-93948309D01*
X154517644Y-93752174D01*
X154537734Y-93548200D01*
X154986666Y-93548200D01*
X155006756Y-93752174D01*
X155066253Y-93948309D01*
X155162870Y-94129068D01*
X155292896Y-94287504D01*
X155451332Y-94417530D01*
X155632091Y-94514147D01*
X155828226Y-94573644D01*
X155981090Y-94588700D01*
X156083310Y-94588700D01*
X156236174Y-94573644D01*
X156432309Y-94514147D01*
X156613068Y-94417530D01*
X156771504Y-94287504D01*
X156901530Y-94129068D01*
X156998147Y-93948309D01*
X157057644Y-93752174D01*
X157077734Y-93548200D01*
X157526666Y-93548200D01*
X157546756Y-93752174D01*
X157606253Y-93948309D01*
X157702870Y-94129068D01*
X157832896Y-94287504D01*
X157991332Y-94417530D01*
X158172091Y-94514147D01*
X158368226Y-94573644D01*
X158521090Y-94588700D01*
X158623310Y-94588700D01*
X158776174Y-94573644D01*
X158972309Y-94514147D01*
X159153068Y-94417530D01*
X159311504Y-94287504D01*
X159441530Y-94129068D01*
X159538147Y-93948309D01*
X159597644Y-93752174D01*
X159617734Y-93548200D01*
X160066666Y-93548200D01*
X160086756Y-93752174D01*
X160146253Y-93948309D01*
X160242870Y-94129068D01*
X160372896Y-94287504D01*
X160531332Y-94417530D01*
X160712091Y-94514147D01*
X160908226Y-94573644D01*
X161061090Y-94588700D01*
X161163310Y-94588700D01*
X161316174Y-94573644D01*
X161512309Y-94514147D01*
X161693068Y-94417530D01*
X161851504Y-94287504D01*
X161981530Y-94129068D01*
X162078147Y-93948309D01*
X162137644Y-93752174D01*
X162157734Y-93548200D01*
X162137644Y-93344226D01*
X162078147Y-93148091D01*
X161981530Y-92967332D01*
X161851504Y-92808896D01*
X161693068Y-92678870D01*
X161512309Y-92582253D01*
X161316174Y-92522756D01*
X161248600Y-92516100D01*
X161248600Y-89738021D01*
X161393000Y-89738021D01*
X161430344Y-89734343D01*
X161466254Y-89723450D01*
X161499348Y-89705761D01*
X161528355Y-89681955D01*
X161552161Y-89652948D01*
X161569850Y-89619854D01*
X161580743Y-89583944D01*
X161584421Y-89546600D01*
X161584421Y-87746600D01*
X162201579Y-87746600D01*
X162201579Y-89546600D01*
X162205257Y-89583944D01*
X162216150Y-89619854D01*
X162233839Y-89652948D01*
X162257645Y-89681955D01*
X162286652Y-89705761D01*
X162319746Y-89723450D01*
X162355656Y-89734343D01*
X162393000Y-89738021D01*
X162537400Y-89738021D01*
X162537401Y-92771535D01*
X162535681Y-92789000D01*
X162542546Y-92858710D01*
X162562880Y-92925741D01*
X162579390Y-92956628D01*
X162595900Y-92987516D01*
X162640338Y-93041663D01*
X162653901Y-93052794D01*
X162708178Y-93107071D01*
X162686253Y-93148091D01*
X162626756Y-93344226D01*
X162606666Y-93548200D01*
X162626756Y-93752174D01*
X162686253Y-93948309D01*
X162782870Y-94129068D01*
X162912896Y-94287504D01*
X163071332Y-94417530D01*
X163252091Y-94514147D01*
X163448226Y-94573644D01*
X163601090Y-94588700D01*
X163703310Y-94588700D01*
X163856174Y-94573644D01*
X164052309Y-94514147D01*
X164233068Y-94417530D01*
X164391504Y-94287504D01*
X164521530Y-94129068D01*
X164618147Y-93948309D01*
X164677644Y-93752174D01*
X164697734Y-93548200D01*
X164677644Y-93344226D01*
X164618147Y-93148091D01*
X164521530Y-92967332D01*
X164391504Y-92808896D01*
X164233068Y-92678870D01*
X164052309Y-92582253D01*
X163856174Y-92522756D01*
X163703310Y-92507700D01*
X163601090Y-92507700D01*
X163448226Y-92522756D01*
X163252091Y-92582253D01*
X163248600Y-92584119D01*
X163248600Y-89738021D01*
X163393000Y-89738021D01*
X163430344Y-89734343D01*
X163466254Y-89723450D01*
X163499348Y-89705761D01*
X163528355Y-89681955D01*
X163552161Y-89652948D01*
X163569850Y-89619854D01*
X163580743Y-89583944D01*
X163584421Y-89546600D01*
X163584421Y-87746600D01*
X164201579Y-87746600D01*
X164201579Y-89546600D01*
X164205257Y-89583944D01*
X164216150Y-89619854D01*
X164233839Y-89652948D01*
X164257645Y-89681955D01*
X164286652Y-89705761D01*
X164319746Y-89723450D01*
X164355656Y-89734343D01*
X164393000Y-89738021D01*
X164537400Y-89738021D01*
X164537401Y-92231535D01*
X164535681Y-92249000D01*
X164542546Y-92318710D01*
X164562880Y-92385741D01*
X164579390Y-92416628D01*
X164595900Y-92447516D01*
X164640338Y-92501663D01*
X164653901Y-92512794D01*
X165248178Y-93107072D01*
X165226253Y-93148091D01*
X165166756Y-93344226D01*
X165146666Y-93548200D01*
X165166756Y-93752174D01*
X165226253Y-93948309D01*
X165322870Y-94129068D01*
X165452896Y-94287504D01*
X165611332Y-94417530D01*
X165792091Y-94514147D01*
X165988226Y-94573644D01*
X166141090Y-94588700D01*
X166243310Y-94588700D01*
X166396174Y-94573644D01*
X166592309Y-94514147D01*
X166773068Y-94417530D01*
X166931504Y-94287504D01*
X167061530Y-94129068D01*
X167158147Y-93948309D01*
X167192461Y-93835191D01*
X167732055Y-93835191D01*
X167807262Y-94024795D01*
X167918013Y-94196084D01*
X168060053Y-94342475D01*
X168227923Y-94458343D01*
X168415173Y-94539234D01*
X168445211Y-94548338D01*
X168605200Y-94532919D01*
X168605200Y-93675200D01*
X168859200Y-93675200D01*
X168859200Y-94532919D01*
X169019189Y-94548338D01*
X169049227Y-94539234D01*
X169236477Y-94458343D01*
X169404347Y-94342475D01*
X169546387Y-94196084D01*
X169657138Y-94024795D01*
X169732345Y-93835191D01*
X169717302Y-93675200D01*
X168859200Y-93675200D01*
X168605200Y-93675200D01*
X167747098Y-93675200D01*
X167732055Y-93835191D01*
X167192461Y-93835191D01*
X167217644Y-93752174D01*
X167237734Y-93548200D01*
X167217644Y-93344226D01*
X167192462Y-93261209D01*
X167732055Y-93261209D01*
X167747098Y-93421200D01*
X168605200Y-93421200D01*
X168605200Y-92563481D01*
X168859200Y-92563481D01*
X168859200Y-93421200D01*
X169717302Y-93421200D01*
X169732345Y-93261209D01*
X169657138Y-93071605D01*
X169546387Y-92900316D01*
X169404347Y-92753925D01*
X169236477Y-92638057D01*
X169049227Y-92557166D01*
X169019189Y-92548062D01*
X168859200Y-92563481D01*
X168605200Y-92563481D01*
X168445211Y-92548062D01*
X168415173Y-92557166D01*
X168227923Y-92638057D01*
X168060053Y-92753925D01*
X167918013Y-92900316D01*
X167807262Y-93071605D01*
X167732055Y-93261209D01*
X167192462Y-93261209D01*
X167158147Y-93148091D01*
X167061530Y-92967332D01*
X166931504Y-92808896D01*
X166773068Y-92678870D01*
X166592309Y-92582253D01*
X166396174Y-92522756D01*
X166243310Y-92507700D01*
X166141090Y-92507700D01*
X165988226Y-92522756D01*
X165792091Y-92582253D01*
X165751072Y-92604178D01*
X165248600Y-92101707D01*
X165248600Y-89738021D01*
X165393000Y-89738021D01*
X165430344Y-89734343D01*
X165466254Y-89723450D01*
X165499348Y-89705761D01*
X165528355Y-89681955D01*
X165552161Y-89652948D01*
X165569850Y-89619854D01*
X165580743Y-89583944D01*
X165584421Y-89546600D01*
X166201578Y-89546600D01*
X166205256Y-89583945D01*
X166216149Y-89619854D01*
X166233838Y-89652948D01*
X166257644Y-89681956D01*
X166286652Y-89705762D01*
X166319746Y-89723451D01*
X166355655Y-89734344D01*
X166393000Y-89738022D01*
X166718375Y-89737100D01*
X166766000Y-89689475D01*
X166766000Y-88773600D01*
X167020000Y-88773600D01*
X167020000Y-89689475D01*
X167067625Y-89737100D01*
X167393000Y-89738022D01*
X167430345Y-89734344D01*
X167466254Y-89723451D01*
X167499348Y-89705762D01*
X167528356Y-89681956D01*
X167552162Y-89652948D01*
X167569851Y-89619854D01*
X167580744Y-89583945D01*
X167584422Y-89546600D01*
X167583500Y-88821225D01*
X167535875Y-88773600D01*
X167020000Y-88773600D01*
X166766000Y-88773600D01*
X166250125Y-88773600D01*
X166202500Y-88821225D01*
X166201578Y-89546600D01*
X165584421Y-89546600D01*
X165584421Y-87746600D01*
X166201578Y-87746600D01*
X166202500Y-88471975D01*
X166250125Y-88519600D01*
X166766000Y-88519600D01*
X166766000Y-87603725D01*
X167020000Y-87603725D01*
X167020000Y-88519600D01*
X167535875Y-88519600D01*
X167583500Y-88471975D01*
X167584422Y-87746600D01*
X167580744Y-87709255D01*
X167569851Y-87673346D01*
X167552162Y-87640252D01*
X167528356Y-87611244D01*
X167499348Y-87587438D01*
X167466254Y-87569749D01*
X167430345Y-87558856D01*
X167393000Y-87555178D01*
X167067625Y-87556100D01*
X167020000Y-87603725D01*
X166766000Y-87603725D01*
X166718375Y-87556100D01*
X166393000Y-87555178D01*
X166355655Y-87558856D01*
X166319746Y-87569749D01*
X166286652Y-87587438D01*
X166257644Y-87611244D01*
X166233838Y-87640252D01*
X166216149Y-87673346D01*
X166205256Y-87709255D01*
X166201578Y-87746600D01*
X165584421Y-87746600D01*
X165580743Y-87709256D01*
X165569850Y-87673346D01*
X165552161Y-87640252D01*
X165528355Y-87611245D01*
X165499348Y-87587439D01*
X165466254Y-87569750D01*
X165430344Y-87558857D01*
X165393000Y-87555179D01*
X164393000Y-87555179D01*
X164355656Y-87558857D01*
X164319746Y-87569750D01*
X164286652Y-87587439D01*
X164257645Y-87611245D01*
X164233839Y-87640252D01*
X164216150Y-87673346D01*
X164205257Y-87709256D01*
X164201579Y-87746600D01*
X163584421Y-87746600D01*
X163580743Y-87709256D01*
X163569850Y-87673346D01*
X163552161Y-87640252D01*
X163528355Y-87611245D01*
X163499348Y-87587439D01*
X163466254Y-87569750D01*
X163430344Y-87558857D01*
X163393000Y-87555179D01*
X162393000Y-87555179D01*
X162355656Y-87558857D01*
X162319746Y-87569750D01*
X162286652Y-87587439D01*
X162257645Y-87611245D01*
X162233839Y-87640252D01*
X162216150Y-87673346D01*
X162205257Y-87709256D01*
X162201579Y-87746600D01*
X161584421Y-87746600D01*
X161580743Y-87709256D01*
X161569850Y-87673346D01*
X161552161Y-87640252D01*
X161528355Y-87611245D01*
X161499348Y-87587439D01*
X161466254Y-87569750D01*
X161430344Y-87558857D01*
X161393000Y-87555179D01*
X160393000Y-87555179D01*
X160355656Y-87558857D01*
X160319746Y-87569750D01*
X160286652Y-87587439D01*
X160257645Y-87611245D01*
X160233839Y-87640252D01*
X160216150Y-87673346D01*
X160205257Y-87709256D01*
X160201579Y-87746600D01*
X160201579Y-89546600D01*
X160205257Y-89583944D01*
X160216150Y-89619854D01*
X160233839Y-89652948D01*
X160257645Y-89681955D01*
X160286652Y-89705761D01*
X160319746Y-89723450D01*
X160355656Y-89734343D01*
X160393000Y-89738021D01*
X160537400Y-89738021D01*
X160537401Y-92675626D01*
X160531332Y-92678870D01*
X160372896Y-92808896D01*
X160242870Y-92967332D01*
X160146253Y-93148091D01*
X160086756Y-93344226D01*
X160066666Y-93548200D01*
X159617734Y-93548200D01*
X159597644Y-93344226D01*
X159538147Y-93148091D01*
X159441530Y-92967332D01*
X159311504Y-92808896D01*
X159153068Y-92678870D01*
X158972309Y-92582253D01*
X158927800Y-92568751D01*
X158927800Y-91053893D01*
X159132099Y-90849595D01*
X159145663Y-90838463D01*
X159190101Y-90784316D01*
X159223121Y-90722540D01*
X159243454Y-90655510D01*
X159248600Y-90603263D01*
X159248600Y-90603255D01*
X159250319Y-90585800D01*
X159248600Y-90568345D01*
X159248600Y-89738021D01*
X159393000Y-89738021D01*
X159430344Y-89734343D01*
X159466254Y-89723450D01*
X159499348Y-89705761D01*
X159528355Y-89681955D01*
X159552161Y-89652948D01*
X159569850Y-89619854D01*
X159580743Y-89583944D01*
X159584421Y-89546600D01*
X159584421Y-87746600D01*
X159580743Y-87709256D01*
X159569850Y-87673346D01*
X159552161Y-87640252D01*
X159528355Y-87611245D01*
X159499348Y-87587439D01*
X159466254Y-87569750D01*
X159430344Y-87558857D01*
X159393000Y-87555179D01*
X158393000Y-87555179D01*
X158355656Y-87558857D01*
X158319746Y-87569750D01*
X158286652Y-87587439D01*
X158257645Y-87611245D01*
X158233839Y-87640252D01*
X158216150Y-87673346D01*
X158205257Y-87709256D01*
X158201579Y-87746600D01*
X158201579Y-89546600D01*
X158205257Y-89583944D01*
X158216150Y-89619854D01*
X158233839Y-89652948D01*
X158257645Y-89681955D01*
X158286652Y-89705761D01*
X158319746Y-89723450D01*
X158355656Y-89734343D01*
X158393000Y-89738021D01*
X158537401Y-89738021D01*
X158537401Y-90438505D01*
X158333101Y-90642806D01*
X158319537Y-90653938D01*
X158275099Y-90708085D01*
X158246335Y-90761899D01*
X158242080Y-90769859D01*
X158225384Y-90824899D01*
X158221746Y-90836891D01*
X158216600Y-90889138D01*
X158216600Y-90889145D01*
X158214881Y-90906600D01*
X158216600Y-90924056D01*
X158216601Y-92568751D01*
X158172091Y-92582253D01*
X157991332Y-92678870D01*
X157832896Y-92808896D01*
X157702870Y-92967332D01*
X157606253Y-93148091D01*
X157546756Y-93344226D01*
X157526666Y-93548200D01*
X157077734Y-93548200D01*
X157057644Y-93344226D01*
X156998147Y-93148091D01*
X156901530Y-92967332D01*
X156771504Y-92808896D01*
X156613068Y-92678870D01*
X156432309Y-92582253D01*
X156387800Y-92568751D01*
X156387800Y-91206293D01*
X157132100Y-90461994D01*
X157145663Y-90450863D01*
X157190101Y-90396716D01*
X157223121Y-90334940D01*
X157243454Y-90267910D01*
X157248600Y-90215663D01*
X157248600Y-90215656D01*
X157250319Y-90198201D01*
X157248600Y-90180745D01*
X157248600Y-89738021D01*
X157393000Y-89738021D01*
X157430344Y-89734343D01*
X157466254Y-89723450D01*
X157499348Y-89705761D01*
X157528355Y-89681955D01*
X157552161Y-89652948D01*
X157569850Y-89619854D01*
X157580743Y-89583944D01*
X157584421Y-89546600D01*
X157584421Y-87746600D01*
X157580743Y-87709256D01*
X157569850Y-87673346D01*
X157552161Y-87640252D01*
X157528355Y-87611245D01*
X157499348Y-87587439D01*
X157466254Y-87569750D01*
X157430344Y-87558857D01*
X157393000Y-87555179D01*
X156393000Y-87555179D01*
X156355656Y-87558857D01*
X156319746Y-87569750D01*
X156286652Y-87587439D01*
X156257645Y-87611245D01*
X156233839Y-87640252D01*
X156216150Y-87673346D01*
X156205257Y-87709256D01*
X156201579Y-87746600D01*
X156201579Y-89546600D01*
X156205257Y-89583944D01*
X156216150Y-89619854D01*
X156233839Y-89652948D01*
X156257645Y-89681955D01*
X156286652Y-89705761D01*
X156319746Y-89723450D01*
X156355656Y-89734343D01*
X156393000Y-89738021D01*
X156537401Y-89738021D01*
X156537401Y-90050905D01*
X155793101Y-90795205D01*
X155779537Y-90806338D01*
X155735099Y-90860485D01*
X155702079Y-90922261D01*
X155681746Y-90989291D01*
X155676600Y-91041538D01*
X155676600Y-91041545D01*
X155674881Y-91059000D01*
X155676600Y-91076456D01*
X155676601Y-92568751D01*
X155632091Y-92582253D01*
X155451332Y-92678870D01*
X155292896Y-92808896D01*
X155162870Y-92967332D01*
X155066253Y-93148091D01*
X155006756Y-93344226D01*
X154986666Y-93548200D01*
X154537734Y-93548200D01*
X154517644Y-93344226D01*
X154458147Y-93148091D01*
X154361530Y-92967332D01*
X154231504Y-92808896D01*
X154073068Y-92678870D01*
X153892309Y-92582253D01*
X153847800Y-92568751D01*
X153847800Y-91790493D01*
X155132105Y-90506190D01*
X155145663Y-90495063D01*
X155156790Y-90481505D01*
X155156795Y-90481500D01*
X155190100Y-90440917D01*
X155223120Y-90379142D01*
X155236528Y-90334942D01*
X155243454Y-90312110D01*
X155248600Y-90259863D01*
X155248600Y-90259854D01*
X155250319Y-90242401D01*
X155248600Y-90224948D01*
X155248600Y-89738021D01*
X155393000Y-89738021D01*
X155430344Y-89734343D01*
X155466254Y-89723450D01*
X155499348Y-89705761D01*
X155528355Y-89681955D01*
X155552161Y-89652948D01*
X155569850Y-89619854D01*
X155580743Y-89583944D01*
X155584421Y-89546600D01*
X155584421Y-87746600D01*
X155580743Y-87709256D01*
X155569850Y-87673346D01*
X155552161Y-87640252D01*
X155528355Y-87611245D01*
X155499348Y-87587439D01*
X155466254Y-87569750D01*
X155430344Y-87558857D01*
X155393000Y-87555179D01*
X154393000Y-87555179D01*
X154355656Y-87558857D01*
X154319746Y-87569750D01*
X154286652Y-87587439D01*
X154257645Y-87611245D01*
X154233839Y-87640252D01*
X154216150Y-87673346D01*
X154205257Y-87709256D01*
X154201579Y-87746600D01*
X154201579Y-89546600D01*
X154205257Y-89583944D01*
X154216150Y-89619854D01*
X154233839Y-89652948D01*
X154257645Y-89681955D01*
X154286652Y-89705761D01*
X154319746Y-89723450D01*
X154355656Y-89734343D01*
X154393000Y-89738021D01*
X154537401Y-89738021D01*
X154537401Y-90095104D01*
X153253101Y-91379406D01*
X153239537Y-91390538D01*
X153195099Y-91444685D01*
X153162079Y-91506461D01*
X153141746Y-91573491D01*
X153136600Y-91625738D01*
X153136600Y-91625745D01*
X153134881Y-91643200D01*
X153136600Y-91660656D01*
X153136600Y-92568751D01*
X153092091Y-92582253D01*
X152911332Y-92678870D01*
X152752896Y-92808896D01*
X152622870Y-92967332D01*
X152526253Y-93148091D01*
X152466756Y-93344226D01*
X152446666Y-93548200D01*
X151993621Y-93548200D01*
X151993621Y-92698200D01*
X151989943Y-92660856D01*
X151979050Y-92624946D01*
X151961361Y-92591852D01*
X151937555Y-92562845D01*
X151908548Y-92539039D01*
X151875454Y-92521350D01*
X151839544Y-92510457D01*
X151802200Y-92506779D01*
X150102200Y-92506779D01*
X150064856Y-92510457D01*
X150028946Y-92521350D01*
X149995852Y-92539039D01*
X149966845Y-92562845D01*
X149943039Y-92591852D01*
X149925350Y-92624946D01*
X149914457Y-92660856D01*
X149910779Y-92698200D01*
X146239700Y-92698200D01*
X146239700Y-89546600D01*
X152201578Y-89546600D01*
X152205256Y-89583945D01*
X152216149Y-89619854D01*
X152233838Y-89652948D01*
X152257644Y-89681956D01*
X152286652Y-89705762D01*
X152319746Y-89723451D01*
X152355655Y-89734344D01*
X152393000Y-89738022D01*
X152718375Y-89737100D01*
X152766000Y-89689475D01*
X152766000Y-88773600D01*
X153020000Y-88773600D01*
X153020000Y-89689475D01*
X153067625Y-89737100D01*
X153393000Y-89738022D01*
X153430345Y-89734344D01*
X153466254Y-89723451D01*
X153499348Y-89705762D01*
X153528356Y-89681956D01*
X153552162Y-89652948D01*
X153569851Y-89619854D01*
X153580744Y-89583945D01*
X153584422Y-89546600D01*
X153583500Y-88821225D01*
X153535875Y-88773600D01*
X153020000Y-88773600D01*
X152766000Y-88773600D01*
X152250125Y-88773600D01*
X152202500Y-88821225D01*
X152201578Y-89546600D01*
X146239700Y-89546600D01*
X146239700Y-87746600D01*
X152201578Y-87746600D01*
X152202500Y-88471975D01*
X152250125Y-88519600D01*
X152766000Y-88519600D01*
X152766000Y-87603725D01*
X153020000Y-87603725D01*
X153020000Y-88519600D01*
X153535875Y-88519600D01*
X153583500Y-88471975D01*
X153584422Y-87746600D01*
X153580744Y-87709255D01*
X153569851Y-87673346D01*
X153552162Y-87640252D01*
X153528356Y-87611244D01*
X153499348Y-87587438D01*
X153466254Y-87569749D01*
X153430345Y-87558856D01*
X153393000Y-87555178D01*
X153067625Y-87556100D01*
X153020000Y-87603725D01*
X152766000Y-87603725D01*
X152718375Y-87556100D01*
X152393000Y-87555178D01*
X152355655Y-87558856D01*
X152319746Y-87569749D01*
X152286652Y-87587438D01*
X152257644Y-87611244D01*
X152233838Y-87640252D01*
X152216149Y-87673346D01*
X152205256Y-87709255D01*
X152201578Y-87746600D01*
X146239700Y-87746600D01*
X146239700Y-68148200D01*
X147138066Y-68148200D01*
X147158156Y-68352174D01*
X147217653Y-68548309D01*
X147314270Y-68729068D01*
X147444296Y-68887504D01*
X147602732Y-69017530D01*
X147783491Y-69114147D01*
X147979626Y-69173644D01*
X148132490Y-69188700D01*
X148234710Y-69188700D01*
X148387574Y-69173644D01*
X148583709Y-69114147D01*
X148624729Y-69092222D01*
X152201579Y-72669073D01*
X152201579Y-73746600D01*
X152205257Y-73783944D01*
X152216150Y-73819854D01*
X152233839Y-73852948D01*
X152257645Y-73881955D01*
X152286652Y-73905761D01*
X152319746Y-73923450D01*
X152355656Y-73934343D01*
X152393000Y-73938021D01*
X153393000Y-73938021D01*
X153430344Y-73934343D01*
X153466254Y-73923450D01*
X153499348Y-73905761D01*
X153528355Y-73881955D01*
X153552161Y-73852948D01*
X153569850Y-73819854D01*
X153580743Y-73783944D01*
X153584421Y-73746600D01*
X153584421Y-71946600D01*
X153580743Y-71909256D01*
X153569850Y-71873346D01*
X153552161Y-71840252D01*
X153528355Y-71811245D01*
X153499348Y-71787439D01*
X153466254Y-71769750D01*
X153430344Y-71758857D01*
X153393000Y-71755179D01*
X152393000Y-71755179D01*
X152355656Y-71758857D01*
X152319746Y-71769750D01*
X152312120Y-71773826D01*
X149127622Y-68589329D01*
X149149547Y-68548309D01*
X149209044Y-68352174D01*
X149229134Y-68148200D01*
X149678066Y-68148200D01*
X149698156Y-68352174D01*
X149757653Y-68548309D01*
X149854270Y-68729068D01*
X149984296Y-68887504D01*
X150142732Y-69017530D01*
X150323491Y-69114147D01*
X150519626Y-69173644D01*
X150672490Y-69188700D01*
X150774710Y-69188700D01*
X150927574Y-69173644D01*
X151123709Y-69114147D01*
X151164729Y-69092222D01*
X154201579Y-72129073D01*
X154201579Y-73746600D01*
X154205257Y-73783944D01*
X154216150Y-73819854D01*
X154233839Y-73852948D01*
X154257645Y-73881955D01*
X154286652Y-73905761D01*
X154319746Y-73923450D01*
X154355656Y-73934343D01*
X154393000Y-73938021D01*
X155393000Y-73938021D01*
X155430344Y-73934343D01*
X155466254Y-73923450D01*
X155499348Y-73905761D01*
X155528355Y-73881955D01*
X155552161Y-73852948D01*
X155569850Y-73819854D01*
X155580743Y-73783944D01*
X155584421Y-73746600D01*
X155584421Y-71946600D01*
X155580743Y-71909256D01*
X155569850Y-71873346D01*
X155552161Y-71840252D01*
X155528355Y-71811245D01*
X155499348Y-71787439D01*
X155466254Y-71769750D01*
X155430344Y-71758857D01*
X155393000Y-71755179D01*
X154833473Y-71755179D01*
X151667622Y-68589329D01*
X151689547Y-68548309D01*
X151749044Y-68352174D01*
X151769134Y-68148200D01*
X152218066Y-68148200D01*
X152238156Y-68352174D01*
X152297653Y-68548309D01*
X152394270Y-68729068D01*
X152524296Y-68887504D01*
X152682732Y-69017530D01*
X152863491Y-69114147D01*
X153059626Y-69173644D01*
X153212490Y-69188700D01*
X153314710Y-69188700D01*
X153467574Y-69173644D01*
X153593492Y-69135447D01*
X153648779Y-69190734D01*
X153648780Y-69644356D01*
X153646530Y-69667199D01*
X153655505Y-69758319D01*
X153678567Y-69834343D01*
X153682085Y-69845939D01*
X153725246Y-69926689D01*
X153783332Y-69997467D01*
X153801071Y-70012025D01*
X156201579Y-72412534D01*
X156201579Y-73746600D01*
X156205257Y-73783944D01*
X156216150Y-73819854D01*
X156233839Y-73852948D01*
X156257645Y-73881955D01*
X156286652Y-73905761D01*
X156319746Y-73923450D01*
X156355656Y-73934343D01*
X156393000Y-73938021D01*
X157393000Y-73938021D01*
X157430344Y-73934343D01*
X157466254Y-73923450D01*
X157499348Y-73905761D01*
X157528355Y-73881955D01*
X157552161Y-73852948D01*
X157569850Y-73819854D01*
X157580743Y-73783944D01*
X157584421Y-73746600D01*
X157584421Y-73311420D01*
X158201579Y-73311420D01*
X158201579Y-73746600D01*
X158205257Y-73783944D01*
X158216150Y-73819854D01*
X158233839Y-73852948D01*
X158257645Y-73881955D01*
X158286652Y-73905761D01*
X158319746Y-73923450D01*
X158355656Y-73934343D01*
X158393000Y-73938021D01*
X158521400Y-73938021D01*
X158521400Y-74358713D01*
X158508789Y-74377587D01*
X158477468Y-74453203D01*
X158461500Y-74533477D01*
X158461500Y-74615323D01*
X158477468Y-74695597D01*
X158508789Y-74771213D01*
X158554260Y-74839266D01*
X158612134Y-74897140D01*
X158680187Y-74942611D01*
X158755803Y-74973932D01*
X158836077Y-74989900D01*
X158917923Y-74989900D01*
X158998197Y-74973932D01*
X159073813Y-74942611D01*
X159141866Y-74897140D01*
X159199740Y-74839266D01*
X159245211Y-74771213D01*
X159276532Y-74695597D01*
X159292500Y-74615323D01*
X159292500Y-74533477D01*
X159276532Y-74453203D01*
X159245211Y-74377587D01*
X159232600Y-74358713D01*
X159232600Y-73938021D01*
X159393000Y-73938021D01*
X159430344Y-73934343D01*
X159466254Y-73923450D01*
X159499348Y-73905761D01*
X159528355Y-73881955D01*
X159552161Y-73852948D01*
X159569850Y-73819854D01*
X159580743Y-73783944D01*
X159584421Y-73746600D01*
X159584421Y-71946600D01*
X159580743Y-71909256D01*
X159569850Y-71873346D01*
X159552161Y-71840252D01*
X159528355Y-71811245D01*
X159499348Y-71787439D01*
X159466254Y-71769750D01*
X159430344Y-71758857D01*
X159393000Y-71755179D01*
X158393000Y-71755179D01*
X158355656Y-71758857D01*
X158319746Y-71769750D01*
X158286652Y-71787439D01*
X158257645Y-71811245D01*
X158233839Y-71840252D01*
X158216150Y-71873346D01*
X158205257Y-71909256D01*
X158201579Y-71946600D01*
X158201579Y-72381780D01*
X157584421Y-72381780D01*
X157584421Y-71946600D01*
X157580743Y-71909256D01*
X157569850Y-71873346D01*
X157552161Y-71840252D01*
X157528355Y-71811245D01*
X157499348Y-71787439D01*
X157466254Y-71769750D01*
X157430344Y-71758857D01*
X157393000Y-71755179D01*
X156858934Y-71755179D01*
X154578419Y-69474665D01*
X154578419Y-69021032D01*
X154580668Y-68998198D01*
X154571693Y-68907078D01*
X154545114Y-68819460D01*
X154545114Y-68819459D01*
X154501953Y-68738709D01*
X154443867Y-68667931D01*
X154426129Y-68653374D01*
X154250847Y-68478092D01*
X154289044Y-68352174D01*
X154309134Y-68148200D01*
X154758066Y-68148200D01*
X154778156Y-68352174D01*
X154837653Y-68548309D01*
X154934270Y-68729068D01*
X155064296Y-68887504D01*
X155222732Y-69017530D01*
X155403491Y-69114147D01*
X155599626Y-69173644D01*
X155752490Y-69188700D01*
X155854710Y-69188700D01*
X156007574Y-69173644D01*
X156203709Y-69114147D01*
X156384468Y-69017530D01*
X156542904Y-68887504D01*
X156672930Y-68729068D01*
X156769547Y-68548309D01*
X156829044Y-68352174D01*
X156849134Y-68148200D01*
X157298066Y-68148200D01*
X157318156Y-68352174D01*
X157377653Y-68548309D01*
X157474270Y-68729068D01*
X157604296Y-68887504D01*
X157762732Y-69017530D01*
X157943491Y-69114147D01*
X157988000Y-69127649D01*
X157988000Y-69879744D01*
X157986281Y-69897200D01*
X157988000Y-69914655D01*
X157988000Y-69914662D01*
X157993146Y-69966909D01*
X158013479Y-70033939D01*
X158046499Y-70095715D01*
X158090937Y-70149862D01*
X158104502Y-70160995D01*
X160201579Y-72258074D01*
X160201579Y-73746600D01*
X160205257Y-73783944D01*
X160216150Y-73819854D01*
X160233839Y-73852948D01*
X160257645Y-73881955D01*
X160286652Y-73905761D01*
X160319746Y-73923450D01*
X160355656Y-73934343D01*
X160393000Y-73938021D01*
X161393000Y-73938021D01*
X161430344Y-73934343D01*
X161466254Y-73923450D01*
X161499348Y-73905761D01*
X161528355Y-73881955D01*
X161552161Y-73852948D01*
X161569850Y-73819854D01*
X161580743Y-73783944D01*
X161584421Y-73746600D01*
X161584421Y-71946600D01*
X161580743Y-71909256D01*
X161569850Y-71873346D01*
X161552161Y-71840252D01*
X161528355Y-71811245D01*
X161499348Y-71787439D01*
X161466254Y-71769750D01*
X161430344Y-71758857D01*
X161393000Y-71755179D01*
X160704474Y-71755179D01*
X158699200Y-69749907D01*
X158699200Y-69127649D01*
X158743709Y-69114147D01*
X158924468Y-69017530D01*
X159082904Y-68887504D01*
X159212930Y-68729068D01*
X159309547Y-68548309D01*
X159369044Y-68352174D01*
X159389134Y-68148200D01*
X159369044Y-67944226D01*
X159309547Y-67748091D01*
X159212930Y-67567332D01*
X159082904Y-67408896D01*
X158948022Y-67298200D01*
X159842179Y-67298200D01*
X159842179Y-68998200D01*
X159845857Y-69035544D01*
X159856750Y-69071454D01*
X159874439Y-69104548D01*
X159898245Y-69133555D01*
X159927252Y-69157361D01*
X159960346Y-69175050D01*
X159996256Y-69185943D01*
X160033600Y-69189621D01*
X160528000Y-69189621D01*
X160528001Y-70419735D01*
X160526281Y-70437200D01*
X160533146Y-70506910D01*
X160553480Y-70573941D01*
X160569990Y-70604828D01*
X160586500Y-70635716D01*
X160630938Y-70689863D01*
X160644501Y-70700994D01*
X162201579Y-72258073D01*
X162201579Y-73746600D01*
X162205257Y-73783944D01*
X162216150Y-73819854D01*
X162233839Y-73852948D01*
X162257645Y-73881955D01*
X162286652Y-73905761D01*
X162319746Y-73923450D01*
X162355656Y-73934343D01*
X162393000Y-73938021D01*
X163393000Y-73938021D01*
X163430344Y-73934343D01*
X163466254Y-73923450D01*
X163499348Y-73905761D01*
X163528355Y-73881955D01*
X163552161Y-73852948D01*
X163569850Y-73819854D01*
X163580743Y-73783944D01*
X163584421Y-73746600D01*
X164201578Y-73746600D01*
X164205256Y-73783945D01*
X164216149Y-73819854D01*
X164233838Y-73852948D01*
X164257644Y-73881956D01*
X164286652Y-73905762D01*
X164319746Y-73923451D01*
X164355655Y-73934344D01*
X164393000Y-73938022D01*
X164718375Y-73937100D01*
X164766000Y-73889475D01*
X164766000Y-72973600D01*
X165020000Y-72973600D01*
X165020000Y-73889475D01*
X165067625Y-73937100D01*
X165393000Y-73938022D01*
X165430345Y-73934344D01*
X165466254Y-73923451D01*
X165499348Y-73905762D01*
X165528356Y-73881956D01*
X165552162Y-73852948D01*
X165569851Y-73819854D01*
X165580744Y-73783945D01*
X165584422Y-73746600D01*
X165583500Y-73021225D01*
X165535875Y-72973600D01*
X165020000Y-72973600D01*
X164766000Y-72973600D01*
X164250125Y-72973600D01*
X164202500Y-73021225D01*
X164201578Y-73746600D01*
X163584421Y-73746600D01*
X163584421Y-71946600D01*
X164201578Y-71946600D01*
X164202500Y-72671975D01*
X164250125Y-72719600D01*
X164766000Y-72719600D01*
X164766000Y-71803725D01*
X165020000Y-71803725D01*
X165020000Y-72719600D01*
X165535875Y-72719600D01*
X165583500Y-72671975D01*
X165584422Y-71946600D01*
X165580744Y-71909255D01*
X165569851Y-71873346D01*
X165552162Y-71840252D01*
X165528356Y-71811244D01*
X165499348Y-71787438D01*
X165466254Y-71769749D01*
X165430345Y-71758856D01*
X165393000Y-71755178D01*
X165067625Y-71756100D01*
X165020000Y-71803725D01*
X164766000Y-71803725D01*
X164718375Y-71756100D01*
X164393000Y-71755178D01*
X164355655Y-71758856D01*
X164319746Y-71769749D01*
X164286652Y-71787438D01*
X164257644Y-71811244D01*
X164233838Y-71840252D01*
X164216149Y-71873346D01*
X164205256Y-71909255D01*
X164201578Y-71946600D01*
X163584421Y-71946600D01*
X163580743Y-71909256D01*
X163569850Y-71873346D01*
X163552161Y-71840252D01*
X163528355Y-71811245D01*
X163499348Y-71787439D01*
X163466254Y-71769750D01*
X163430344Y-71758857D01*
X163393000Y-71755179D01*
X162704473Y-71755179D01*
X161239200Y-70289907D01*
X161239200Y-70146600D01*
X163211978Y-70146600D01*
X163215656Y-70183945D01*
X163226549Y-70219854D01*
X163244238Y-70252948D01*
X163268044Y-70281956D01*
X163297052Y-70305762D01*
X163330146Y-70323451D01*
X163366055Y-70334344D01*
X163403400Y-70338022D01*
X163903775Y-70337100D01*
X163951400Y-70289475D01*
X163951400Y-68173600D01*
X164205400Y-68173600D01*
X164205400Y-70289475D01*
X164253025Y-70337100D01*
X164753400Y-70338022D01*
X164790745Y-70334344D01*
X164826654Y-70323451D01*
X164859748Y-70305762D01*
X164888756Y-70281956D01*
X164912562Y-70252948D01*
X164930251Y-70219854D01*
X164941144Y-70183945D01*
X164944822Y-70146600D01*
X164943900Y-68221225D01*
X164896275Y-68173600D01*
X164205400Y-68173600D01*
X163951400Y-68173600D01*
X163260525Y-68173600D01*
X163212900Y-68221225D01*
X163211978Y-70146600D01*
X161239200Y-70146600D01*
X161239200Y-69189621D01*
X161733600Y-69189621D01*
X161770944Y-69185943D01*
X161806854Y-69175050D01*
X161839948Y-69157361D01*
X161868955Y-69133555D01*
X161892761Y-69104548D01*
X161910450Y-69071454D01*
X161921343Y-69035544D01*
X161925021Y-68998200D01*
X161925021Y-67298200D01*
X161921343Y-67260856D01*
X161910450Y-67224946D01*
X161892761Y-67191852D01*
X161868955Y-67162845D01*
X161839948Y-67139039D01*
X161806854Y-67121350D01*
X161770944Y-67110457D01*
X161733600Y-67106779D01*
X160033600Y-67106779D01*
X159996256Y-67110457D01*
X159960346Y-67121350D01*
X159927252Y-67139039D01*
X159898245Y-67162845D01*
X159874439Y-67191852D01*
X159856750Y-67224946D01*
X159845857Y-67260856D01*
X159842179Y-67298200D01*
X158948022Y-67298200D01*
X158924468Y-67278870D01*
X158743709Y-67182253D01*
X158547574Y-67122756D01*
X158394710Y-67107700D01*
X158292490Y-67107700D01*
X158139626Y-67122756D01*
X157943491Y-67182253D01*
X157762732Y-67278870D01*
X157604296Y-67408896D01*
X157474270Y-67567332D01*
X157377653Y-67748091D01*
X157318156Y-67944226D01*
X157298066Y-68148200D01*
X156849134Y-68148200D01*
X156829044Y-67944226D01*
X156769547Y-67748091D01*
X156672930Y-67567332D01*
X156542904Y-67408896D01*
X156384468Y-67278870D01*
X156203709Y-67182253D01*
X156007574Y-67122756D01*
X155854710Y-67107700D01*
X155752490Y-67107700D01*
X155599626Y-67122756D01*
X155403491Y-67182253D01*
X155222732Y-67278870D01*
X155064296Y-67408896D01*
X154934270Y-67567332D01*
X154837653Y-67748091D01*
X154778156Y-67944226D01*
X154758066Y-68148200D01*
X154309134Y-68148200D01*
X154289044Y-67944226D01*
X154229547Y-67748091D01*
X154132930Y-67567332D01*
X154002904Y-67408896D01*
X153844468Y-67278870D01*
X153663709Y-67182253D01*
X153467574Y-67122756D01*
X153314710Y-67107700D01*
X153212490Y-67107700D01*
X153059626Y-67122756D01*
X152863491Y-67182253D01*
X152682732Y-67278870D01*
X152524296Y-67408896D01*
X152394270Y-67567332D01*
X152297653Y-67748091D01*
X152238156Y-67944226D01*
X152218066Y-68148200D01*
X151769134Y-68148200D01*
X151749044Y-67944226D01*
X151689547Y-67748091D01*
X151592930Y-67567332D01*
X151462904Y-67408896D01*
X151304468Y-67278870D01*
X151123709Y-67182253D01*
X150927574Y-67122756D01*
X150774710Y-67107700D01*
X150672490Y-67107700D01*
X150519626Y-67122756D01*
X150323491Y-67182253D01*
X150142732Y-67278870D01*
X149984296Y-67408896D01*
X149854270Y-67567332D01*
X149757653Y-67748091D01*
X149698156Y-67944226D01*
X149678066Y-68148200D01*
X149229134Y-68148200D01*
X149209044Y-67944226D01*
X149149547Y-67748091D01*
X149052930Y-67567332D01*
X148922904Y-67408896D01*
X148764468Y-67278870D01*
X148583709Y-67182253D01*
X148387574Y-67122756D01*
X148234710Y-67107700D01*
X148132490Y-67107700D01*
X147979626Y-67122756D01*
X147783491Y-67182253D01*
X147602732Y-67278870D01*
X147444296Y-67408896D01*
X147314270Y-67567332D01*
X147217653Y-67748091D01*
X147158156Y-67944226D01*
X147138066Y-68148200D01*
X146239700Y-68148200D01*
X146239700Y-66178900D01*
X163212089Y-66178900D01*
X163212900Y-67871975D01*
X163212900Y-67871975D01*
G37*
X163212900Y-67871975D02*
X163260525Y-67919600D01*
X163951400Y-67919600D01*
X163951400Y-67899600D01*
X164205400Y-67899600D01*
X164205400Y-67919600D01*
X164896275Y-67919600D01*
X164943900Y-67871975D01*
X164944711Y-66178900D01*
X166076979Y-66178900D01*
X166076979Y-69646600D01*
X166080657Y-69683944D01*
X166091550Y-69719854D01*
X166109239Y-69752948D01*
X166133045Y-69781955D01*
X166162052Y-69805761D01*
X166195146Y-69823450D01*
X166231056Y-69834343D01*
X166268400Y-69838021D01*
X166408100Y-69838021D01*
X166408100Y-71755179D01*
X166393000Y-71755179D01*
X166355656Y-71758857D01*
X166319746Y-71769750D01*
X166286652Y-71787439D01*
X166257645Y-71811245D01*
X166233839Y-71840252D01*
X166216150Y-71873346D01*
X166205257Y-71909256D01*
X166201579Y-71946600D01*
X166201579Y-73746600D01*
X166205257Y-73783944D01*
X166216150Y-73819854D01*
X166233839Y-73852948D01*
X166257645Y-73881955D01*
X166286652Y-73905761D01*
X166319746Y-73923450D01*
X166355656Y-73934343D01*
X166393000Y-73938021D01*
X167393000Y-73938021D01*
X167430344Y-73934343D01*
X167466254Y-73923450D01*
X167499348Y-73905761D01*
X167528355Y-73881955D01*
X167552161Y-73852948D01*
X167569850Y-73819854D01*
X167580743Y-73783944D01*
X167584421Y-73746600D01*
X167584421Y-71946600D01*
X167580743Y-71909256D01*
X167569850Y-71873346D01*
X167552161Y-71840252D01*
X167528355Y-71811245D01*
X167499348Y-71787439D01*
X167466254Y-71769750D01*
X167430344Y-71758857D01*
X167398700Y-71755740D01*
X167398700Y-70146600D01*
X168861978Y-70146600D01*
X168865656Y-70183945D01*
X168876549Y-70219854D01*
X168894238Y-70252948D01*
X168918044Y-70281956D01*
X168947052Y-70305762D01*
X168980146Y-70323451D01*
X169016055Y-70334344D01*
X169053400Y-70338022D01*
X169553775Y-70337100D01*
X169601400Y-70289475D01*
X169601400Y-68173600D01*
X169855400Y-68173600D01*
X169855400Y-70289475D01*
X169903025Y-70337100D01*
X170403400Y-70338022D01*
X170440745Y-70334344D01*
X170476654Y-70323451D01*
X170509748Y-70305762D01*
X170538756Y-70281956D01*
X170562562Y-70252948D01*
X170580251Y-70219854D01*
X170591144Y-70183945D01*
X170594822Y-70146600D01*
X170593900Y-68221225D01*
X170546275Y-68173600D01*
X169855400Y-68173600D01*
X169601400Y-68173600D01*
X168910525Y-68173600D01*
X168862900Y-68221225D01*
X168861978Y-70146600D01*
X167398700Y-70146600D01*
X167398700Y-69838021D01*
X167538400Y-69838021D01*
X167575744Y-69834343D01*
X167611654Y-69823450D01*
X167644748Y-69805761D01*
X167673755Y-69781955D01*
X167697561Y-69752948D01*
X167715250Y-69719854D01*
X167726143Y-69683944D01*
X167729821Y-69646600D01*
X167729821Y-66178900D01*
X168862089Y-66178900D01*
X168862900Y-67871975D01*
X168910525Y-67919600D01*
X169601400Y-67919600D01*
X169601400Y-67899600D01*
X169855400Y-67899600D01*
X169855400Y-67919600D01*
X170546275Y-67919600D01*
X170593900Y-67871975D01*
X170594711Y-66178900D01*
X171463500Y-66178900D01*
X171463501Y-95466700D01*
X146239700Y-95466700D01*
X146239700Y-92698200D01*
X149910779Y-92698200D01*
X149910779Y-94398200D01*
X149914457Y-94435544D01*
X149925350Y-94471454D01*
X149943039Y-94504548D01*
X149966845Y-94533555D01*
X149995852Y-94557361D01*
X150028946Y-94575050D01*
X150064856Y-94585943D01*
X150102200Y-94589621D01*
X151802200Y-94589621D01*
X151839544Y-94585943D01*
X151875454Y-94575050D01*
X151908548Y-94557361D01*
X151937555Y-94533555D01*
X151961361Y-94504548D01*
X151979050Y-94471454D01*
X151989943Y-94435544D01*
X151993621Y-94398200D01*
X151993621Y-93548200D01*
X152446666Y-93548200D01*
X152466756Y-93752174D01*
X152526253Y-93948309D01*
X152622870Y-94129068D01*
X152752896Y-94287504D01*
X152911332Y-94417530D01*
X153092091Y-94514147D01*
X153288226Y-94573644D01*
X153441090Y-94588700D01*
X153543310Y-94588700D01*
X153696174Y-94573644D01*
X153892309Y-94514147D01*
X154073068Y-94417530D01*
X154231504Y-94287504D01*
X154361530Y-94129068D01*
X154458147Y-93948309D01*
X154517644Y-93752174D01*
X154537734Y-93548200D01*
X154986666Y-93548200D01*
X155006756Y-93752174D01*
X155066253Y-93948309D01*
X155162870Y-94129068D01*
X155292896Y-94287504D01*
X155451332Y-94417530D01*
X155632091Y-94514147D01*
X155828226Y-94573644D01*
X155981090Y-94588700D01*
X156083310Y-94588700D01*
X156236174Y-94573644D01*
X156432309Y-94514147D01*
X156613068Y-94417530D01*
X156771504Y-94287504D01*
X156901530Y-94129068D01*
X156998147Y-93948309D01*
X157057644Y-93752174D01*
X157077734Y-93548200D01*
X157526666Y-93548200D01*
X157546756Y-93752174D01*
X157606253Y-93948309D01*
X157702870Y-94129068D01*
X157832896Y-94287504D01*
X157991332Y-94417530D01*
X158172091Y-94514147D01*
X158368226Y-94573644D01*
X158521090Y-94588700D01*
X158623310Y-94588700D01*
X158776174Y-94573644D01*
X158972309Y-94514147D01*
X159153068Y-94417530D01*
X159311504Y-94287504D01*
X159441530Y-94129068D01*
X159538147Y-93948309D01*
X159597644Y-93752174D01*
X159617734Y-93548200D01*
X160066666Y-93548200D01*
X160086756Y-93752174D01*
X160146253Y-93948309D01*
X160242870Y-94129068D01*
X160372896Y-94287504D01*
X160531332Y-94417530D01*
X160712091Y-94514147D01*
X160908226Y-94573644D01*
X161061090Y-94588700D01*
X161163310Y-94588700D01*
X161316174Y-94573644D01*
X161512309Y-94514147D01*
X161693068Y-94417530D01*
X161851504Y-94287504D01*
X161981530Y-94129068D01*
X162078147Y-93948309D01*
X162137644Y-93752174D01*
X162157734Y-93548200D01*
X162137644Y-93344226D01*
X162078147Y-93148091D01*
X161981530Y-92967332D01*
X161851504Y-92808896D01*
X161693068Y-92678870D01*
X161512309Y-92582253D01*
X161316174Y-92522756D01*
X161248600Y-92516100D01*
X161248600Y-89738021D01*
X161393000Y-89738021D01*
X161430344Y-89734343D01*
X161466254Y-89723450D01*
X161499348Y-89705761D01*
X161528355Y-89681955D01*
X161552161Y-89652948D01*
X161569850Y-89619854D01*
X161580743Y-89583944D01*
X161584421Y-89546600D01*
X161584421Y-87746600D01*
X162201579Y-87746600D01*
X162201579Y-89546600D01*
X162205257Y-89583944D01*
X162216150Y-89619854D01*
X162233839Y-89652948D01*
X162257645Y-89681955D01*
X162286652Y-89705761D01*
X162319746Y-89723450D01*
X162355656Y-89734343D01*
X162393000Y-89738021D01*
X162537400Y-89738021D01*
X162537401Y-92771535D01*
X162535681Y-92789000D01*
X162542546Y-92858710D01*
X162562880Y-92925741D01*
X162579390Y-92956628D01*
X162595900Y-92987516D01*
X162640338Y-93041663D01*
X162653901Y-93052794D01*
X162708178Y-93107071D01*
X162686253Y-93148091D01*
X162626756Y-93344226D01*
X162606666Y-93548200D01*
X162626756Y-93752174D01*
X162686253Y-93948309D01*
X162782870Y-94129068D01*
X162912896Y-94287504D01*
X163071332Y-94417530D01*
X163252091Y-94514147D01*
X163448226Y-94573644D01*
X163601090Y-94588700D01*
X163703310Y-94588700D01*
X163856174Y-94573644D01*
X164052309Y-94514147D01*
X164233068Y-94417530D01*
X164391504Y-94287504D01*
X164521530Y-94129068D01*
X164618147Y-93948309D01*
X164677644Y-93752174D01*
X164697734Y-93548200D01*
X164677644Y-93344226D01*
X164618147Y-93148091D01*
X164521530Y-92967332D01*
X164391504Y-92808896D01*
X164233068Y-92678870D01*
X164052309Y-92582253D01*
X163856174Y-92522756D01*
X163703310Y-92507700D01*
X163601090Y-92507700D01*
X163448226Y-92522756D01*
X163252091Y-92582253D01*
X163248600Y-92584119D01*
X163248600Y-89738021D01*
X163393000Y-89738021D01*
X163430344Y-89734343D01*
X163466254Y-89723450D01*
X163499348Y-89705761D01*
X163528355Y-89681955D01*
X163552161Y-89652948D01*
X163569850Y-89619854D01*
X163580743Y-89583944D01*
X163584421Y-89546600D01*
X163584421Y-87746600D01*
X164201579Y-87746600D01*
X164201579Y-89546600D01*
X164205257Y-89583944D01*
X164216150Y-89619854D01*
X164233839Y-89652948D01*
X164257645Y-89681955D01*
X164286652Y-89705761D01*
X164319746Y-89723450D01*
X164355656Y-89734343D01*
X164393000Y-89738021D01*
X164537400Y-89738021D01*
X164537401Y-92231535D01*
X164535681Y-92249000D01*
X164542546Y-92318710D01*
X164562880Y-92385741D01*
X164579390Y-92416628D01*
X164595900Y-92447516D01*
X164640338Y-92501663D01*
X164653901Y-92512794D01*
X165248178Y-93107072D01*
X165226253Y-93148091D01*
X165166756Y-93344226D01*
X165146666Y-93548200D01*
X165166756Y-93752174D01*
X165226253Y-93948309D01*
X165322870Y-94129068D01*
X165452896Y-94287504D01*
X165611332Y-94417530D01*
X165792091Y-94514147D01*
X165988226Y-94573644D01*
X166141090Y-94588700D01*
X166243310Y-94588700D01*
X166396174Y-94573644D01*
X166592309Y-94514147D01*
X166773068Y-94417530D01*
X166931504Y-94287504D01*
X167061530Y-94129068D01*
X167158147Y-93948309D01*
X167192461Y-93835191D01*
X167732055Y-93835191D01*
X167807262Y-94024795D01*
X167918013Y-94196084D01*
X168060053Y-94342475D01*
X168227923Y-94458343D01*
X168415173Y-94539234D01*
X168445211Y-94548338D01*
X168605200Y-94532919D01*
X168605200Y-93675200D01*
X168859200Y-93675200D01*
X168859200Y-94532919D01*
X169019189Y-94548338D01*
X169049227Y-94539234D01*
X169236477Y-94458343D01*
X169404347Y-94342475D01*
X169546387Y-94196084D01*
X169657138Y-94024795D01*
X169732345Y-93835191D01*
X169717302Y-93675200D01*
X168859200Y-93675200D01*
X168605200Y-93675200D01*
X167747098Y-93675200D01*
X167732055Y-93835191D01*
X167192461Y-93835191D01*
X167217644Y-93752174D01*
X167237734Y-93548200D01*
X167217644Y-93344226D01*
X167192462Y-93261209D01*
X167732055Y-93261209D01*
X167747098Y-93421200D01*
X168605200Y-93421200D01*
X168605200Y-92563481D01*
X168859200Y-92563481D01*
X168859200Y-93421200D01*
X169717302Y-93421200D01*
X169732345Y-93261209D01*
X169657138Y-93071605D01*
X169546387Y-92900316D01*
X169404347Y-92753925D01*
X169236477Y-92638057D01*
X169049227Y-92557166D01*
X169019189Y-92548062D01*
X168859200Y-92563481D01*
X168605200Y-92563481D01*
X168445211Y-92548062D01*
X168415173Y-92557166D01*
X168227923Y-92638057D01*
X168060053Y-92753925D01*
X167918013Y-92900316D01*
X167807262Y-93071605D01*
X167732055Y-93261209D01*
X167192462Y-93261209D01*
X167158147Y-93148091D01*
X167061530Y-92967332D01*
X166931504Y-92808896D01*
X166773068Y-92678870D01*
X166592309Y-92582253D01*
X166396174Y-92522756D01*
X166243310Y-92507700D01*
X166141090Y-92507700D01*
X165988226Y-92522756D01*
X165792091Y-92582253D01*
X165751072Y-92604178D01*
X165248600Y-92101707D01*
X165248600Y-89738021D01*
X165393000Y-89738021D01*
X165430344Y-89734343D01*
X165466254Y-89723450D01*
X165499348Y-89705761D01*
X165528355Y-89681955D01*
X165552161Y-89652948D01*
X165569850Y-89619854D01*
X165580743Y-89583944D01*
X165584421Y-89546600D01*
X166201578Y-89546600D01*
X166205256Y-89583945D01*
X166216149Y-89619854D01*
X166233838Y-89652948D01*
X166257644Y-89681956D01*
X166286652Y-89705762D01*
X166319746Y-89723451D01*
X166355655Y-89734344D01*
X166393000Y-89738022D01*
X166718375Y-89737100D01*
X166766000Y-89689475D01*
X166766000Y-88773600D01*
X167020000Y-88773600D01*
X167020000Y-89689475D01*
X167067625Y-89737100D01*
X167393000Y-89738022D01*
X167430345Y-89734344D01*
X167466254Y-89723451D01*
X167499348Y-89705762D01*
X167528356Y-89681956D01*
X167552162Y-89652948D01*
X167569851Y-89619854D01*
X167580744Y-89583945D01*
X167584422Y-89546600D01*
X167583500Y-88821225D01*
X167535875Y-88773600D01*
X167020000Y-88773600D01*
X166766000Y-88773600D01*
X166250125Y-88773600D01*
X166202500Y-88821225D01*
X166201578Y-89546600D01*
X165584421Y-89546600D01*
X165584421Y-87746600D01*
X166201578Y-87746600D01*
X166202500Y-88471975D01*
X166250125Y-88519600D01*
X166766000Y-88519600D01*
X166766000Y-87603725D01*
X167020000Y-87603725D01*
X167020000Y-88519600D01*
X167535875Y-88519600D01*
X167583500Y-88471975D01*
X167584422Y-87746600D01*
X167580744Y-87709255D01*
X167569851Y-87673346D01*
X167552162Y-87640252D01*
X167528356Y-87611244D01*
X167499348Y-87587438D01*
X167466254Y-87569749D01*
X167430345Y-87558856D01*
X167393000Y-87555178D01*
X167067625Y-87556100D01*
X167020000Y-87603725D01*
X166766000Y-87603725D01*
X166718375Y-87556100D01*
X166393000Y-87555178D01*
X166355655Y-87558856D01*
X166319746Y-87569749D01*
X166286652Y-87587438D01*
X166257644Y-87611244D01*
X166233838Y-87640252D01*
X166216149Y-87673346D01*
X166205256Y-87709255D01*
X166201578Y-87746600D01*
X165584421Y-87746600D01*
X165580743Y-87709256D01*
X165569850Y-87673346D01*
X165552161Y-87640252D01*
X165528355Y-87611245D01*
X165499348Y-87587439D01*
X165466254Y-87569750D01*
X165430344Y-87558857D01*
X165393000Y-87555179D01*
X164393000Y-87555179D01*
X164355656Y-87558857D01*
X164319746Y-87569750D01*
X164286652Y-87587439D01*
X164257645Y-87611245D01*
X164233839Y-87640252D01*
X164216150Y-87673346D01*
X164205257Y-87709256D01*
X164201579Y-87746600D01*
X163584421Y-87746600D01*
X163580743Y-87709256D01*
X163569850Y-87673346D01*
X163552161Y-87640252D01*
X163528355Y-87611245D01*
X163499348Y-87587439D01*
X163466254Y-87569750D01*
X163430344Y-87558857D01*
X163393000Y-87555179D01*
X162393000Y-87555179D01*
X162355656Y-87558857D01*
X162319746Y-87569750D01*
X162286652Y-87587439D01*
X162257645Y-87611245D01*
X162233839Y-87640252D01*
X162216150Y-87673346D01*
X162205257Y-87709256D01*
X162201579Y-87746600D01*
X161584421Y-87746600D01*
X161580743Y-87709256D01*
X161569850Y-87673346D01*
X161552161Y-87640252D01*
X161528355Y-87611245D01*
X161499348Y-87587439D01*
X161466254Y-87569750D01*
X161430344Y-87558857D01*
X161393000Y-87555179D01*
X160393000Y-87555179D01*
X160355656Y-87558857D01*
X160319746Y-87569750D01*
X160286652Y-87587439D01*
X160257645Y-87611245D01*
X160233839Y-87640252D01*
X160216150Y-87673346D01*
X160205257Y-87709256D01*
X160201579Y-87746600D01*
X160201579Y-89546600D01*
X160205257Y-89583944D01*
X160216150Y-89619854D01*
X160233839Y-89652948D01*
X160257645Y-89681955D01*
X160286652Y-89705761D01*
X160319746Y-89723450D01*
X160355656Y-89734343D01*
X160393000Y-89738021D01*
X160537400Y-89738021D01*
X160537401Y-92675626D01*
X160531332Y-92678870D01*
X160372896Y-92808896D01*
X160242870Y-92967332D01*
X160146253Y-93148091D01*
X160086756Y-93344226D01*
X160066666Y-93548200D01*
X159617734Y-93548200D01*
X159597644Y-93344226D01*
X159538147Y-93148091D01*
X159441530Y-92967332D01*
X159311504Y-92808896D01*
X159153068Y-92678870D01*
X158972309Y-92582253D01*
X158927800Y-92568751D01*
X158927800Y-91053893D01*
X159132099Y-90849595D01*
X159145663Y-90838463D01*
X159190101Y-90784316D01*
X159223121Y-90722540D01*
X159243454Y-90655510D01*
X159248600Y-90603263D01*
X159248600Y-90603255D01*
X159250319Y-90585800D01*
X159248600Y-90568345D01*
X159248600Y-89738021D01*
X159393000Y-89738021D01*
X159430344Y-89734343D01*
X159466254Y-89723450D01*
X159499348Y-89705761D01*
X159528355Y-89681955D01*
X159552161Y-89652948D01*
X159569850Y-89619854D01*
X159580743Y-89583944D01*
X159584421Y-89546600D01*
X159584421Y-87746600D01*
X159580743Y-87709256D01*
X159569850Y-87673346D01*
X159552161Y-87640252D01*
X159528355Y-87611245D01*
X159499348Y-87587439D01*
X159466254Y-87569750D01*
X159430344Y-87558857D01*
X159393000Y-87555179D01*
X158393000Y-87555179D01*
X158355656Y-87558857D01*
X158319746Y-87569750D01*
X158286652Y-87587439D01*
X158257645Y-87611245D01*
X158233839Y-87640252D01*
X158216150Y-87673346D01*
X158205257Y-87709256D01*
X158201579Y-87746600D01*
X158201579Y-89546600D01*
X158205257Y-89583944D01*
X158216150Y-89619854D01*
X158233839Y-89652948D01*
X158257645Y-89681955D01*
X158286652Y-89705761D01*
X158319746Y-89723450D01*
X158355656Y-89734343D01*
X158393000Y-89738021D01*
X158537401Y-89738021D01*
X158537401Y-90438505D01*
X158333101Y-90642806D01*
X158319537Y-90653938D01*
X158275099Y-90708085D01*
X158246335Y-90761899D01*
X158242080Y-90769859D01*
X158225384Y-90824899D01*
X158221746Y-90836891D01*
X158216600Y-90889138D01*
X158216600Y-90889145D01*
X158214881Y-90906600D01*
X158216600Y-90924056D01*
X158216601Y-92568751D01*
X158172091Y-92582253D01*
X157991332Y-92678870D01*
X157832896Y-92808896D01*
X157702870Y-92967332D01*
X157606253Y-93148091D01*
X157546756Y-93344226D01*
X157526666Y-93548200D01*
X157077734Y-93548200D01*
X157057644Y-93344226D01*
X156998147Y-93148091D01*
X156901530Y-92967332D01*
X156771504Y-92808896D01*
X156613068Y-92678870D01*
X156432309Y-92582253D01*
X156387800Y-92568751D01*
X156387800Y-91206293D01*
X157132100Y-90461994D01*
X157145663Y-90450863D01*
X157190101Y-90396716D01*
X157223121Y-90334940D01*
X157243454Y-90267910D01*
X157248600Y-90215663D01*
X157248600Y-90215656D01*
X157250319Y-90198201D01*
X157248600Y-90180745D01*
X157248600Y-89738021D01*
X157393000Y-89738021D01*
X157430344Y-89734343D01*
X157466254Y-89723450D01*
X157499348Y-89705761D01*
X157528355Y-89681955D01*
X157552161Y-89652948D01*
X157569850Y-89619854D01*
X157580743Y-89583944D01*
X157584421Y-89546600D01*
X157584421Y-87746600D01*
X157580743Y-87709256D01*
X157569850Y-87673346D01*
X157552161Y-87640252D01*
X157528355Y-87611245D01*
X157499348Y-87587439D01*
X157466254Y-87569750D01*
X157430344Y-87558857D01*
X157393000Y-87555179D01*
X156393000Y-87555179D01*
X156355656Y-87558857D01*
X156319746Y-87569750D01*
X156286652Y-87587439D01*
X156257645Y-87611245D01*
X156233839Y-87640252D01*
X156216150Y-87673346D01*
X156205257Y-87709256D01*
X156201579Y-87746600D01*
X156201579Y-89546600D01*
X156205257Y-89583944D01*
X156216150Y-89619854D01*
X156233839Y-89652948D01*
X156257645Y-89681955D01*
X156286652Y-89705761D01*
X156319746Y-89723450D01*
X156355656Y-89734343D01*
X156393000Y-89738021D01*
X156537401Y-89738021D01*
X156537401Y-90050905D01*
X155793101Y-90795205D01*
X155779537Y-90806338D01*
X155735099Y-90860485D01*
X155702079Y-90922261D01*
X155681746Y-90989291D01*
X155676600Y-91041538D01*
X155676600Y-91041545D01*
X155674881Y-91059000D01*
X155676600Y-91076456D01*
X155676601Y-92568751D01*
X155632091Y-92582253D01*
X155451332Y-92678870D01*
X155292896Y-92808896D01*
X155162870Y-92967332D01*
X155066253Y-93148091D01*
X155006756Y-93344226D01*
X154986666Y-93548200D01*
X154537734Y-93548200D01*
X154517644Y-93344226D01*
X154458147Y-93148091D01*
X154361530Y-92967332D01*
X154231504Y-92808896D01*
X154073068Y-92678870D01*
X153892309Y-92582253D01*
X153847800Y-92568751D01*
X153847800Y-91790493D01*
X155132105Y-90506190D01*
X155145663Y-90495063D01*
X155156790Y-90481505D01*
X155156795Y-90481500D01*
X155190100Y-90440917D01*
X155223120Y-90379142D01*
X155236528Y-90334942D01*
X155243454Y-90312110D01*
X155248600Y-90259863D01*
X155248600Y-90259854D01*
X155250319Y-90242401D01*
X155248600Y-90224948D01*
X155248600Y-89738021D01*
X155393000Y-89738021D01*
X155430344Y-89734343D01*
X155466254Y-89723450D01*
X155499348Y-89705761D01*
X155528355Y-89681955D01*
X155552161Y-89652948D01*
X155569850Y-89619854D01*
X155580743Y-89583944D01*
X155584421Y-89546600D01*
X155584421Y-87746600D01*
X155580743Y-87709256D01*
X155569850Y-87673346D01*
X155552161Y-87640252D01*
X155528355Y-87611245D01*
X155499348Y-87587439D01*
X155466254Y-87569750D01*
X155430344Y-87558857D01*
X155393000Y-87555179D01*
X154393000Y-87555179D01*
X154355656Y-87558857D01*
X154319746Y-87569750D01*
X154286652Y-87587439D01*
X154257645Y-87611245D01*
X154233839Y-87640252D01*
X154216150Y-87673346D01*
X154205257Y-87709256D01*
X154201579Y-87746600D01*
X154201579Y-89546600D01*
X154205257Y-89583944D01*
X154216150Y-89619854D01*
X154233839Y-89652948D01*
X154257645Y-89681955D01*
X154286652Y-89705761D01*
X154319746Y-89723450D01*
X154355656Y-89734343D01*
X154393000Y-89738021D01*
X154537401Y-89738021D01*
X154537401Y-90095104D01*
X153253101Y-91379406D01*
X153239537Y-91390538D01*
X153195099Y-91444685D01*
X153162079Y-91506461D01*
X153141746Y-91573491D01*
X153136600Y-91625738D01*
X153136600Y-91625745D01*
X153134881Y-91643200D01*
X153136600Y-91660656D01*
X153136600Y-92568751D01*
X153092091Y-92582253D01*
X152911332Y-92678870D01*
X152752896Y-92808896D01*
X152622870Y-92967332D01*
X152526253Y-93148091D01*
X152466756Y-93344226D01*
X152446666Y-93548200D01*
X151993621Y-93548200D01*
X151993621Y-92698200D01*
X151989943Y-92660856D01*
X151979050Y-92624946D01*
X151961361Y-92591852D01*
X151937555Y-92562845D01*
X151908548Y-92539039D01*
X151875454Y-92521350D01*
X151839544Y-92510457D01*
X151802200Y-92506779D01*
X150102200Y-92506779D01*
X150064856Y-92510457D01*
X150028946Y-92521350D01*
X149995852Y-92539039D01*
X149966845Y-92562845D01*
X149943039Y-92591852D01*
X149925350Y-92624946D01*
X149914457Y-92660856D01*
X149910779Y-92698200D01*
X146239700Y-92698200D01*
X146239700Y-89546600D01*
X152201578Y-89546600D01*
X152205256Y-89583945D01*
X152216149Y-89619854D01*
X152233838Y-89652948D01*
X152257644Y-89681956D01*
X152286652Y-89705762D01*
X152319746Y-89723451D01*
X152355655Y-89734344D01*
X152393000Y-89738022D01*
X152718375Y-89737100D01*
X152766000Y-89689475D01*
X152766000Y-88773600D01*
X153020000Y-88773600D01*
X153020000Y-89689475D01*
X153067625Y-89737100D01*
X153393000Y-89738022D01*
X153430345Y-89734344D01*
X153466254Y-89723451D01*
X153499348Y-89705762D01*
X153528356Y-89681956D01*
X153552162Y-89652948D01*
X153569851Y-89619854D01*
X153580744Y-89583945D01*
X153584422Y-89546600D01*
X153583500Y-88821225D01*
X153535875Y-88773600D01*
X153020000Y-88773600D01*
X152766000Y-88773600D01*
X152250125Y-88773600D01*
X152202500Y-88821225D01*
X152201578Y-89546600D01*
X146239700Y-89546600D01*
X146239700Y-87746600D01*
X152201578Y-87746600D01*
X152202500Y-88471975D01*
X152250125Y-88519600D01*
X152766000Y-88519600D01*
X152766000Y-87603725D01*
X153020000Y-87603725D01*
X153020000Y-88519600D01*
X153535875Y-88519600D01*
X153583500Y-88471975D01*
X153584422Y-87746600D01*
X153580744Y-87709255D01*
X153569851Y-87673346D01*
X153552162Y-87640252D01*
X153528356Y-87611244D01*
X153499348Y-87587438D01*
X153466254Y-87569749D01*
X153430345Y-87558856D01*
X153393000Y-87555178D01*
X153067625Y-87556100D01*
X153020000Y-87603725D01*
X152766000Y-87603725D01*
X152718375Y-87556100D01*
X152393000Y-87555178D01*
X152355655Y-87558856D01*
X152319746Y-87569749D01*
X152286652Y-87587438D01*
X152257644Y-87611244D01*
X152233838Y-87640252D01*
X152216149Y-87673346D01*
X152205256Y-87709255D01*
X152201578Y-87746600D01*
X146239700Y-87746600D01*
X146239700Y-68148200D01*
X147138066Y-68148200D01*
X147158156Y-68352174D01*
X147217653Y-68548309D01*
X147314270Y-68729068D01*
X147444296Y-68887504D01*
X147602732Y-69017530D01*
X147783491Y-69114147D01*
X147979626Y-69173644D01*
X148132490Y-69188700D01*
X148234710Y-69188700D01*
X148387574Y-69173644D01*
X148583709Y-69114147D01*
X148624729Y-69092222D01*
X152201579Y-72669073D01*
X152201579Y-73746600D01*
X152205257Y-73783944D01*
X152216150Y-73819854D01*
X152233839Y-73852948D01*
X152257645Y-73881955D01*
X152286652Y-73905761D01*
X152319746Y-73923450D01*
X152355656Y-73934343D01*
X152393000Y-73938021D01*
X153393000Y-73938021D01*
X153430344Y-73934343D01*
X153466254Y-73923450D01*
X153499348Y-73905761D01*
X153528355Y-73881955D01*
X153552161Y-73852948D01*
X153569850Y-73819854D01*
X153580743Y-73783944D01*
X153584421Y-73746600D01*
X153584421Y-71946600D01*
X153580743Y-71909256D01*
X153569850Y-71873346D01*
X153552161Y-71840252D01*
X153528355Y-71811245D01*
X153499348Y-71787439D01*
X153466254Y-71769750D01*
X153430344Y-71758857D01*
X153393000Y-71755179D01*
X152393000Y-71755179D01*
X152355656Y-71758857D01*
X152319746Y-71769750D01*
X152312120Y-71773826D01*
X149127622Y-68589329D01*
X149149547Y-68548309D01*
X149209044Y-68352174D01*
X149229134Y-68148200D01*
X149678066Y-68148200D01*
X149698156Y-68352174D01*
X149757653Y-68548309D01*
X149854270Y-68729068D01*
X149984296Y-68887504D01*
X150142732Y-69017530D01*
X150323491Y-69114147D01*
X150519626Y-69173644D01*
X150672490Y-69188700D01*
X150774710Y-69188700D01*
X150927574Y-69173644D01*
X151123709Y-69114147D01*
X151164729Y-69092222D01*
X154201579Y-72129073D01*
X154201579Y-73746600D01*
X154205257Y-73783944D01*
X154216150Y-73819854D01*
X154233839Y-73852948D01*
X154257645Y-73881955D01*
X154286652Y-73905761D01*
X154319746Y-73923450D01*
X154355656Y-73934343D01*
X154393000Y-73938021D01*
X155393000Y-73938021D01*
X155430344Y-73934343D01*
X155466254Y-73923450D01*
X155499348Y-73905761D01*
X155528355Y-73881955D01*
X155552161Y-73852948D01*
X155569850Y-73819854D01*
X155580743Y-73783944D01*
X155584421Y-73746600D01*
X155584421Y-71946600D01*
X155580743Y-71909256D01*
X155569850Y-71873346D01*
X155552161Y-71840252D01*
X155528355Y-71811245D01*
X155499348Y-71787439D01*
X155466254Y-71769750D01*
X155430344Y-71758857D01*
X155393000Y-71755179D01*
X154833473Y-71755179D01*
X151667622Y-68589329D01*
X151689547Y-68548309D01*
X151749044Y-68352174D01*
X151769134Y-68148200D01*
X152218066Y-68148200D01*
X152238156Y-68352174D01*
X152297653Y-68548309D01*
X152394270Y-68729068D01*
X152524296Y-68887504D01*
X152682732Y-69017530D01*
X152863491Y-69114147D01*
X153059626Y-69173644D01*
X153212490Y-69188700D01*
X153314710Y-69188700D01*
X153467574Y-69173644D01*
X153593492Y-69135447D01*
X153648779Y-69190734D01*
X153648780Y-69644356D01*
X153646530Y-69667199D01*
X153655505Y-69758319D01*
X153678567Y-69834343D01*
X153682085Y-69845939D01*
X153725246Y-69926689D01*
X153783332Y-69997467D01*
X153801071Y-70012025D01*
X156201579Y-72412534D01*
X156201579Y-73746600D01*
X156205257Y-73783944D01*
X156216150Y-73819854D01*
X156233839Y-73852948D01*
X156257645Y-73881955D01*
X156286652Y-73905761D01*
X156319746Y-73923450D01*
X156355656Y-73934343D01*
X156393000Y-73938021D01*
X157393000Y-73938021D01*
X157430344Y-73934343D01*
X157466254Y-73923450D01*
X157499348Y-73905761D01*
X157528355Y-73881955D01*
X157552161Y-73852948D01*
X157569850Y-73819854D01*
X157580743Y-73783944D01*
X157584421Y-73746600D01*
X157584421Y-73311420D01*
X158201579Y-73311420D01*
X158201579Y-73746600D01*
X158205257Y-73783944D01*
X158216150Y-73819854D01*
X158233839Y-73852948D01*
X158257645Y-73881955D01*
X158286652Y-73905761D01*
X158319746Y-73923450D01*
X158355656Y-73934343D01*
X158393000Y-73938021D01*
X158521400Y-73938021D01*
X158521400Y-74358713D01*
X158508789Y-74377587D01*
X158477468Y-74453203D01*
X158461500Y-74533477D01*
X158461500Y-74615323D01*
X158477468Y-74695597D01*
X158508789Y-74771213D01*
X158554260Y-74839266D01*
X158612134Y-74897140D01*
X158680187Y-74942611D01*
X158755803Y-74973932D01*
X158836077Y-74989900D01*
X158917923Y-74989900D01*
X158998197Y-74973932D01*
X159073813Y-74942611D01*
X159141866Y-74897140D01*
X159199740Y-74839266D01*
X159245211Y-74771213D01*
X159276532Y-74695597D01*
X159292500Y-74615323D01*
X159292500Y-74533477D01*
X159276532Y-74453203D01*
X159245211Y-74377587D01*
X159232600Y-74358713D01*
X159232600Y-73938021D01*
X159393000Y-73938021D01*
X159430344Y-73934343D01*
X159466254Y-73923450D01*
X159499348Y-73905761D01*
X159528355Y-73881955D01*
X159552161Y-73852948D01*
X159569850Y-73819854D01*
X159580743Y-73783944D01*
X159584421Y-73746600D01*
X159584421Y-71946600D01*
X159580743Y-71909256D01*
X159569850Y-71873346D01*
X159552161Y-71840252D01*
X159528355Y-71811245D01*
X159499348Y-71787439D01*
X159466254Y-71769750D01*
X159430344Y-71758857D01*
X159393000Y-71755179D01*
X158393000Y-71755179D01*
X158355656Y-71758857D01*
X158319746Y-71769750D01*
X158286652Y-71787439D01*
X158257645Y-71811245D01*
X158233839Y-71840252D01*
X158216150Y-71873346D01*
X158205257Y-71909256D01*
X158201579Y-71946600D01*
X158201579Y-72381780D01*
X157584421Y-72381780D01*
X157584421Y-71946600D01*
X157580743Y-71909256D01*
X157569850Y-71873346D01*
X157552161Y-71840252D01*
X157528355Y-71811245D01*
X157499348Y-71787439D01*
X157466254Y-71769750D01*
X157430344Y-71758857D01*
X157393000Y-71755179D01*
X156858934Y-71755179D01*
X154578419Y-69474665D01*
X154578419Y-69021032D01*
X154580668Y-68998198D01*
X154571693Y-68907078D01*
X154545114Y-68819460D01*
X154545114Y-68819459D01*
X154501953Y-68738709D01*
X154443867Y-68667931D01*
X154426129Y-68653374D01*
X154250847Y-68478092D01*
X154289044Y-68352174D01*
X154309134Y-68148200D01*
X154758066Y-68148200D01*
X154778156Y-68352174D01*
X154837653Y-68548309D01*
X154934270Y-68729068D01*
X155064296Y-68887504D01*
X155222732Y-69017530D01*
X155403491Y-69114147D01*
X155599626Y-69173644D01*
X155752490Y-69188700D01*
X155854710Y-69188700D01*
X156007574Y-69173644D01*
X156203709Y-69114147D01*
X156384468Y-69017530D01*
X156542904Y-68887504D01*
X156672930Y-68729068D01*
X156769547Y-68548309D01*
X156829044Y-68352174D01*
X156849134Y-68148200D01*
X157298066Y-68148200D01*
X157318156Y-68352174D01*
X157377653Y-68548309D01*
X157474270Y-68729068D01*
X157604296Y-68887504D01*
X157762732Y-69017530D01*
X157943491Y-69114147D01*
X157988000Y-69127649D01*
X157988000Y-69879744D01*
X157986281Y-69897200D01*
X157988000Y-69914655D01*
X157988000Y-69914662D01*
X157993146Y-69966909D01*
X158013479Y-70033939D01*
X158046499Y-70095715D01*
X158090937Y-70149862D01*
X158104502Y-70160995D01*
X160201579Y-72258074D01*
X160201579Y-73746600D01*
X160205257Y-73783944D01*
X160216150Y-73819854D01*
X160233839Y-73852948D01*
X160257645Y-73881955D01*
X160286652Y-73905761D01*
X160319746Y-73923450D01*
X160355656Y-73934343D01*
X160393000Y-73938021D01*
X161393000Y-73938021D01*
X161430344Y-73934343D01*
X161466254Y-73923450D01*
X161499348Y-73905761D01*
X161528355Y-73881955D01*
X161552161Y-73852948D01*
X161569850Y-73819854D01*
X161580743Y-73783944D01*
X161584421Y-73746600D01*
X161584421Y-71946600D01*
X161580743Y-71909256D01*
X161569850Y-71873346D01*
X161552161Y-71840252D01*
X161528355Y-71811245D01*
X161499348Y-71787439D01*
X161466254Y-71769750D01*
X161430344Y-71758857D01*
X161393000Y-71755179D01*
X160704474Y-71755179D01*
X158699200Y-69749907D01*
X158699200Y-69127649D01*
X158743709Y-69114147D01*
X158924468Y-69017530D01*
X159082904Y-68887504D01*
X159212930Y-68729068D01*
X159309547Y-68548309D01*
X159369044Y-68352174D01*
X159389134Y-68148200D01*
X159369044Y-67944226D01*
X159309547Y-67748091D01*
X159212930Y-67567332D01*
X159082904Y-67408896D01*
X158948022Y-67298200D01*
X159842179Y-67298200D01*
X159842179Y-68998200D01*
X159845857Y-69035544D01*
X159856750Y-69071454D01*
X159874439Y-69104548D01*
X159898245Y-69133555D01*
X159927252Y-69157361D01*
X159960346Y-69175050D01*
X159996256Y-69185943D01*
X160033600Y-69189621D01*
X160528000Y-69189621D01*
X160528001Y-70419735D01*
X160526281Y-70437200D01*
X160533146Y-70506910D01*
X160553480Y-70573941D01*
X160569990Y-70604828D01*
X160586500Y-70635716D01*
X160630938Y-70689863D01*
X160644501Y-70700994D01*
X162201579Y-72258073D01*
X162201579Y-73746600D01*
X162205257Y-73783944D01*
X162216150Y-73819854D01*
X162233839Y-73852948D01*
X162257645Y-73881955D01*
X162286652Y-73905761D01*
X162319746Y-73923450D01*
X162355656Y-73934343D01*
X162393000Y-73938021D01*
X163393000Y-73938021D01*
X163430344Y-73934343D01*
X163466254Y-73923450D01*
X163499348Y-73905761D01*
X163528355Y-73881955D01*
X163552161Y-73852948D01*
X163569850Y-73819854D01*
X163580743Y-73783944D01*
X163584421Y-73746600D01*
X164201578Y-73746600D01*
X164205256Y-73783945D01*
X164216149Y-73819854D01*
X164233838Y-73852948D01*
X164257644Y-73881956D01*
X164286652Y-73905762D01*
X164319746Y-73923451D01*
X164355655Y-73934344D01*
X164393000Y-73938022D01*
X164718375Y-73937100D01*
X164766000Y-73889475D01*
X164766000Y-72973600D01*
X165020000Y-72973600D01*
X165020000Y-73889475D01*
X165067625Y-73937100D01*
X165393000Y-73938022D01*
X165430345Y-73934344D01*
X165466254Y-73923451D01*
X165499348Y-73905762D01*
X165528356Y-73881956D01*
X165552162Y-73852948D01*
X165569851Y-73819854D01*
X165580744Y-73783945D01*
X165584422Y-73746600D01*
X165583500Y-73021225D01*
X165535875Y-72973600D01*
X165020000Y-72973600D01*
X164766000Y-72973600D01*
X164250125Y-72973600D01*
X164202500Y-73021225D01*
X164201578Y-73746600D01*
X163584421Y-73746600D01*
X163584421Y-71946600D01*
X164201578Y-71946600D01*
X164202500Y-72671975D01*
X164250125Y-72719600D01*
X164766000Y-72719600D01*
X164766000Y-71803725D01*
X165020000Y-71803725D01*
X165020000Y-72719600D01*
X165535875Y-72719600D01*
X165583500Y-72671975D01*
X165584422Y-71946600D01*
X165580744Y-71909255D01*
X165569851Y-71873346D01*
X165552162Y-71840252D01*
X165528356Y-71811244D01*
X165499348Y-71787438D01*
X165466254Y-71769749D01*
X165430345Y-71758856D01*
X165393000Y-71755178D01*
X165067625Y-71756100D01*
X165020000Y-71803725D01*
X164766000Y-71803725D01*
X164718375Y-71756100D01*
X164393000Y-71755178D01*
X164355655Y-71758856D01*
X164319746Y-71769749D01*
X164286652Y-71787438D01*
X164257644Y-71811244D01*
X164233838Y-71840252D01*
X164216149Y-71873346D01*
X164205256Y-71909255D01*
X164201578Y-71946600D01*
X163584421Y-71946600D01*
X163580743Y-71909256D01*
X163569850Y-71873346D01*
X163552161Y-71840252D01*
X163528355Y-71811245D01*
X163499348Y-71787439D01*
X163466254Y-71769750D01*
X163430344Y-71758857D01*
X163393000Y-71755179D01*
X162704473Y-71755179D01*
X161239200Y-70289907D01*
X161239200Y-70146600D01*
X163211978Y-70146600D01*
X163215656Y-70183945D01*
X163226549Y-70219854D01*
X163244238Y-70252948D01*
X163268044Y-70281956D01*
X163297052Y-70305762D01*
X163330146Y-70323451D01*
X163366055Y-70334344D01*
X163403400Y-70338022D01*
X163903775Y-70337100D01*
X163951400Y-70289475D01*
X163951400Y-68173600D01*
X164205400Y-68173600D01*
X164205400Y-70289475D01*
X164253025Y-70337100D01*
X164753400Y-70338022D01*
X164790745Y-70334344D01*
X164826654Y-70323451D01*
X164859748Y-70305762D01*
X164888756Y-70281956D01*
X164912562Y-70252948D01*
X164930251Y-70219854D01*
X164941144Y-70183945D01*
X164944822Y-70146600D01*
X164943900Y-68221225D01*
X164896275Y-68173600D01*
X164205400Y-68173600D01*
X163951400Y-68173600D01*
X163260525Y-68173600D01*
X163212900Y-68221225D01*
X163211978Y-70146600D01*
X161239200Y-70146600D01*
X161239200Y-69189621D01*
X161733600Y-69189621D01*
X161770944Y-69185943D01*
X161806854Y-69175050D01*
X161839948Y-69157361D01*
X161868955Y-69133555D01*
X161892761Y-69104548D01*
X161910450Y-69071454D01*
X161921343Y-69035544D01*
X161925021Y-68998200D01*
X161925021Y-67298200D01*
X161921343Y-67260856D01*
X161910450Y-67224946D01*
X161892761Y-67191852D01*
X161868955Y-67162845D01*
X161839948Y-67139039D01*
X161806854Y-67121350D01*
X161770944Y-67110457D01*
X161733600Y-67106779D01*
X160033600Y-67106779D01*
X159996256Y-67110457D01*
X159960346Y-67121350D01*
X159927252Y-67139039D01*
X159898245Y-67162845D01*
X159874439Y-67191852D01*
X159856750Y-67224946D01*
X159845857Y-67260856D01*
X159842179Y-67298200D01*
X158948022Y-67298200D01*
X158924468Y-67278870D01*
X158743709Y-67182253D01*
X158547574Y-67122756D01*
X158394710Y-67107700D01*
X158292490Y-67107700D01*
X158139626Y-67122756D01*
X157943491Y-67182253D01*
X157762732Y-67278870D01*
X157604296Y-67408896D01*
X157474270Y-67567332D01*
X157377653Y-67748091D01*
X157318156Y-67944226D01*
X157298066Y-68148200D01*
X156849134Y-68148200D01*
X156829044Y-67944226D01*
X156769547Y-67748091D01*
X156672930Y-67567332D01*
X156542904Y-67408896D01*
X156384468Y-67278870D01*
X156203709Y-67182253D01*
X156007574Y-67122756D01*
X155854710Y-67107700D01*
X155752490Y-67107700D01*
X155599626Y-67122756D01*
X155403491Y-67182253D01*
X155222732Y-67278870D01*
X155064296Y-67408896D01*
X154934270Y-67567332D01*
X154837653Y-67748091D01*
X154778156Y-67944226D01*
X154758066Y-68148200D01*
X154309134Y-68148200D01*
X154289044Y-67944226D01*
X154229547Y-67748091D01*
X154132930Y-67567332D01*
X154002904Y-67408896D01*
X153844468Y-67278870D01*
X153663709Y-67182253D01*
X153467574Y-67122756D01*
X153314710Y-67107700D01*
X153212490Y-67107700D01*
X153059626Y-67122756D01*
X152863491Y-67182253D01*
X152682732Y-67278870D01*
X152524296Y-67408896D01*
X152394270Y-67567332D01*
X152297653Y-67748091D01*
X152238156Y-67944226D01*
X152218066Y-68148200D01*
X151769134Y-68148200D01*
X151749044Y-67944226D01*
X151689547Y-67748091D01*
X151592930Y-67567332D01*
X151462904Y-67408896D01*
X151304468Y-67278870D01*
X151123709Y-67182253D01*
X150927574Y-67122756D01*
X150774710Y-67107700D01*
X150672490Y-67107700D01*
X150519626Y-67122756D01*
X150323491Y-67182253D01*
X150142732Y-67278870D01*
X149984296Y-67408896D01*
X149854270Y-67567332D01*
X149757653Y-67748091D01*
X149698156Y-67944226D01*
X149678066Y-68148200D01*
X149229134Y-68148200D01*
X149209044Y-67944226D01*
X149149547Y-67748091D01*
X149052930Y-67567332D01*
X148922904Y-67408896D01*
X148764468Y-67278870D01*
X148583709Y-67182253D01*
X148387574Y-67122756D01*
X148234710Y-67107700D01*
X148132490Y-67107700D01*
X147979626Y-67122756D01*
X147783491Y-67182253D01*
X147602732Y-67278870D01*
X147444296Y-67408896D01*
X147314270Y-67567332D01*
X147217653Y-67748091D01*
X147158156Y-67944226D01*
X147138066Y-68148200D01*
X146239700Y-68148200D01*
X146239700Y-66178900D01*
X163212089Y-66178900D01*
X163212900Y-67871975D01*
M02*
